<svg xmlns="http://www.w3.org/2000/svg" viewBox="0 0 400 400" height="400" width="400"><path d="M279.9 7.5c17.8-8.9 22.4-9.3 27.9-2.2 10 12.6 11 55.9 2 83.7-3.6 11.3-4.7 20.4-5.6 48-1.3 36.4-1.2 36.8 8.8 37.1 3.3.1 9.6 1.4 14 2.9 7.9 2.7 7.8 2.7-6.2 1.6-23.4-1.8-29.6 4.4-10.3 10.3 12.3 3.7 22.2 8.9 17.3 9-1.8.1-7.1-1.2-11.8-2.9-21.5-7.6-28.3-2.2-8.8 7.1 16.6 7.9 15.2 10.1-2.1 3.1-7.2-2.8-14.3-5.2-15.8-5.2-4 0-26.1 17.8-27.8 22.4-3.7 9.7 5.1 46 12.1 50.4 2.9 1.7 17.4-14.9 29.5-33.8 23.6-36.9 52.3-58.8 66.8-51.1 6.8 3.7 4.8 8.9-8.5 22.4-13.5 13.5-28.8 37.7-41.7 65.6-8.9 19.3-14.2 25.7-29 35.3-7.4 4.8-10.7 8.3-11.4 12.3-3.4 18.3-3.4 21.3 0 30.8 5 13.9.3 19.9-17.8 22.7-6.2 1-7.5 2-7.5 5.8 0 2.6-1.9 7-4.1 9.9-7.5 9.5-37.9 5.7-37.9-4.8 0-5.1 3.4-5 5 .1 2.8 8.9 14 10 15.6 1.6l.9-4.6 1.5 4.5c4.2 12.7 15.6.7 13.8-14.5-1.2-9.7-1.1-9.9 2.1-5.5 3.8 5.1 7.1 4.3 7.1-1.6 0-2.2.9-3.9 2-3.9s2 1.7 2 3.7.5 4.2 1.2 4.8c2.2 2.3 6.8-.9 6.8-4.7 0-4.3 2.1-4.9 5.6-1.4 1.9 1.9 2.4 1.2 2.4-2.9 0-13.4-22.4-16.1-27.9-3.4-2.8 6.3-1.6-19 2.8-59.8 2.6-23.3 2.7-29.5.6-33.2-1.4-2.5-4.1-7.5-6.2-11.1-2-3.5-4.1-11.3-4.7-17.2-.7-6-1.3-10.8-1.4-10.8-.1 0-6.5 1.3-14.2 3-20.2 4.2-55.9 3.8-79-1-10.4-2.2-19.7-4-20.5-4-.8 0-1.5 3.5-1.5 7.7s-1.8 12.9-4 19.3c-7.1 20.5-4.7 40.6 9.9 85.6l8 24.4-4.7 6.7c-4.5 6.3-4.6 6.9-1.6 13 5.2 10.7 8.9 11.2 12.8 1.6l2.2-5.3 1.3 5c1.9 7.2 12.4 7.2 14.1 0 .8-3.3 1.7-4.2 2.7-2.5 5.1 8.2 5.9 1.2 4.6-40-.7-23.4-.5-43.7.4-45.2 2.6-4 4.3 9.4 4.3 35.1 0 27.1 1.4 31.6 10.3 33.2 3.7.7 8.9 1.9 11.5 2.6l4.8 1.4-1.4-26.8c-.8-14.7-2.2-30.8-3.1-35.8-2-10.4-1.4-12.2 2-5.8 1.3 2.4 3.6 22.1 5 43.6 1.4 21.6 3.2 41 4.1 43.2.8 2.2-2.3-.7-6.9-6.5-12.5-15.6-18.7-16.2-26.1-2.3-10.8 20.3-38.9 23.1-47.6 4.8-2.9-6.1-4.3-7-10.7-7-9.4 0-13-4.2-15.6-18-1.2-6-3.9-19.5-6.2-30-6.9-32.2-4.7-50.2 8.6-71.8 6.6-10.6 7.3-13.2 7.3-25.8v-14l-10.1-8.5-10.2-8.5-18.1 5.4c-17.4 5.2-24.2 5.8-16.1 1.5 11.3-6.1 68.4-17.9 72.3-14.9 2.2 1.6-2.6 3.1-14.8 4.6-16.8 2.1-17.6 3-9 10.2 34.5 28.9 107.8 32 156.3 6.5 18.1-9.5 22.3-14.1 14.4-15.7-15.7-3.3-17.5-4.9-4.2-3.9 7.6.6 13.5.2 13.5-.8 0-2.8-5.3-4.3-14.7-4.3-4.5 0-9.6-.9-11.3-2-2.1-1.3 2.8-1.9 15.5-2 15.1 0 18.5-.6 18.5-3s-3.3-3-17.5-3.1c-19.4-.2-17.8-3.5 1.8-3.8 21.5-.2 22.3-2.5 5.2-14.7-12.5-8.8-12.6-8.9-36.8-11-13.4-1.2-27.7-3.6-31.8-5.3l-7.4-3.1 1.3-15.3c.8-8.4 3.1-19.6 5.1-25l3.7-9.8-12.9-11.4c-17.6-15.6-17.7-15.6-36.2 5.4l-8.4 9.7 3.9 11.5c10.9 31.5 3.2 41.9-33 44.8-16.6 1.3-19.1 2-31.5 9.9-19 12-17.8 14.2 7.5 14.2 8.1 0 15.3.9 16 2 .8 1.3-5.4 2-17 2-25.1 0-24.2 4.5 1.2 6.1 9.8.6 16.9 1.3 15.8 1.5-1.1.3-7.8 1.4-14.9 2.5-7 1.2-13.7 2.7-14.9 3.4-1.1.7-11.5 1.4-23.1 1.7l-21.1.4 16-3.9c24.7-5.9 24.4-7.6-2-11.1l-12-1.5 15-1.1c12.1-.8 14.8-1.6 14.2-4-.5-1.6-2.1-14.2-3.6-28-1.5-13.7-4.2-30.8-6-38-7.1-28.8-8.5-37.8-8.5-56C62 15.1 68.6 3.6 86.2 7.6c15.4 3.6 44.7 18.6 59.6 30.7l12.7 10.3 30.7-1.3 30.6-1.2 22.6-15.5c12.4-8.6 29.3-18.9 37.5-23.1m25 30.5l.1-29-5.2-.6c-6.5-.8-14.5 5.7-28.8 23.4-5.9 7.3-13.4 16.5-16.8 20.5l-6.1 7.3 6.4 3.1c6.9 3.3 24.5 20.6 35.5 35 4.6 6 7 7.8 8.1 6.1 3.3-5.3 6.6-37.9 6.8-65.8M98.2 23.8C74.2 8.1 72 9.2 72.1 36.8c.1 53.5 9 92.1 14.9 65.1 1.4-6.3 29.6-37.9 33.9-37.9 1.3 0 4.5-2.2 7-4.9l4.5-4.8-9.6-10.3c-5.3-5.7-16.4-14.8-24.6-20.2m170.3 62.3c-19.5-12.9-40.3-5.3-51.7 18.9-12.7 26.7-3.6 39.7 27.6 39.5 40.9-.3 56.1-37.2 24.1-58.4m-121.2 4.5C125.7 76 98 91.7 98 118.7c0 21.7 31.9 35.5 55.5 24 18.1-8.9 14.6-38.1-6.2-52.1m79.1 9.1c19.7-18.5 51.9 11.4 34.5 32-12.7 15.1-37.6 11.4-42-6.2-2.2-9 .9-19.7 7.5-25.8m-99.4-1c14.8-6.7 30.8 3.5 32.5 20.6 1.1 12.2-4 19.6-15.7 22.8-29.5 7.9-44.5-30.7-16.8-43.4m51.8 49.5c4.9-5.4 3.3-5.7 25.7 5.3l19.3 9.5-15.7 31c-19.9 39.2-18.3 39.2-38.2 0l-15.7-31 10.4-5.3c5.7-2.9 12.1-7.2 14.2-9.5m27.5 21c-5.9-1.7-21.2-2.9-25.3-2-2.2.5-5.9 1.4-8.3 1.9-2.3.5-4.8 2.3-5.5 4.1-1.8 4.8 17.7 44.8 21.8 44.8 8.8 0 25.3-46.5 17.3-48.8m-92.2 123.9c-2.2-5.6-3.4-6-8.4-3-3.1 1.7-2.8 3 2.7 13.7 4 7.8 6.5 16.2 7.4 24.9 1.6 14.9 2.3 16.2 7.9 14.4 3.9-1.2-1.2-27.7-9.6-50m144.7 27.3c2.6-16.8 3.2-25.2 1.8-26.6-1.4-1.4-2.9 5.1-4.6 20.7-3.4 31.9-1.7 35.5 2.8 5.9m-126.9 34.1c-3.9-7.1-17.2-8.8-22.5-2.9-3.7 4.1-4.5 8.4-1.5 8.4 1 0 1.7 2.5 1.5 5.5-.3 4.6.5 5.6 5.1 6.1 4.2.5 5.5-.2 5.5-3 .1-3 .4-3.1 2-.6 4.8 7.5 14.4-5.6 9.9-13.5"/></svg>
