<svg xmlns="http://www.w3.org/2000/svg" width="400" height="400" viewBox="0 0 400 400"><path d="M279.9 7.5c-8.2 4.2-25.1 14.5-37.5 23.1l-22.6 15.5-30.6 1.2-30.7 1.3-12.7-10.3c-14.9-12.1-44.2-27.1-59.6-30.7C68.6 3.6 62 15.1 62.1 50c0 18.2 1.4 27.2 8.5 56 1.8 7.2 4.5 24.3 6 38 1.5 13.8 3.1 26.4 3.6 28 .6 2.4-2.1 3.2-14.2 4l-15 1.1 12 1.5c26.4 3.5 26.7 5.2 2 11.1l-16 3.9 21.1-.4c11.6-.3 22-1 23.1-1.7 1.2-.7 7.9-2.2 14.9-3.4 7.1-1.1 13.8-2.2 14.9-2.5 1.1-.2-6-.9-15.8-1.5-25.4-1.6-26.3-6.1-1.2-6.1 11.6 0 17.8-.7 17-2-.7-1.1-7.9-2-16-2-25.3 0-26.5-2.2-7.5-14.2 12.4-7.9 14.9-8.6 31.5-9.9 36.2-2.9 43.9-13.3 33-44.8l-3.9-11.5 8.4-9.7c18.5-21 18.6-21 36.2-5.4l12.9 11.4-3.7 9.8c-2 5.4-4.3 16.6-5.1 25l-1.3 15.3 7.4 3.1c4.1 1.7 18.4 4.1 31.8 5.3 24.2 2.1 24.3 2.2 36.8 11 17.1 12.2 16.3 14.5-5.2 14.7-19.6.3-21.2 3.6-1.8 3.8 14.2.1 17.5.7 17.5 3.1 0 2.4-3.4 3-18.5 3-12.7.1-17.6.7-15.5 2 1.7 1.1 6.8 2 11.3 2 9.4 0 14.7 1.5 14.7 4.3 0 1-5.9 1.4-13.5.8-13.3-1-11.5.6 4.2 3.9 7.9 1.6 3.7 6.2-14.4 15.7-48.5 25.5-121.8 22.4-156.3-6.5-8.6-7.2-7.8-8.1 9-10.2 12.2-1.5 17-3 14.8-4.6-3.9-3-61 8.8-72.3 14.9-8.1 4.3-1.3 3.7 16.1-1.5l18.1-5.4 10.2 8.5 10.1 8.5v14c0 12.6-.7 15.2-7.3 25.8-13.3 21.6-15.5 39.6-8.6 71.8 2.3 10.5 5 24 6.2 30 2.6 13.8 6.2 18 15.6 18 6.4 0 7.8.9 10.7 7 8.7 18.3 36.8 15.5 47.6-4.8 7.4-13.9 13.6-13.3 26.1 2.3 4.6 5.8 7.7 8.7 6.9 6.5-.9-2.2-2.7-21.6-4.1-43.2-1.4-21.5-3.7-41.2-5-43.6-3.4-6.4-4-4.6-2 5.8.9 5 2.3 21.1 3.1 35.8l1.4 26.8-4.8-1.4c-2.6-.7-7.8-1.9-11.5-2.6-8.9-1.6-10.3-6.1-10.3-33.2 0-25.7-1.7-39.1-4.3-35.1-.9 1.5-1.1 21.8-.4 45.2 1.3 41.2.5 48.2-4.6 40-1-1.7-1.9-.8-2.7 2.5-1.7 7.2-12.2 7.2-14.1 0l-1.3-5-2.2 5.3c-3.9 9.6-7.6 9.1-12.8-1.6-3-6.1-2.9-6.7 1.6-13l4.7-6.7-8-24.4c-14.6-45-17-65.1-9.9-85.6 2.2-6.4 4-15.1 4-19.3 0-4.2.7-7.7 1.5-7.7s10.1 1.8 20.5 4c23.1 4.8 58.8 5.2 79 1 7.7-1.7 14.1-3 14.2-3 .1 0 .7 4.8 1.4 10.8.6 5.9 2.7 13.7 4.7 17.2 2.1 3.6 4.8 8.6 6.2 11.1 2.1 3.7 2 9.9-.6 33.2-4.4 40.8-5.6 66.1-2.8 59.8 5.5-12.7 27.9-10 27.9 3.4 0 4.1-.5 4.8-2.4 2.9-3.5-3.5-5.6-2.9-5.6 1.4 0 3.8-4.6 7-6.8 4.7-.7-.6-1.2-2.8-1.2-4.8s-.9-3.7-2-3.7-2 1.7-2 3.9c0 5.9-3.3 6.7-7.1 1.6-3.2-4.4-3.3-4.2-2.1 5.5 1.8 15.2-9.6 27.2-13.8 14.5l-1.5-4.5-.9 4.6c-1.6 8.4-12.8 7.3-15.6-1.6-1.6-5.1-5-5.2-5-.1 0 10.5 30.4 14.3 37.9 4.8 2.2-2.9 4.1-7.3 4.1-9.9 0-3.8 1.3-4.8 7.5-5.8 18.1-2.8 22.8-8.8 17.8-22.7-3.4-9.5-3.4-12.5 0-30.8.7-4 4-7.5 11.4-12.3 14.8-9.6 20.1-16 29-35.3 12.9-27.9 28.2-52.1 41.7-65.6 13.3-13.5 15.3-18.7 8.5-22.4-14.5-7.7-43.2 14.2-66.8 51.1-12.1 18.9-26.6 35.5-29.5 33.8-7-4.4-15.8-40.7-12.1-50.4 1.7-4.6 23.8-22.4 27.8-22.4 1.5 0 8.6 2.4 15.8 5.2 17.3 7 18.7 4.8 2.1-3.1-19.5-9.3-12.7-14.7 8.8-7.1 4.7 1.7 10 3 11.8 2.9 4.9-.1-5-5.3-17.3-9-19.3-5.9-13.1-12.1 10.3-10.3 14 1.1 14.1 1.1 6.2-1.6-4.4-1.5-10.7-2.8-14-2.9-10-.3-10.1-.7-8.8-37.1.9-27.6 2-36.7 5.6-48 9-27.8 8-71.1-2-83.7-5.5-7.1-10.1-6.7-27.9 2.2m25 30.5c-.2 27.9-3.5 60.5-6.8 65.8-1.1 1.7-3.5-.1-8.1-6.1-11-14.4-28.6-31.7-35.5-35l-6.4-3.1 6.1-7.3c3.4-4 10.9-13.2 16.8-20.5 14.3-17.7 22.3-24.2 28.8-23.4l5.2.6-.1 29M98.2 23.8c8.2 5.4 19.3 14.5 24.6 20.2l9.6 10.3-4.5 4.8c-2.5 2.7-5.7 4.9-7 4.9-4.3 0-32.5 31.6-33.9 37.9-5.9 27-14.8-11.6-14.9-65.1-.1-27.6 2.1-28.7 26.1-13m170.3 62.3c32 21.2 16.8 58.1-24.1 58.4-31.2.2-40.3-12.8-27.6-39.5 11.4-24.2 32.2-31.8 51.7-18.9m-121.2 4.5c20.8 14 24.3 43.2 6.2 52.1-23.6 11.5-55.5-2.3-55.5-24 0-27 27.7-42.7 49.3-28.1m79.1 9.1c-6.6 6.1-9.7 16.8-7.5 25.8 4.4 17.6 29.3 21.3 42 6.2 17.4-20.6-14.8-50.5-34.5-32m-99.4-1c-27.7 12.7-12.7 51.3 16.8 43.4 11.7-3.2 16.8-10.6 15.7-22.8-1.7-17.1-17.7-27.3-32.5-20.6m51.8 49.5c-2.1 2.3-8.5 6.6-14.2 9.5l-10.4 5.3 15.7 31c19.9 39.2 18.3 39.2 38.2 0l15.7-31-19.3-9.5c-22.4-11-20.8-10.7-25.7-5.3m27.5 21c8 2.3-8.5 48.8-17.3 48.8-4.1 0-23.6-40-21.8-44.8.7-1.8 3.2-3.6 5.5-4.1 2.4-.5 6.1-1.4 8.3-1.9 4.1-.9 19.4.3 25.3 2m-92.2 123.9c8.4 22.3 13.5 48.8 9.6 50-5.6 1.8-6.3.5-7.9-14.4a70.9 70.9 0 00-7.4-24.9c-5.5-10.7-5.8-12-2.7-13.7 5-3 6.2-2.6 8.4 3m144.7 27.3c-4.5 29.6-6.2 26-2.8-5.9 1.7-15.6 3.2-22.1 4.6-20.7 1.4 1.4.8 9.8-1.8 26.6m-126.9 34.1c4.5 7.9-5.1 21-9.9 13.5-1.6-2.5-1.9-2.4-2 .6 0 2.8-1.3 3.5-5.5 3-4.6-.5-5.4-1.5-5.1-6.1.2-3-.5-5.5-1.5-5.5-3 0-2.2-4.3 1.5-8.4 5.3-5.9 18.6-4.2 22.5 2.9"/></svg>