<svg xmlns="http://www.w3.org/2000/svg" viewBox="0 0 400 400" height="400" width="400"><path d="M280 8c18-9 22-10 28-3 10 13 11 56 2 84-4 11-5 20-6 48-1 36-1 37 9 37 3 0 10 1 14 3 8 3 8 3-6 2-24-2-30 4-11 10 13 4 23 9 18 9l-12-3c-22-8-28-2-9 7 17 8 15 10-2 3l-16-5c-4 0-26 18-28 22-3 10 6 46 13 51 2 2 17-15 29-34 24-37 52-59 67-51 7 4 5 9-9 22-13 14-28 38-41 66-9 19-15 26-29 35-8 5-11 8-12 12-3 19-3 22 0 31 5 14 1 20-18 23-6 1-7 2-7 6l-4 10c-8 9-38 5-38-5 0-5 3-5 5 0 3 9 14 10 16 2v-5l2 5c4 12 16 0 14-15-1-10-1-10 2-5 4 5 7 4 7-2l2-4 2 4 1 4c2 3 7 0 7-4s2-5 6-2c1 2 2 2 2-2 0-14-22-17-28-4-3 6-2-19 3-60 2-23 3-29 0-33l-6-11c-2-3-4-11-4-17l-2-11-14 3a234 234 0 0 1-100-5l-1 8-4 19c-7 21-5 41 10 86l8 24-5 7c-4 6-4 7-1 13 5 10 8 11 12 1l3-5 1 5c2 7 12 7 14 0 1-3 2-4 3-2 5 8 6 1 4-40l1-46c2-4 4 10 4 35 0 28 1 32 10 34l12 2 5 2-2-27-3-36c-2-10-1-12 2-6 1 3 4 22 5 44l4 43-7-6c-12-16-18-17-26-3-11 20-39 23-47 5-3-6-5-7-11-7-9 0-13-4-16-18l-6-30c-7-32-5-50 9-72 6-10 7-13 7-26v-14l-10-8-10-9-18 6c-18 5-25 6-16 1 11-6 68-18 72-15 2 2-3 3-15 5-17 2-18 3-9 10 35 29 108 32 156 7 18-10 23-14 15-16-16-3-18-5-5-4 8 1 14 0 14-1 0-3-5-4-15-4l-11-2c-2-1 3-2 16-2 15 0 18-1 18-3s-3-3-17-3c-20 0-18-4 1-4 22 0 23-2 6-15-13-8-13-9-37-11-14-1-28-3-32-5l-8-3 2-15 5-25 4-10-13-12c-18-15-18-15-37 6l-8 10 4 11c11 32 3 42-33 45-17 1-19 2-32 10-19 12-17 14 8 14l16 2c1 1-5 2-17 2-25 0-24 4 1 6 10 1 17 1 16 2a340 340 0 0 1-30 5c-1 1-11 2-23 2l-21 1 16-4c25-6 24-8-2-11l-12-2 15-1c12-1 15-2 14-4l-3-28-6-38c-8-29-9-38-9-56 0-35 7-46 24-42 16 3 45 18 60 30l13 11 30-2 31-1 22-15 38-24m25 31V9l-5-1c-7 0-15 6-29 24l-17 20-6 8 6 3c7 3 25 20 36 35 5 6 7 7 8 6 3-6 7-38 7-66M98 24C74 8 72 9 72 37c0 53 9 92 15 65a136 136 0 0 1 41-43l4-5-9-10c-5-6-17-15-25-20m171 62c-20-13-41-5-52 19-13 27-4 40 27 40 41-1 57-38 25-59m-122 5c-21-15-49 1-49 28 0 21 32 35 56 24 18-9 14-38-7-52m79 9c20-19 52 11 35 32-13 15-38 11-42-7-2-9 1-19 7-25m-99-1c15-7 31 3 32 20 2 12-4 20-15 23-30 8-45-31-17-43m52 49c5-5 3-6 25 5l20 10-16 31c-20 39-18 39-38 0l-16-31 11-5 14-10m27 21c-6-2-21-3-25-2l-8 2c-3 1-5 2-6 4-2 5 18 45 22 45 9 0 25-46 17-49m-92 124c-2-5-3-6-8-3-3 2-3 3 2 14 4 8 7 16 8 25 1 15 2 16 8 14 4-1-2-28-10-50m145 27c2-16 3-25 2-26-2-2-3 5-5 20-3 32-2 36 3 6m-127 34c-4-7-17-8-23-2-3 4-4 8-1 8 1 0 2 2 1 5 0 5 1 6 5 7 5 0 6-1 6-3 0-3 0-4 2-1 5 7 14-6 10-14"/></svg>