<svg xmlns="http://www.w3.org/2000/svg" width="400" height="400" viewBox="0 0 400 400"><path d="M52.4 4.4c-4.7 4.7-2.2 12.5 14.5 44.3C83.4 80.3 96 108.8 96 114.5c0 2.2-4.5 3.2-19.5 4.2-22.2 1.5-45.3 5.8-49.6 9.4-4 3.3-3.8 4.9 3.9 23.5 11.9 28.6 20.6 42.6 35.8 57.4L81 223l-1 18c-3.4 61.7 27.5 126.4 50.2 105.2 5-4.6 9.8-20 9.8-31.3v-8.4l17.4 8.8c9.6 4.8 19.3 8.7 21.5 8.7 10.7.1 12.9 2.4 26.2 26.7 25.4 46.5 39.3 57.8 53.2 43.3 3.2-3.3 5.7-8.2 5.7-11 0-3.8 1-5 4.2-5 12.3 0 25.4-14.3 19.5-21.4-7.4-8.9 8.1-67.6 20.6-78.2 12.1-10.2 23.3-31.1 33.4-62.5 7.3-22.6-8.1-69.7-28-85.6-8.4-6.8-12-16.7-13.8-39C298.2 71.6 282 30 276 30c-1.1 0-2-1.1-2-2.6 0-1.4-3.9-7-8.7-12.4l-8.7-9.9-8.2 5.4c-14.9 9.9-37.2 40.7-48.6 67.5-5.4 12.6-5.8 13-18.4 18.1-7 2.9-15.9 7.1-19.6 9.4-4.1 2.5-11 4.4-17.4 4.7l-10.6.6-13.5-27.1C92.9 29 62.9-6.1 52.4 4.4m212 23.1C280.1 48.2 289.5 70.8 292 94c.8 8.3 2.3 16.8 3.1 19 1.5 3.7 1.3 3.8-2.3.8-5.2-4.3-24.5-13-34.5-15.7-4.6-1.1-11.9-3-16.4-4.2-4.4-1.1-7.6-2.8-7.1-3.6.6-.9 3.7-14.7 7-30.8 8.8-43.4 11.3-46.9 22.6-32m30 97.4c20.8 8.7 26.3 48.1 8.1 58.1-42.9 23.7-59.7 16.6-58.4-24.7 1.1-31.7 21.7-45.4 50.3-33.4m-88.4 8.8c7.2 2 18 5.3 24.1 7.4l11.1 3.7-.8 16.1c-1.9 40.2 24.7 52.5 59.2 27.3 4.1-2.9 6.2-3.2 12.6-1.5 6.2 1.7 9.1 1.4 14.9-1.3 11.3-5.4 6.4-.9-6.1 5.7-11.8 6.1-20 12.6-18.3 14.3.6.5 4.9-1.7 9.7-4.9 8.4-5.8 24.4-14.5 26.5-14.5 3.7 0 .6 11.9-3.4 13.1-8.5 2.7-25.3 10.9-26.6 13-2.5 4.2.3 3.5 14.1-3.2 17.1-8.4 17.5-8.4 16.3-.7-1.2 7.3.3 6.2-13.8 10.5-6.4 2-11.1 4.3-10.5 5.3.6 1 4.8.5 9.3-1.1 10.2-3.6 14.5-3.7 12.4-.4-.9 1.4-1.8 3.7-2 5.1-7.1 47.3-99.6 106.9-145.3 93.6l-7.6-2.2 13.2-13.7c7.3-7.5 12.7-14.2 12-14.9-.7-.7-7.5 5.5-15.2 13.9l-14 15.1-8.9-3.2c-4.9-1.7-8.9-3.6-8.8-4.2 0-1.5 21.4-16.5 32.4-22.9 8.2-4.7 12.2-9.1 8.4-9.1-1.8 0-28.9 17.7-37.5 24.5-6.7 5.3-8.3 5.7-12.7 3.7-7.4-3.3-3.6-8.6 11.3-15.6 1.7-.7 3.9-2.4 5-3.7 1.1-1.3 8.1-4.9 15.5-8 7.4-3.2 13.5-7 13.5-8.4 0-1.8-3.1-1-10.1 2.5-9.3 4.7-9.8 4.8-7.5 1.1 1.4-2.3 3.2-4.1 4.1-4.1.8 0 1.5-1.2 1.5-2.6 0-1.4 2.8-4.2 6.2-6.2 35.3-20.9 39.2-50 9.2-69.2-10.2-6.5-10.9-7.4-9.7-13 1.6-7.6 1.5-13.9-.6-34.5-1.9-19-2.8-18.2 16.9-12.8m-134.7 7.5c31.9 10.5 43.4 16.1 41.7 20.3-7.3 17.4-11.9 39.4-11.9 57-.1 9.4-1.6 12.2-3.8 6.6-.6-1.5-5.9-5.9-11.7-9.7-22-14-49.6-59.6-49.6-81.9 0-2.5 12.6.2 35.3 7.7m191-.9c-11.9 4.4-16.8 22-9.5 34.5 9.3 15.9 25.8 17.2 38 2.9 16.1-18.9-4.6-46.2-28.5-37.4m17.4 5.5c1.6 1 2.5 2.6 2 3.7-.4 1-3.4.2-6.7-1.8-4.9-3-5.3-3.7-2-3.7 2.2.1 5.2.8 6.7 1.8m-93.4 44.6c12.3 2.9 29.7 20.9 29.7 30.8 0 38.1-64.1 62.2-81.8 30.8-19-33.8 12.3-70.8 52.1-61.6m-15.5 5.7c-7.3 2.2-17.3 15.4-17.7 23.4-1.2 26.6 35.3 38.1 48.7 15.5 12.4-21.1-7.5-46-31-38.9m20.3 6.8c3.8 2.9 3.8 3-.2 3-2.3.1-5.9-1.2-8-2.8-3.8-2.9-3.8-3 .2-3 2.3-.1 5.9 1.2 8 2.8m52.9 19c-2.7 2.1-4.3 4.4-3.6 5.2 2.3 2.2 12.6-2.2 13.2-5.8.9-4.4-3.4-4.1-9.6.6m43.3-.4c-.8 1.4-1 3.3-.4 4.3 4.6 7.5-15.2 14-30.1 9.7-3.5-.9-4.3-.2-4.6 4.2-.8 11.9-1.7 14.4-6.7 19-2.9 2.7-8.1 5.5-11.4 6.3-7.2 1.6-10.1 5-4.1 5 10.1 0 24-12.9 24-22.4.1-6.1 3-10.8 4.9-7.8 3.9 6.3 24.2.4 28.9-8.4 2.8-5.2 2.4-14.4-.5-9.9m-189 45.3c2.5 1.8 7 3.2 9.9 3.2 5.1 0 7.4 2.6 24 27.3 1.7 2.6 3.7 4.2 4.3 3.6 1.1-1.2.8 3.5-1.6 24.6-.9 8.1-2.4 12.5-4 12.5-1.5 0-4.1 1.5-6 3.4-2.7 2.7-4 2.8-7.1.9-3-1.8-3.8-1.8-3.9.2-.1 5.5-11.4-10.5-16.7-23.6-3.1-7.6-6.4-15.7-7.4-17.9-2.2-5.1-7.3-35.6-7.7-45.9l-.3-8 6 8.3c3.2 4.5 8 9.6 10.5 11.4m195 31.6c-7.1 11.1-13.7 51.4-9.7 59 3.3 6 3.1 6.6-2.1 6.1-3.7-.4-4.4.3-3.8 4.5.5 4 .2 4.5-1.9 2.5-3.7-3.5-8.5-3.2-7.1.5 1.8 4.6-6.1 3.8-8.6-.9-3.5-6.5-1.7-40.8 3.1-56.4.5-1.8 6.7-7.1 13.8-11.7 7-4.6 14-9.7 15.4-11.5 4-4.8 4.7 1.9.9 7.9m-36.1 21.1c-3.5 15.6-3.8 48.3-.5 53.3 3.7 5.7 4.3 11.2 1.3 11.2-1.1 0-2 1.7-2 3.9 0 2.8-1.1 3.7-4 3.1-2.4-.5-4 .3-4 2 0 14-22.7-11.4-40.2-45-3.7-7.1-8-14.3-9.6-16-2.6-2.6-.7-3.3 16-5.6 10.3-1.5 23.8-4.8 29.8-7.3 14.4-6.1 14.7-6 13.2.4"/></svg>