<svg xmlns="http://www.w3.org/2000/svg" width="400" height="400" viewBox="0 0 400 400"><path d="M52 4c-4 5-2 13 15 45 16 31 29 60 29 66 0 2-4 3-19 4-23 1-46 6-50 9s-4 5 4 24c12 28 20 42 36 57l14 14-1 18c-3 62 28 126 50 105 5-4 10-20 10-31v-9l17 9 22 9c11 0 13 2 26 27 25 46 39 57 53 43 4-3 6-8 6-11 0-4 1-5 4-5 12 0 26-14 20-21-8-9 8-68 20-79 12-10 24-31 34-62 7-23-8-70-28-86-9-6-12-16-14-39-2-19-18-61-24-61-1 0-2-1-2-3l-9-12-8-10-9 5c-14 10-37 41-48 68-6 13-6 13-19 18l-19 9c-4 3-11 5-18 5l-10 1-14-27C93 29 63-6 52 4m212 24c16 20 26 43 28 66l3 19c2 4 1 4-2 1a139 139 0 0 0-51-20c-4-1-8-3-7-4l7-31c9-43 11-46 22-31m30 97c21 9 27 48 9 58-43 24-60 17-59-25 1-31 22-45 50-33m-88 9l24 7 11 4-1 16c-1 40 25 52 60 27 4-3 6-3 12-1 6 1 9 1 15-2 11-5 7 0-6 6-12 6-20 13-18 14 0 1 5-1 9-4l27-15c4 0 0 12-4 13-8 3-25 11-26 13-3 4 0 4 14-3 17-8 18-8 16-1-1 8 1 6-13 11-7 2-12 4-11 5s5 1 9-1c11-4 15-4 13 0l-2 5c-7 47-100 107-146 93l-7-2 13-14c7-7 13-14 12-15-1 0-8 6-15 14l-14 15-9-3c-5-1-9-3-9-4l32-23c9-5 13-9 9-9-2 0-29 18-38 25-6 5-8 5-12 3-8-3-4-8 11-15l5-4 16-8c7-3 13-7 13-8 0-2-3-1-10 2-9 5-10 5-8 1l5-4 1-3 6-6c35-21 39-50 9-69-10-6-11-7-9-13 1-8 1-14-1-34-2-19-3-19 17-13m-135 7c32 11 44 16 42 21-7 17-12 39-12 57 0 9-1 12-4 6l-11-10c-22-14-50-59-50-81 0-3 13 0 35 7m191-1c-12 5-16 22-9 35 9 16 26 17 38 3 16-19-5-46-29-38m18 6l2 4c-1 1-4 0-7-2-5-3-5-4-2-4l7 2m-94 44c13 3 30 21 30 31 0 38-64 62-82 31-19-34 12-71 52-62m-15 6c-8 2-18 16-18 24-1 26 35 38 49 15 12-21-8-46-31-39m20 7c4 3 4 3 0 3-2 0-6-1-8-3-4-3-4-3 0-3 2 0 6 1 8 3m53 19c-3 2-4 4-4 5 3 2 13-2 14-6s-4-4-10 1m43 0v4c5 7-15 14-30 10-4-1-4-1-5 4-1 12-1 14-6 19l-12 6c-7 2-10 5-4 5 10 0 24-13 24-22 0-6 3-11 5-8 4 6 24 0 29-9 3-5 2-14-1-9M98 267c3 2 7 3 10 3 5 0 8 3 24 27 2 3 4 5 5 4l-2 25c-1 8-2 12-4 12l-6 3c-3 3-4 3-7 1-3-1-4-1-4 1 0 5-11-11-17-24l-7-18c-2-5-7-36-8-46v-8l6 8 10 12m195 31c-7 12-13 52-9 59 3 6 3 7-2 7-4-1-5 0-4 4 0 4 0 5-2 3-4-4-9-4-7 0 1 5-6 4-9-1-3-6-2-41 3-56l14-12 15-11c4-5 5 1 1 7m-36 22c-3 15-4 48 0 53 3 6 4 11 1 11l-2 4c0 3-1 4-4 3-2 0-4 0-4 2 0 14-23-11-40-45l-10-16c-2-3-1-3 16-6 10-1 24-4 30-7 14-6 15-6 13 1"/></svg>