<svg xmlns="http://www.w3.org/2000/svg" width="400" height="400" viewBox="0 0 400 400"><path d="M230.9 1.5c-6.1 4.4-27 41.2-35.9 63.1-5.4 13.4-7.3 16.1-14.1 19.7-10.5 5.6-23.5 14.6-26.7 18.5-1.5 1.7-3.2 2.8-3.9 2.4-5.7-3.3-86.9-7.5-89.8-4.6-7.9 7.9 17.6 58.4 38.6 76.5 19.3 16.7 22.7 20.4 24.1 26.1 3.6 15.2 15.9 31.8 29 39.1 9.3 5.3 9.6 6.5 1.9 9.6-6.7 2.8-13.4 9.5-11.4 11.5.7.7 3.3-.5 5.8-2.7 8.5-7.5 15.6-10.9 19.8-9.6 3.6 1.1 2.8 2.2-6.1 8.1-5.6 3.8-10.2 7.8-10.2 8.9 0 3.1 1.7 2.3 11.6-5.3 14.2-10.9 15.1-2.2 1.1 10.2-5.3 4.7-9 9.3-8.2 10.2.9.8 5.2-2 9.6-6.3l8.1-7.9-2.9 8c-1.5 4.4-4.6 11.2-6.8 15-2.2 3.9-5.6 11.5-7.6 17s-3.8 10.2-3.9 10.5c-.2.3-7.9 2.4-17.2 4.7-39.8 10-70 37.7-70.6 64.8-.3 13.5 5.7 11.9 20.9-5.9 17.6-20.4 41.1-33.1 61.6-33.1 14.1 0 22 5.1 16.5 10.6-6.5 6.5 4.1 23.4 14.6 23.4 3.6 0 4.8.8 4 2.9-2.9 7.5 8.5 13.6 24.1 12.8 17.3-.9 22.5-4.3 24.4-15.9 1.9-12 19.1-13.5 21.4-1.9 3.7 18.7 41.1 21 47.7 2.9 2-5.8 3.3-6.8 8.9-6.8 12.3 0 19.3-18 9.8-25.1-2.4-1.8-2.3-3 1.1-8 11.5-16.8 11.7-46.9.6-64.3-9.5-14.9-12.5-23.9-13.8-41.3-.6-7.9-1.5-19.4-2.1-25.7-1.6-16.8 1.4-20.5 17.5-21.3 11.7-.5 17.9-2.7 15.2-5.3-.6-.6-6.4-.3-12.8.7-13.2 2.1-13.4 2.1-11.7-2.2.7-1.8 6.8-4.7 14-6.6 7.1-1.9 12.9-4.3 12.9-5.2 0-2.3-1.8-2.2-13.2 1.3-5.4 1.6-9.9 3-10 3-5.5.5 3.6-10.2 10.3-12 4.7-1.4 9.1-3.7 9.7-5.2 1.3-3.5 1.3-3.5-7.5.2-3.9 1.7-7.5 3-8 3-.4 0-1.2-5.2-1.8-11.5-1.4-14.5-7.6-28.9-17.5-40.8-4.8-5.6-8.1-11.9-8.6-16-4.6-39.2-47.9-104.5-62.5-94.2m15.7 15c16.5 19.4 29.5 42.7 39.1 70.1 4.6 13.2 4.5 13.3-5.3 5.5-12.3-9.8-29.7-16.5-46-17.6-12.1-.9-14.4-1.6-13.4-4.1 2-5.2 4.9-19.7 7.1-34.8 4.5-32.1 6.1-33.7 18.5-19.1m28.4 85.9c8.4 3.8 17 18.8 17 29.6 0 30.3-46.2 43.6-58.9 17-14.7-31 11.7-60.4 41.9-46.6m-63.7 7.9l14.3 5.9.7 15.5c1.3 29.6 21.6 43.4 46.4 31.6 6.4-3.1 8.6-3.3 13.5-1.2 5.8 2.4 19.3 1.8 26.5-1.2 2.8-1.1 3.5-.7 3 1.9-1.8 8.7-38.9 21.5-61.7 21.4l-21-.2-5 6.9c-2.7 3.8-8.8 9.8-13.4 13.4l-8.5 6.4 7.5 6.7c4 3.7 10.1 8 13.5 9.6 3.3 1.5 9.5 5.8 13.6 9.6l7.6 6.9-14.1 4.3c-7.7 2.4-20.2 4.8-27.6 5.4l-13.6 1 11-8.2c6.1-4.6 12.3-9.1 14-10 1.6-.9 2.3-2.3 1.6-3.1-1.5-1.5-27.6 16.9-27.6 19.5 0 2.2-6.3 2-9.9-.3-2.5-1.6-2.4-2.1 1-3.4 6.8-2.6 32.8-20.2 31.5-21.4-.6-.6-5.3 1.7-10.4 5.3-5 3.5-11.2 7.5-13.6 8.7-2.5 1.3-7.2 4-10.5 6-3.9 2.3-6.7 2.9-8 1.6-1.3-1.3 4.5-5.4 16.6-11.7 20.8-10.9 26.5-14.6 24.9-16.3-.7-.6-5.6 1.6-11.1 5-5.5 3.3-10.4 6.1-11 6.1-.6 0-6.7 3.2-13.5 7-16.5 9.3-18.1 8.8-7.2-2.2 5.1-5 9.2-11.1 9.3-13.5.1-3 2.5-5.5 8.3-8.3 20.8-10.3 27.6-34.8 13.7-49.1-8.7-9-19.7-15.9-25.3-15.9-8.1 0-7.6-20 1.1-42.7 2.7-7 10.9-6.3 33.4 3m-114.3-1c6.6 1.6 18.1 5.8 25.4 9.3l13.5 6.4-5 9.6c-5 9.9-10.9 33.7-10.9 44.3 0 5.9-.1 5.9-13.2-7C92 157.3 70 125.6 70 118.8c0-2.5-.9-5.1-2-5.8-1.1-.7-2-3.1-2-5.3 0-4.7 7.3-4.3 31 1.6m164 10.6c-11.8 4.8-15.2 18.6-7.3 29.7 9.1 12.8 28.1 9.4 34-6.1 6.2-16.3-9.9-30.5-26.7-23.6m-74 38.2c27 16.5 24.1 45.3-5.7 56.7-22.6 8.6-44.6-7.9-42.8-32.2 1.9-25.1 27-37.8 48.5-24.5m-14.5 13.2c-4.7 1.9-10.5 16.6-8.5 21.7 6.4 16.8 28.9 18.3 36 2.5 8-17.9-8.1-32-27.5-24.2m141.3 3.3c-1.5 3.4-6.6 6.1-20.3 10.7-10.1 3.4-18.7 7.3-19.2 8.8-.6 1.8.3 2.1 2.9 1 12-5 31.3-11.2 32.2-10.4 2.5 2.6-2.6 5.2-16.4 8.5-8.3 1.9-15 4.3-15 5.3s1.6 1.3 3.5.8c1.9-.6 6.7-1.6 10.5-2.3 3.9-.7 8.8-1.8 11-2.4 3.8-1.1 3.9-1 .5 2.8-1.9 2.1-3.5 4.6-3.5 5.5 0 5.1-32.5 35.3-35.2 32.6-.5-.5.5-7.6 2.3-15.7 1.7-8.2 3.7-18.5 4.3-22.9 1-7.6 1.7-8.5 11.8-12.8 5.8-2.5 15-6.7 20.2-9.2 12.2-5.8 13-5.9 10.4-.3m-88.3 1.1c-6.6 4-6.9 5.6-1.3 7.4 4.7 1.5 6.7 0 8.7-6.6 1.6-5.2.2-5.4-7.4-.8m40.6 30.6c-1.3 5.9-2.6 12.7-3 15-1.3 8.2-3.6 17.7-4.4 19.2-1 1.7-9.5-3.2-16.7-9.7-2.7-2.5-7.5-5.8-10.5-7.4l-5.6-2.9 10.8-8.3c10.1-7.7 29.5-18.5 30.9-17.2.4.3-.3 5.4-1.5 11.3m28.7 17.8c-1.1 8.1-.2 13.4 4.3 27.3l5.6 17.2-2.4 26.2c-1.4 14.4-4.7 37.4-7.5 51.2l-5 25 4.1 3.3c2.3 1.8 4.1 5.4 4 8 0 4.2-.3 4.3-2.1 1.2-2.8-4.9-6.5-4.6-3.9.4 2.9 5.3 2.8 5.5-3.9 7.8-5.3 1.8-6 1.6-6-1.6 0-5.1-2-10.1-4.1-10.1-.9 0-1.1 3.2-.5 7 1.1 7 1.1 7-5.6 6.3-5.6-.6-6.9-1.6-7.4-6-.8-6.5-4.3-7.1-4.5-.8-.2 4.3-.3 4.3-1.9.5-.9-2.2-1.8-21.6-1.9-43.1-.1-38.3-2.1-50.6-7.3-45.4-.8.9-.5 2.6.8 3.9 1.7 1.7 2.4 13 2.4 37v34.5l-5-2.3c-3.8-1.7-6.3-1.7-10.1.1-2.8 1.3-5.3 2.3-5.5 2.3-3.4 0-.2-58.2 3.7-69 1.3-3.7 1.2-3.7-1.9-.9-5.1 4.9-7.9 27.8-6.6 55.6 1.1 23.2-1.7 44.4-4.1 30.8-1.1-6.1-4.5-5.7-4.5.5 0 2.8-.7 5-1.5 5s-3.7.6-6.3 1.3c-4.3 1.2-4.7.8-3.8-4 .7-3.6.2-5.3-1.7-5.3-1.6 0-2.7 2.1-2.7 5.2 0 3.9-.8 4.9-3.2 4-1.7-.7-4-1.2-5.1-1.2-1.2 0-1.5-2.7-.7-6.5l1.2-6.5-4 5c-5.9 7.2-5.7-.1.1-8l4.4-5.9-6.3-32.6c-3.4-17.9-6.8-36.5-7.4-41.5-.7-4.9-1.7-10.4-2.2-12.2-.5-1.7 1-5.2 3.2-7.8 2.7-3.1 4-7.5 4-13.3 0-4.8.7-8.7 1.5-8.8.8-.1 7.9-.4 15.8-.8 7.8-.4 19.5-2.2 26-4.1 6.4-1.9 12.6-3.6 13.7-3.8 1.1-.2 2.9-.8 4-1.5 1.1-.6 4.6-1.8 7.8-2.5 8.8-2.1 25.8-13.8 33.4-23 8.5-10.1 8.2-10.2 6.6 1.9m16.3 68.1c2.7 5.3 2.8 7.7.8 16.2-2.5 10.3-2.9 24.6-.9 33.5 1 4.7.6 5.1-6 5.1-5.4 0-6.8-.7-5.9-3 1.9-5 6.9-40.5 6.9-49.5 0-10.1.9-10.5 5.1-2.3m5.1 61.2c1 1 2.2 4.8 2.8 8.7.9 5.7.8 6.1-.9 2.4-2.7-6.1-4.8-5.7-3.6.6.9 4.7-2.6 10.9-6.1 10.9-.8 0-1.4-3.3-1.4-7.3 0-4.1-1-7.7-2.3-8.1-1.6-.6-2 1.6-1.3 7.3 1.2 8.6-.1 9.7-6.1 5.2-3.4-2.6-3.5-3.8-1.3-13.2l2.5-10.4 8 1.1c4.4.6 8.8 1.9 9.7 2.8m-127.4 10.8c1.4 10.6.1 15.8-4.1 15.8-2.2 0-2.6-1.6-1.6-7 .9-4.6.6-7-.9-7-2 0-3 4.4-2.7 11.6.2 5.2-6.5 1.3-7.1-4.1-.7-6.2-3.6-7.3-5-2-.5 1.9-1 .6-1.2-2.9-.5-15.5 20.6-19.6 22.6-4.4"/></svg>