<svg xmlns="http://www.w3.org/2000/svg" width="400" height="400" viewBox="0 0 400 400"><path d="M215.6 47.5c-6.4 17.1-10.1 29.9-14.4 48.8-2 8.8-13.1 11.7-52.1 13.6-38.3 1.8-45.1 3.5-45.1 10.9 0 13.9 16.7 53.9 26.5 63.7 5.1 5.1 5.7 4.9-19.2 6.5l-21.7 1.5L77 179.3C58.9 160.5 48.1 137.5 38.9 99c-9.7-40.9-15-44.9-19.3-14.6-6.5 46.4 6.1 89.7 36.1 123.7l7.8 8.9-7.7 8.7c-4.2 4.8-10.7 15.2-14.5 23.1-3.8 8-13 23.4-20.5 34.3-22.4 32.8-27.3 55-14.6 65.7 10.3 8.7 17.1 6.5 24.5-8 4.6-9.1 19.5-17.8 53.9-31.3 46.4-18.3 44.5-18.6 60.5 10.5 17.2 31.3 33.2 40.9 47.4 28.5 4.9-4.3 4.4-9-1.5-14.5-4.8-4.5-7.5-20-3.5-20 .8 0 6.3 8.7 12.2 19.3 18.9 33.7 31.6 43.3 47.6 35.5 9.3-4.6 10.1-8 5.6-22.3-5.1-16.2-1.8-43.1 8.1-65.5 7.6-17.2 10.1-18.4 43.1-22.1 72.8-7.9 93.9-18.6 93.9-47.5 0-15.5-8.1-19-23.2-10.2-7.8 4.6-10.6 5.1-22.6 4.5-18.9-1.1-20.6-2.8-16.8-17.3 3.7-14 1.7-12.5 18.7-14.4 21.5-2.4 23.4-6.5 2.1-4.8-20.7 1.8-22-2.3-2.3-7.6 6.9-1.9 13.2-4 13.8-4.8 1.4-1.5-15.9.3-23.2 2.4-9.2 2.6-4.3-3.5 6.9-8.7 12.6-5.7 11.3-8.8-1.5-3.7-8.9 3.6-12.7 4.1-11.1 1.5 3.3-5.3-30.5-44.4-46.4-53.7-5-3-10.1-8.1-12.3-12.5C271.6 65.6 233.4 28 225 28c-1.2 0-5.5 8.8-9.4 19.5M254.1 58c13.2 12.9 23.7 27 21.5 28.9-.3.4-9.7.2-20.9-.4l-20.3-1-3.3-12.8c-1.7-7.1-3.7-18.3-4.5-25.1l-1.2-12.2 6.6 3.8c3.6 2.1 13.6 10.6 22.1 18.8M290 96.2c23.1 13.9 27.8 33.6 10.6 44.9-17.7 11.6-35.2 4.9-40.7-15.6-6.7-24.6 10.3-41.2 30.1-29.3m-38.8 5c3.7 1 4.4 3.1 5.4 15 2.3 27.2 17.7 39.6 38.3 31 23.6-9.9 54.5-2.3 34.7 8.5-22.8 12.4-22.4 19 .9 13.2 9.4-2.3 6.1 2.3-5 7.1-5.8 2.4-9.3 4.9-7.9 5.4 1.4.6 5.3-.1 8.6-1.5 8.2-3.4 8.6-2.2 3.8 12.2-4.7 13.8-12 25.5-22.4 35.4l-6.7 6.4 1.7-20.4c1.7-20.1-.6-52.3-4.1-55.8-.8-.8-5.5-.2-10.5 1.3-4.9 1.5-12.4 3.3-16.5 4-6.1 1-8.6 2.8-12.8 9.6-2.8 4.6-9.6 13-15 18.6l-9.9 10.1 20 19.2c10.9 10.5 21.8 19.7 24.1 20.5 10.3 3.2-6.2 11.3-32.9 15.9-34.9 6.1-35.7 5.3-15.9-16.5 6.3-6.9 10.9-13 10.4-13.6-.6-.6-7.2 5.8-14.7 14.1-12.3 13.5-20.8 18.9-20.8 13 0-3.3 20.2-23.9 26.7-27.2 3.1-1.7 5.2-3.4 4.7-4-1.9-1.9-12.4 5-24.7 16.1-11.7 10.7-16.7 13.4-16.7 9.4 0-2.8 15.5-15.6 28.6-23.6 6.4-3.8 11.2-7.5 10.6-8.1-1.3-1.3-17.1 7.9-30.6 17.8-11.1 8.2-15.5 9.2-21.1 4.9-3.2-2.4-2.7-2.9 5.1-4.9 11.2-2.8 26.7-16.4 31.5-27.5 2-4.7 5.6-9.5 7.9-10.8 13.2-7.1 19.3-28.2 10.8-37.4-4.5-4.9-4.7-5-2-.7 11.3 17.7-8.7 44.1-33.3 44.1-15.9 0-33.5-15.4-33.5-29.4 0-27.1 30.1-41.8 54.7-26.6 5.5 3.5 8.8 4.8 7.3 3s-6.4-5.4-11-8.1l-8.4-4.9-1.3-16.4c-.9-12-.6-16.8 1.2-18 2.9-1.8 34.4-2.1 40.7-.4m17.7 4.1c-11.3 12.2-.4 35.5 14.8 31.7 12.8-3.2 17.7-14.7 11.3-27-5.8-11.2-18-13.4-26.1-4.7m-129.5 16.9c10.6 2.3 21.4 5 23.9 5.9l4.6 1.7-5 10.8c-4.5 9.8-6.7 27.2-6.9 52.9-.1 18.4-29.2-19.9-43-56.6-8.1-21.7-7.5-22 26.4-14.7m52.6 27.3c-26.6 13.3-8.5 54.4 18.4 41.7 17.7-8.5 18-33.8.4-42.2-8.1-3.8-10.2-3.8-18.8.5m64.4 3.6c-5.7 4.1-5.6 6.9.4 6.9 5.3 0 10.2-4.7 8.3-7.9-1.8-2.8-3.4-2.6-8.7 1m79.6 6.7c0 1-1.1 2.2-2.5 2.8l-10 4.2c-10.3 4.4-9.5 1 1-4.3 9.6-4.8 11.5-5.3 11.5-2.7m-36.9 21.6c2.9 26.8-2.9 58.6-10.6 58.6-4.5 0-34.2-22-39.1-29-2.3-3.3-5.1-6.6-6.2-7.4-2.7-1.8-3.7-1.1 22.1-15.5 12.3-6.8 23.9-14.1 25.8-16.3 5.5-6 6.5-4.7 8 9.6m91.8 20.4c.6 1-.9 1.4-3.4.9-4.2-.9-4.2-.8-1 1.9 7.2 5.9 3.6 9.7-4.1 4.3-5.4-3.9-5.8-.8-.5 4 2.7 2.4 5.6 3.2 9 2.3 6.6-1.7 6.4 0-.9 6.8-3.3 3.1-6 7.5-6 9.9 0 9.1-39.8 20.3-83 23.4-26.8 1.8-34 5.7-42.3 22.4-12 24.1-15.9 68.3-6.9 79 1.4 1.7 2 4.1 1.3 5.2-2.3 3.6-6.6 2.3-8.1-2.4-1.4-4.3-1.5-4.2-2.7 1.5-1.7 7.8-7.6 9-10.2 2.1-1.1-2.8-2.9-5.1-4-5.1s-1.5 1.4-.8 3c4.9 12.9-12.6-8.6-24-29.4-10-18.1-25.6-34.9-35-37.5-13.7-3.9-48.8-2.6-59.6 2.1-5.3 2.3-17.3 6.9-26.7 10.2-32.3 11.5-53 24.3-58.8 36.4-1.8 3.9-4.7 7.2-6.4 7.2-2.3 0-2.5-.8-.9-3.9 2.6-4.7 2.7-8.1.3-8.1-1 0-2.3 2.3-3 5-2.1 8.3-5.8 6.1-4.2-2.5l1.4-7.4-4.2 3.7c-11.6 10.5-1.9-20.2 14.9-47.4 13.7-22.3 14-22.4 15.4-10.2 3.2 28 23.5 27.1 64.5-2.7 5.1-3.7 9.8-4.6 31-5.7l25-1.3 9.5 6c27.5 17.4 49 17.1 55.5-.9 4.1-11.2 4.3-11.4 18.6-11.8 23.3-.7 50.6-15.4 74.6-40 16-16.4 16.4-16.6 23-14.7 13.1 3.7 30.5 2.4 38-2.9 7.2-5.1 12.8-6.4 14.7-3.4m-222.7 96.5c12.3 4.1 15.7 8.8 14.4 19.8-.9 7.7-.3 11 3.3 16.8 5.7 9.2 4.1 15.9-2 8.8l-4.1-4.7 1.2 4.5c3.5 12.5-14.2 5-23.8-10.1-6.5-10.1-19.2-34.2-19.2-36.3 0-2 23.4-1.1 30.2 1.2"/></svg>