<svg xmlns="http://www.w3.org/2000/svg" width="400" height="400" viewBox="0 0 400 400"><path d="M216 48c-7 17-11 29-15 48-2 9-13 12-52 14-38 2-45 3-45 11 0 14 17 54 27 64 5 5 5 4-20 6l-21 2-13-14c-18-18-29-41-38-80-10-41-15-45-19-15-7 47 6 90 36 124l8 9-8 9c-4 5-11 15-15 23l-20 34c-23 33-28 55-15 66 10 9 17 6 25-8 4-9 19-18 54-31 46-19 44-19 60 10 17 31 33 41 47 29 5-5 5-9-1-15-5-4-7-20-3-20l12 19c19 34 31 44 47 36 10-5 10-8 6-22-5-17-2-44 8-66 8-17 10-18 43-22 73-8 94-19 94-48 0-15-8-19-23-10-8 5-11 5-23 5-19-1-20-3-17-18 4-14 2-12 19-14 22-2 23-7 2-5s-22-2-2-7l14-5c1-2-16 0-24 2-9 3-4-3 7-9 13-5 12-8-1-3-9 3-13 4-11 1 3-5-31-44-47-53-5-3-10-9-12-13-8-16-47-54-55-54l-9 20m38 10c13 13 24 27 22 29h-21l-21-1-3-13-4-25-2-13 7 4c4 2 14 11 22 19m36 38c23 14 28 34 11 45-18 12-36 5-41-16-7-24 10-41 30-29m-39 5c4 1 5 3 6 15 2 27 17 40 38 31 24-10 54-2 35 9-23 12-23 19 1 13 9-2 6 2-5 7-6 2-10 5-8 5 1 1 5 0 8-1 8-4 9-2 4 12s-12 26-22 35l-7 7 2-21c1-20-1-52-4-55-1-1-6-1-11 1l-16 4c-7 1-9 3-13 10l-15 18-10 10 20 19c11 11 22 20 24 21 10 3-6 11-33 16-35 6-36 5-16-17l11-13c-1-1-8 6-15 14-12 13-21 19-21 13 0-3 20-24 27-27l4-4c-1-2-12 5-24 16-12 10-17 13-17 9 0-3 16-15 29-23 6-4 11-8 10-9s-17 8-30 18c-11 9-16 10-21 5-4-2-3-3 5-5 11-2 26-16 31-27 2-5 6-10 8-11 13-7 19-28 11-37-5-5-5-5-2-1 11 18-9 44-33 44-16 0-34-15-34-29 0-28 30-42 55-27 5 4 9 5 7 3l-11-8-8-5-2-16c-1-12 0-17 2-18 2-2 34-3 40-1m18 4c-11 12 0 36 15 32 13-3 17-15 11-27-6-11-18-13-26-5m-130 17l24 6 5 2-5 11c-5 9-7 27-7 52 0 19-29-19-43-56-8-22-7-22 26-15m53 27c-27 14-8 55 18 42 18-8 18-34 1-42-8-4-10-4-19 1m64 3c-5 4-5 7 1 7 5 0 10-5 8-8s-3-3-9 1m80 7l-2 3-10 4c-11 4-10 1 1-5 9-4 11-5 11-2m-37 21c3 27-3 59-10 59a147 147 0 0 1-46-36c-2-2-3-2 22-16l26-16c6-6 7-5 8 9m92 21c1 1-1 1-3 1-5-1-5-1-1 2 7 5 3 9-5 4-5-4-5-1 0 4 3 2 6 3 9 2 7-2 6 0-1 7-3 3-6 8-6 10 0 9-40 20-83 23-27 2-34 6-42 23-12 24-16 68-7 79 1 1 2 4 1 5-2 3-6 2-8-3-1-4-1-4-3 2-1 8-7 9-10 2-1-3-3-5-4-5s-1 1-1 3c5 13-12-9-24-29-10-18-25-35-35-38-13-4-48-2-59 2l-27 10c-32 12-53 25-59 37-2 4-4 7-6 7s-3-1-1-4c3-5 3-8 0-8l-3 5c-2 8-6 6-4-2l1-8-4 4c-11 10-2-20 15-48 14-22 14-22 16-10 3 28 23 27 64-2 5-4 10-5 31-6l25-1 10 6c27 17 49 17 55-1 4-12 4-12 19-12 23-1 50-16 74-40 16-17 17-17 23-15 13 4 31 3 38-3 7-5 13-6 15-3m-223 96c13 4 16 9 15 20-1 8-1 11 3 17 6 9 4 16-2 9l-4-5 1 5c4 12-14 5-24-11l-19-36c0-2 23-1 30 1"/></svg>