<svg xmlns="http://www.w3.org/2000/svg" width="400" height="400" viewBox="0 0 400 400"><defs/><path d="M181.9 4.6c-6.4 2.5-15.2 8.3-19.8 13-7.1 7.3-9.3 8.4-15.9 7.6-12.6-1.3-32.2 13.6-42.1 32.1-5.6 10.4-13.7 33.8-12.3 35.3 1.6 1.5 7.7-4.1 7.7-7 0-1.5 1.5-4.5 3.4-6.8 3.4-4.1 3.4-4.1 1.9.1-5.7 17.1-7.1 28.8-7 60.7 0 19.1-.6 36.9-1.5 39.5-1 3.3-.6 4.7 1.6 4.7 2 0 3.9-4.8 5.6-14.7 3.9-21.4 6.3-23.1 6.3-4.4 0 10.4 2 24 5.7 38.3 3.1 12.1 5.1 23 4.4 24.1-.6 1.1-.3 3.7.8 5.7 1.7 2.9 2.5 2.2 4.9-4.3 3.5-9.9 6.4-10.3 5-.9-.5 3.8-1.8 12.6-2.8 19.5-2.1 14.8-.2 17.2 5.3 7 2.3-4.3 4.6-6.5 5.5-5.2 3.8 6.3 1.4 71.1-2.8 71.1-1 0-4.6 2-8 4.5-9.6 7.1-24.6 10.1-58.6 11.6-30.2 1.4-31 1.6-41.2 12.4-10.9 11.6-28 40-28 46.6v4.9h136.6l-4.6-7c-2.6-3.9-7-11.9-9.7-17.9-2.8-5.9-8.6-16-12.9-22.3-9.6-14.3-9.6-14.7.2-16.5 4.5-.9 12.3-3.9 17.4-6.8 11.5-6.3 11.7-6.4 10.4-.3-2.6 11.2-2.9 16.7-1.2 16.7 4 0 8.6-40.4 8.6-76.4.1-15.8.8-20 4.4-24.6 2.4-3 4.3-7.1 4.3-9.1s1.1-4.6 2.3-5.9c1.3-1.3 2.7-4.6 3-7.5.4-2.8 1.4-7.8 2.2-11 1.5-5.6 1.2-6-4.9-6-15.3 0-28.5-29-18-39.5 3.6-3.6 5.9.2 2.9 5-3.2 5.1-3.4 10.7-.5 10.7 1.2 0 2.2-1 2.2-2.3 0-1.2.7-1.8 1.6-1.3 2.1 1.3 2.1-13.9.1-17.2-4.2-6.5 6-6.7 14-.2 4.5 3.6 6.1 6.9 6.3 12.9.4 10.2 3.9 10.8 3.9.7 0-4.1 1-8.1 2.2-8.8 1.4-.8 2.2 3.4 2.3 11.2.2 18.3 5.2 46.6 7 39.6 1.4-5.2 3.2-22 3.5-31.9.1-2.7 1.2-4.8 2.5-4.8 1.2 0 1.7.8 1.1 1.9-.7 1 .2 5.6 1.9 10.2 3.5 9.7 4.1 8.5 3.4-7.3-.6-15.3 2.5-19.2 10.6-13.2 7.2 5.2 21.9 7.6 27.5 4.4 3.7-2.2 3.6-2.4-1.3-2.5-3.9 0-4.7-.7-2.9-2.4 9.3-9.3 13.4 3.1 5.1 15.5-8.3 12.3-7.1 12.9 6.3 3.4 13.1-9.5 17-10.2 6.6-1.3-10 8.6-4.1 8.2 6.9-.4l8.6-6.9 5.4 6.9c5.2 6.7 5.4 6.8 8.9 2.5 3.2-3.7 4.8-4 12.3-2.2 4.7 1.1 10.4 1.5 12.6.8 3.6-1.1 3.9-.2 2.6 8.9-2.9 21.9-11.2 38.2-28.5 56.3-4.6 4.7-11.2 12.3-14.6 16.7-14.1 17.9-39.3 13-66.7-13.1-5.7-5.5-8.1-6.7-8.1-4.3 0 6.5 37.9 32 47.5 32 3.4 0 4.4 1 3.5 3.8-7.8 25.3-7.5 53.6.6 56.3 1.9.6 2.2-.8.9-5.3-5.7-20.6.2-51.1 10.9-55.6 3.8-1.6 9.4-6 12.3-9.8 3-3.8 8.3-10.1 11.9-13.9 3.5-3.9 7.7-9 9.2-11.3 2.4-3.6 2.7-2.8 1.7 6-2.6 23.9 2.7 29.5 8.2 8.7 2.1-8 5.1-17.5 6.7-21.1l3-6.4.2 8.1c.2 8.5 4.5 11.6 4.5 3.2-.1-8.2 9.6-46.3 10.3-41.1 2.6 17 21.9-28.8 22.3-52.8.3-17.5 3.6-6.8 3.9 12.7.1 8 1.1 15 2.2 15.7 7.9 4.9 8.7-43.4 1.1-64.8-2.9-8.3-5.9-18.5-6.6-22.7-.7-4.1-2.1-9.2-3.2-11.2-2.5-4.6-2.5-6.6 0-5.1 4.3 2.6 17.5 25 17.6 29.7.1 4.7.2 4.7 2.4 1 5.6-9.6-2.7-32.7-18-50.1l-6.5-7.5h13.2c18.4 0 16.4-3-5.1-7.5-13.5-2.8-19.5-5.2-23.2-9.2-28.2-30.3-95.2-45.7-133.4-30.6m55.6 107.3c.1 9.9 2.9 25.9 6 33.9 1.3 3.3.9 3.6-2.9 1.6-6.3-3.4-16.4-4.8-19.7-2.8-1.9 1.2 0 2.3 5.9 3.2 17.8 2.9 22.5 7.3 17.5 16.6-2.1 4-2.4 4-9.6-.3-4.4-2.6-11.9-4.5-18.3-4.8-6-.2-11-.5-11-.7 0-.1 3.8-6 8.4-12.9 4.6-7 11.7-19.8 15.6-28.4 8.6-18.6 8-18.2 8.1-5.4m65.8 31.3c.9 14.3.8 14.6-4.3 14.6-3.4 0-4.9-.9-4.2-2.7.6-1.5 2.3-8.2 3.8-15 1.5-6.8 3-12.2 3.2-11.9.3.2.9 7 1.5 15m-19.1 17.3c-3.3 10.7-12.5 29.6-14 28.6-5.6-3.4-3.5-13.1 5.2-23 10.3-11.8 10.8-12.1 8.8-5.6m-135 2.4c0 1.6.7 3.6 1.6 4.5.9.9 1.7 5.2 1.8 9.5.1 4.4.9 10.9 1.8 14.5 1.5 6.4 1.5 6.4-2.1 1.6-5.1-6.9-7.5-6.1-4.6 1.6 3 7.9 9.5 8.7 11.4 1.3.7-2.9.2-7.3-1.2-9.8-1.4-2.6-1.8-6.6-1.1-9 .8-2.5.3-7.3-1.2-10.8-2.7-6.5-6.4-8.5-6.4-3.4m155.7 6.9c0 6.9-.4 7.4-4.2 5.4-2.3-1.2-6.2-2.2-8.6-2.2-9 0 .6-10.2 10.1-10.7 1.6-.1 2.7 2.8 2.7 7.5m-3.4 11.6c1.3 2.1-3.6 4.5-9.1 4.5-2.9 0-2.8-.5.7-3.1 4.9-3.8 6.7-4.1 8.4-1.4m-40.1 20.9c-.3 14.4-1.1 18.6-4.2 20.5-1.7 1-2.6 2.3-2 2.9 4.1 4 9.1-5.9 8.9-17.3-.4-14.1-2.4-18.8-2.7-6.1m-98.1 12c-.7 1.9 1 8.8 3.9 15.4 2.9 6.5 6.5 18.8 7.9 27.3 1.4 8.5 3.2 15.8 4 16.3.8.5 1.8 7 2.2 14.5.3 7.5 1.2 14.6 2 15.8.7 1.2 1.1 5.7.8 9.9-.3 4.1 1 17.5 2.8 29.7 1.9 12.2 3.4 22.7 3.4 23.3 0 .6-3.4 1.1-7.6 1.1h-7.6v-12.1c0-7.4-.8-11.5-2.1-10.6-1.2.7-2.2 6.1-2.2 12v10.7l-11.3.2c-6.3.2-12 .2-12.8.1-.8-.1-2 1.4-2.8 3.3-1.1 3 0 3.2 9 1.8 16-2.6 42-1.3 47.8 2.5 2.8 1.8 5.7 2.6 6.5 1.8 1.6-1.6-8.3-9.6-11.1-9-1 .2-2.2-3.5-2.7-8.3-3.8-37.6-9.9-85.7-11.6-91.9-1.2-4.2-2.6-11.6-3.2-16.4-.5-4.9-2.6-12.7-4.7-17.3-2-4.7-4.9-11.9-6.4-16-2.1-5.6-3.2-6.7-4.2-4.1m49.8 23.2c8 7.2 50.7 12 50.7 5.7 0-3.4-3.4-4.4-5.1-1.5-1.6 2.5-16.1 1.1-28.4-2.7-12-3.6-20.5-4.4-17.2-1.5m28.7 80.9c1.5 1.5 3.4 2.8 4.3 2.9 1.7.2 5.8 1.6 19.7 6.9 11.4 4.4 18 15.5 21.7 36.8l2.4 13.7-7.6 10.6-7.7 10.7H333c32.1 0 58.4-.6 58.4-1.4 0-.8-2.8-5.9-6.2-11.4-3.4-5.4-10.1-16.7-14.9-25-4.9-8.4-13.4-19.7-18.9-25.2l-10.1-10-33.9-.1c-24.5-.1-36.4-1.1-43.1-3.4-5-1.8-9.2-2.8-9.2-2.3 0 .6-2.8-.4-6.3-2.2-7.8-4-10.6-4.3-7-.6m6 40.6c-7.2 2.2-16.4 10.2-16.4 14.4 0 4.3 1.9 3.4 7.9-3.7 3-3.5 7.2-6.5 9.4-6.5s4.6-.9 5.3-2c.7-1.2 2.7-1.5 4.4-.9 1.8.7 3.2.2 3.2-1.1 0-2.8-4.9-2.9-13.8-.2"/></svg>