<svg xmlns="http://www.w3.org/2000/svg" width="400" height="400" viewBox="0 0 400 400"><path d="M175.2 3c-34.4 9.3-57.9 32.6-76.5 76.3-3 7.1-8.4 19-11.9 26.4-14.9 31.2-23.3 54.7-26.1 73.1-1.1 6.8-2.5 15-3.3 18.1-1.4 6-23.9 34.6-30.7 39.1-10.8 7-10 16.6 3.1 38.1l10.6 17.4-4.1 13.8c-2.3 7.7-4.6 16.2-5.1 18.9-.5 2.8-2.5 6.4-4.3 8-13.2 11.7-20.4 30.3-20.5 53 0 14.6.1 14.8 3.8 14.8 3.6 0 9-14.9 9-25 0-6-3-1-5.2 8.6l-2.5 10.8-.1-14.6c-.2-17.5 2.1-25 11.4-37.3l6.8-8.9.5 10.1c.4 8.6.8 9.9 2.8 8.2 1.2-1 1.9-2.5 1.4-3.3-.5-.8-.2-1.4.6-1.4 1.4 0 5.4-8.2 7.9-16.7.9-3 2.8-5.1 5.4-5.8 4.6-1.2 4.6-1.5 4.8 46.9.2 26.3 1.5 34.3 4 24.3.5-2.2.7-21.1.3-42l-.7-37.9-6-11.9c-3.3-6.5-8.8-16.6-12.2-22.4-3.4-5.8-6.4-11.6-6.7-12.9-.3-1.3-.9-2.8-1.4-3.2-13.6-12.8-11.4-18.6 14.6-38.1 18.4-13.8 20-14 31.3-3.2 7.9 7.6 11.1 14.1 6.9 14.1-.9 0-1.5.9-1.2 2 .5 2.5-8.5 22-10.2 22-2.3 0-3.3-8.2-1.5-12.1 1.1-2.6 1.2-3.9.1-3.9-.9 0-2.6-2.3-3.8-5-2.1-5-5.4-3.9-3.4 1.2.6 1.6-.2 2.8-2.2 3.3-2.5.7-3 1.8-2.3 5.2.6 2.8 0 5.3-1.7 6.9-2.3 2.4-2.2 3 1.4 6.9 2.2 2.3 4.4 5.6 5 7.3.5 1.6 1.8 3 2.8 3 1.1 0 4.7 1.8 8 4.1s6.9 3.8 8 3.5c1.9-.7-10.3-9.2-13.1-9.2-4.4 0-9.4-13.9-6.4-17.8l2.9-3.8.1 4.5c0 6.6 7.9 13.6 10.8 9.7 1.1-1.6 1.8-3.6 1.5-4.6-.4-.9.7-3.8 2.3-6.4 10.3-17 10.7-18.8 5.4-25.8-5.2-6.8-2.7-8.3 3.4-2 2.5 2.7 6.1 5.5 8 6.3 5 1.9 7.4 56.5 3.1 67.9-3.5 9.2-.2 57.8 6.4 92.7l1.1 5.7h32.6c31.6 0 32.7-.1 31.1-3-1.5-2.9-4.8-19.4-8.2-41-3.5-22.4-3.9-62.6-.5-59.9 8 6.8 29.2 18 35 18.7 10 1.1 46.6-16.4 56.1-26.9 3.9-4.4 5-3.9 4.4 2.1-.3 2.9-1.2 16-2.1 29.2-1.4 22.2-2.2 30.6-4.1 45.6-.4 3.1-1 9.2-1.4 13.6-.4 4.4-1.8 11.1-3.1 14.8l-2.5 6.8h60l2-16.4c1.1-9 3.1-24 4.3-33.2 3.4-24.5 3.1-45-.9-57.5-6.9-22-6.9-48.4 0-55l3.6-3.5-1.1 3.7c-1 3.6 1.7 10.5 8.6 21.9 1.6 2.6 2.7 5.5 2.3 6.4-.3 1 .4 3 1.5 4.6 2.9 3.9 10.8-3.1 10.8-9.6V257l3.9 3.7 3.8 3.6-3.4 5.8c-1.8 3.3-4 6.3-4.8 6.9-.7.5-.1 1.4 1.4 2 3.2 1.3 2.8 1.6 6.2-5.1 1.5-2.9 3.7-5.7 5-6.2 3.2-1.2 2.9-3.2-.7-4.1-2-.5-3.3-2.9-4-7.4-.6-3.6-1.6-6.6-2.3-6.6-.8 0-1.3-1.5-1.2-3.4.2-5.4-3-5.2-5.1.3-1 2.8-2.6 4.5-3.5 4-2.2-1.4-2.1-.4.1 4.5 1.8 4 .8 12.2-1.5 12.2-1.7 0-10.7-19.5-10.2-22 .3-1.1-.3-2-1.2-2-.9 0-1.7-1.3-1.7-2.9 0-4.1 16.4-19.5 20.8-19.5 4.5 0 25.1 15.1 26.4 19.3.9 2.9 2.8 3.8 6.2 3.2 5.5-1 8.2 8.8 4.7 16.9-1.5 3.4-2.9 7.4-3.1 8.8-.5 2.7-9.7 22.3-14.6 31-3.4 6.2-4.2 98.4-.8 99.6 1.5.5 1.7-5 .9-24.7-1.5-37.7-.5-39.7 16.7-33.8 14.7 4.9 18 13 18 44.9 0 14.3 2.2 18.6 4.1 8.2 1.3-6.9.1-25.2-2.5-36.9-2.3-10.5-9.3-18.1-20.9-23-4.8-2-9.5-4.6-10.5-5.8-2.4-2.9-2.7-20.7-.3-25 1-1.9 2-4.6 2.2-5.9.2-1.3 3.8-10.3 8-20 9.3-21.1 9.9-27.7 3.5-37.3-2.5-3.7-4-6.7-3.5-6.7s-.5-2.4-2.3-5.3c-3-4.9-4.4-13.6-7.3-45.9-.2-2.2-1.5-6.2-2.8-8.8-1.4-2.6-2.9-9.1-3.3-14.4-1.4-14.9-11.6-46.9-21.3-66.4-33-66.6-52.9-85.4-92.3-87.3-6.8-.3-13.8-1.4-15.6-2.3-6.3-3.4-39.6-3.5-52-.2m73.3 97c3.9 14.1 7.6 27.5 8.1 29.9.6 2.3 1.4 5.3 1.9 6.6.7 1.7-.6 2.7-4.3 3.6-2.9.6-6.4 1.7-7.7 2.4-1.4.8-7.8 3-14.4 5-11.7 3.6-15.6 6.8-10.7 8.7 2.4.9 19.2-3.5 22.6-5.9 10.3-7.3 18.6-2.5 20.8 12.2 2.2 14.3 8.8 20.2 11.7 10.5 2.2-7.2 2.3-8.7.7-7.6-.7.4-1.2-3.2-1.2-7.9 0-14.7 8.7 1.5 9.6 17.7.2 3.5.9 10.6 1.6 15.8l1.2 9.4-6.5-6.5c-3.7-3.7-9.4-7.4-13.2-8.5-3.8-1.2-8.1-3.9-9.9-6.4-7.1-9.6-22.5-10.4-30.4-1.4-2.5 2.7-7.7 6.3-11.5 8-3.9 1.6-8.6 5.1-10.6 7.8-2.8 3.7-5.1 5-10.9 5.7-14.8 1.8-18.4-.4-24.9-15.2-4.8-10.7-20.2-15.9-27.1-9-2.8 2.7-6.2 4.1-11.1 4.5l-7.2.6-1-10.7c-1.5-15.1.1-22.6 4.5-21.5 1.9.5 4.3 1 5.3 1 1.3 0 1.9 3.5 1.9 11.2 0 6.1.4 12.6 1 14.4 1.2 3.7.1 4.5 16.3-11.6 9.3-9.2 10.2-9.7 14.1-7.9 8.3 3.8 11.6 1.2 6.1-4.8-2.5-2.8-2.4-3.1.4-5.3 1.7-1.3 2.6-2.3 2-2.3-.7-.1 2.5-3.5 7-7.7s11-11.1 14.3-15.3c7.8-9.8 8-6.2.4 8.9-7.6 15.2-15.8 26.3-21.7 29.3-8.6 4.5-1.9 9.2 7.6 5.3 2.6-1 5.7-2.1 6.9-2.3 16.5-3.3 48.2-59.8 48.2-85.9 0-7.2 3 .4 10.1 25.2m-110.6 9.1c-1 5.6-1.9 14.4-2.1 19.7-.3 10.4-1.8 13.6-6.3 13.6-6.7 0-5.8-9.7 2.8-30.8 6.6-16.1 8-16.7 5.6-2.5m-38.2 71.5c-.7 2.8-4 6.4-15.3 17-7.3 6.8-7.3 6.6 0 8 9.8 1.8 18.3 10.7 16.7 17.3-.2.7.3.9 1 .5.8-.5 3.2 1.1 5.3 3.4 2.1 2.4 3.2 3.9 2.4 3.3-.8-.6-2.4-.1-3.7 1.2-2.9 2.9-13-1.8-17.1-8-2-3-4.1-4.1-8-4.1-3 0-6.9-1.4-9-3.2-6.4-5.5-16.7-1.4-33.5 13.4-2.1 1.9-.7-.6 3.2-5.4 22.8-28.3 61.7-57.4 58-43.4m221.9 11.8c23.7 12.4 38.1 24.7 45 38.4l4.9 9.7-4.6-3.5c-25.5-19.7-30.7-21.9-37.3-16.2-2 1.8-5.7 3.2-8.2 3.2-3.3 0-6.2 1.8-10.4 6.4-5.2 5.8-16.6 9.5-16.6 5.4 0-7.6 18.2-24.6 26.4-24.6 5.1 0 2-5-6.7-10.8-28.9-19.1-23.9-24.4 7.5-8m-184.5-1.9c1.2 6 4.7 7.8 7.5 3.8 1.4-1.8 3.2-2.4 4.9-1.8 3.9 1.6 2.4 6.7-1.9 6.6-4.2-.2-5 4.8-1.1 6.3 8.8 3.4 23.1-.8 23.1-6.7 0-2.3.3-2.4 1.6-.3 11 17-13 42.2-37.2 39-15.6-2-16.6-3.7-21.2-35.8-.6-4-1.4-8.6-1.9-10.4-.7-2.2 1.2-1 5.9 3.7 9 8.9 12.2 8.4 11.5-1.7-.7-9.7 6.9-11.9 8.8-2.7m89.2 1.9c2.2 3.1 3 3.3 5.8 1.5 1.8-1.1 3.9-1.6 4.8-1.1 2.7 1.7 1.6 5.9-1.7 6.7-8.2 2.2-1 7 10.6 7.1 10.3.2 14.3-2.8 16.1-11.7 1-5.2 1.8-5.3 9.3-2.2 25.8 10.8 11.8 44.3-19.5 46.7-33 2.6-61.2-36.6-34.7-48.3 6.3-2.8 6.5-2.8 9.3 1.3m-23.9 20.3c5.4 39.6 80.4 44.6 83.7 5.6.7-8.9 2.5-11.9 5.4-9.1 3 3.1-.5 16.2-7.1 26.4-3.6 5.5-10.2 17.4-14.8 26.5-7.2 14.4-9.5 17.4-17.5 23.4-22.4 16.7-46.2 27.6-55.9 25.6-18.5-3.8-59.5-36.3-68.6-54.4-7.6-15.1-7.7-14.8 5-13.9 18.4 1.3 30-3.1 39-14.8 2-2.7 4.7-4.8 6-4.8 1.5 0 3.2-3 4.6-8.3 2.4-9 1.2-8.3 16.5-9.8 2-.2 2.9 1.6 3.7 7.6m119.8 16.4c-2 3.2-6.7 4.5-6.2 1.7.3-1.5.6-2.8.7-2.9 1.5-.6 6 .3 5.5 1.2m-139.8 4.3c0 3.6 5.7 11.1 7.2 9.5 1.3-1.3-3.8-12.5-5.8-12.5-.8 0-1.4 1.4-1.4 3m2 32.9c-5.6 2.5-6.3 4.9-2.9 9.4s36.7 3.4 37.4-1.3c.9-6.4-24.9-12.4-34.5-8.1m23.3 3.7l5.9 2.8-13.5.5c-16.1.5-19.6-.3-15.1-3.7 4.1-3.2 15.5-3 22.7.4"/></svg>