<svg xmlns="http://www.w3.org/2000/svg" width="400" height="400" viewBox="0 0 400 400"><path d="M227 2c-2.2.9-9.6 1.8-16.4 1.9-43.5.5-102.5 54.1-109.8 99.9-1.9 11.6-3.9 7.3-6.8-13.8-4.2-32-9.9-43.2-18.8-37.3-4.1 2.7-4.6 2.5-7.7-2.9C62 40.2 48 46.4 48 58.3c0 3.5-.3 3.6-4.6.7C35.1 53.6 24 72.6 24 92.2c0 10.2 3.9 8.5 4.2-1.8.2-11.6 6.2-27.2 10.7-28.1 6.4-1.2 8.4 4.1 7 18-.8 7-1.1 25.2-.7 40.5.4 15.2-.2 29.3-1.2 31.3-1.7 3.1-1.4 3.3 3.1 1.2 4.2-1.9 4.9-3.2 3.8-7.3-3.8-14.1-1.3-89.8 3.2-95.1 6-7.2 12.3-2.3 14.9 11.6.8 4.1 2.3 7 3.3 6.3.9-.6 1.3-1.9.6-2.9-1.8-3 3-9.9 6.9-9.9 3.7 0 3.7 0 10.4 34.6 1 5.3 1.8 12.2 1.8 15.4 0 3.1 1.1 6.9 2.5 8.4 1.4 1.4 2.7 4 2.9 5.6.2 1.7 2.2 11.6 4.4 22 2.3 10.5 4.2 21.4 4.2 24.4 0 2.9.9 5.9 2 6.6 1.1.7 2 2.3 1.9 3.6 0 1.3-3.1-1.2-6.9-5.6-6.4-7.4-7.1-7.8-10.2-4.7-6.9 6.9-4.2 24.5 4.6 29.4 2.6 1.4 3.3 4.5 3.1 13.1-.3 14.7 2.9 14.5 3.9-.3.7-8.7.1-12.1-2.3-14-9.8-7.8-11.4-10.4-10.5-16.6 1.2-8.6 4.8-9.2 12-2 3.7 3.7 8.2 6.1 11.3 6.1 2.9 0 8.1 1.4 11.4 3.2 6.7 3.4 6.6 2.4 1.8 24.8-1.1 5-2 14.2-2 20.6-.1 8-1.7 15.1-5.1 22.6-3 6.5-4.6 12.8-3.9 15.5 2.5 9.9-2.9 23-17.6 42.9-8 10.7-15.8 22-17.3 25-3.5 6.7-3.7 6.7-14-.3-9.7-6.5-16.2-15.2-16.2-21.9 0-7.1-5.6-16.4-9.9-16.4-14 0-36.5-52.1-36.6-84.8 0-30.9 2.4-78.7 4.4-87.8 1-4.5 1.4-8.9.9-9.7-1.6-2.7 5.1-13.7 8.4-13.7 2.7 0 3 4.7 2.4 36-.6 37.5-.5 38.5 5.4 32.1 3.1-3.5 3.2-4.8 1-10.2-2.4-5.6-2.7-17.6-1.4-46.9.4-10.4-2.2-14.8-8.9-14.9-19.4-.4-22.1 133.1-3.3 167.7 4.8 9 6 13.4 5.8 22.5-.2 7.1 1.2 15 3.7 21.4 2.2 5.6 5.4 16.2 7.1 23.7 6.1 26.6 17 54.5 24.5 63.1 2.9 3.2 10.3 3.5 101.7 3.5 92.1 0 98.6-.2 99.4-3.5.9-3.3.9-3.3 1.2 0 .2 3.3 3.5 3.5 47.7 3l47.4-.5 1.6-9.6c2.3-13.7-.6-18.2-22-34.1L314 341.6l9.7-4.8c5.2-2.6 13.5-8.1 18.3-12.2l8.7-7.5-1.4 9.8c-2.6 18.8 8.6 2.3 15.8-23.3 1.7-6.3 5-13.5 7.2-16l4-4.6-1.2 11.3c-.6 6.3-1.7 12.9-2.4 14.8-2.9 7.6 4.5 1.3 9.7-8.2 10.7-19.6 16.7-58.2 12.5-80.9-5.1-27.7-5.4-41.8-.9-40.6 5.6 1.5 5.1-1.6-2.6-16-8.6-16.4-12.6-27.2-16.4-45.4-6.9-32-22.5-63.7-40-81-25.8-25.4-85.4-44.7-108-35m-38.1 94.5c.4 1.4 3 10.1 5.9 19.3 2.9 9.3 4.8 17.3 4.3 17.8-1 1-16.8-10.9-20.5-15.6-2.2-2.6-2.5-2.6-2.5.5-.1 2 5.3 7.7 12.2 13 9.2 7.1 13.5 12.1 17 20 5.3 12.1 9 13.8 7.3 3.5-1-6.2-.7-6.9 2.4-5.7 3 1.1 3.2.7 1.2-3-1.3-2.4-3-4.3-3.8-4.3-.8 0-1.4-8.5-1.4-19 0-10.4.7-19 1.5-19s1.5 1.1 1.5 2.5c0 3.2 10.9 18.6 22.2 31.3 4.8 5.4 11.1 12.8 13.8 16.4 11.7 15.5 16.5 19.9 20.3 18.7 3.3-1 3.5-.6 1.7 4.1-8.2 21.5 10 43.3 23.2 27.9 11.3-13.1 9.6-31.7-3.4-38.4-4.8-2.4-4.8-2.4-.3-2.5 8.6 0 17.2 10.2 17.2 20.7 0 5.1.8 9.3 1.7 9.3 2.6 0 7.3-12.2 6.2-15.9-.8-2.7-.7-2.7 1.1-.1 1 1.7 2.2 13.6 2.6 26.5.4 12.9 1.4 23.5 2.2 23.5 3.7 0 1.3 12-2.8 14.2-3.8 2-4.1 1.8-2.8-1.5 2.3-5.6 3.8-11.8 2.6-10.7-.6.6-3.9 8-7.4 16.5-9.5 22.9-49.5 51.3-72.7 51.6-7.1 0-43.4-18.6-43.4-22.3 0-1.8-1.7-5.4-3.7-8-8.1-10.3-16.7-26.1-17.7-32.3-1.1-7.6-8.6-25.9-11.2-27.7-6.9-4.8-9.3-27.9-5.1-48.5 2.3-11.2 4.4-21.6 4.6-23.3.2-1.6 1.3-4.8 2.5-7 1.1-2.2 3.2-7.5 4.6-11.7 5.5-17.1 16.4-29.1 18.9-20.8m95.7 26.7l5.3 6.2-11.3 8.4c-13.7 10.1-14 9.8-14.9-16l-.7-19.3 8.2 7.3c4.5 3.9 10.6 10 13.4 13.4M70 129.7c0 17 .2 17.7 5.1 20 7.2 3.3 8 2.9 3.9-1.7-2.7-3-3.9-8.3-4.6-20-1.2-21.6-4.4-20.4-4.4 1.7m229.8 15.7c8.3 13.9 9.1 17.8 2.2 11.6-2.2-2-8.3-4-13.8-4.5-10.8-1.1-14.7 2.3-15.9 13.8-.5 4.3-2.9-.2-4.2-7.8-1.2-7.2-.9-7.7 8.4-14.1 5.4-3.7 10.2-7.9 10.8-9.5 2-5.1 4.3-3.2 12.5 10.5m-117.2 8.5c-17.2 7.8-23.8 19-18.3 31 3.4 7.3 5.7 6.3 5.7-2.6 0-10.4 11.2-20.5 22.4-20.2 4.6.2 4.6.2.3 1.9-4.5 1.8-13.2 12.3-15.4 18.6-1.6 4.6 6 22.7 11 26.2 12 8.4 27.6-16 19.7-30.8-1.3-2.4-1.3-4.2-.1-4.9 4.3-2.7-7.7-23.1-13.5-23.1-1.9.1-7.2 1.8-11.8 3.9m21.9 20.3c-1.3 4.9-7.2 4.2-8.2-.9-.5-3 .2-3.4 4-2.2l4.7 1.4-4-4.7-4-4.8 4.3 3.6c2.7 2.3 3.9 5.1 3.2 7.6m91 1.4c.5 1.3-.6 2.4-2.3 2.4-1.8 0-3.2-1.4-3.2-3.2 0-3.5 4.3-2.9 5.5.8M53 194.6c-11.8 6.5-22.9 14.2-23 15.9 0 3.2 4.7 1.2 15.5-6.5 6.1-4.4 12.4-8 13.8-8 1.5 0 2.7-1.3 2.7-3 0-3.6.7-3.8-9 1.6m145 5.4c0 1.1-1.3 2-3 2-1.6 0-3-.9-3-2s1.4-2 3-2c1.7 0 3 .9 3 2M79.6 212.5c-7.7 12.1-15.3 51.5-10 51.5.9 0 2.7-7.7 4-17 1.3-10.4 4.2-21 7.3-27.2 5.7-11.3 5.8-11.8 3.3-11.8-.9 0-3 2-4.6 4.5m155.3 5.6c-.7 1.2-.8 2.6-.2 3.2 1.4 1.5 5.3-1.1 5.3-3.4 0-2.6-3.5-2.4-5.1.2m-2.2 36.8c-4.4 3.8-4.9 5-2.3 5 1.8.1 3.9-.8 4.6-1.9 1.9-3 8.5-2.4 14.1 1.2 5.6 3.7 6.7 1 1.4-3.7-6.6-5.8-11.7-6-17.8-.6m-120.7 19c-3 7.4-12.6 13.6-22.8 14.9-11.4 1.4-11.2 3.2.3 3.2 13.2 0 32.3-16.9 26-23.1-.5-.6-2.1 1.7-3.5 5M238.7 302c6.3 0 12.6-2.2 25.8-9 6.5-3.3 6.7-2.7 1.8 4.6-11.4 16.8-15.2 23.2-15.8 27-1 6.8-2.3 6.6-9-1.7-3.5-4.3-12.2-13.7-19.3-20.8l-12.9-12.9 11.3 6.4c6.5 3.7 14.2 6.4 18.1 6.4m-17.4 4.2c25.6 24.7 30.3 30.9 24.8 32.4-2.1.5-5.7 3.9-7.9 7.5l-4 6.6-3.5-7.9c-10.6-23.7-17.9-38.6-22.2-45.5-6.1-9.7-2.4-7.7 12.8 6.9m87.5 10.8c-2.5 13.2-2.5 13.3-9.6 5.5l-6.6-7.2 7.2-12.1 7.2-12 1.5 9.9c.8 5.4.9 12.6.3 15.9m-36.2-11.8c1.9 3.6 2.3 8.3 1.3 15.5-.8 5.7-1.3 15.4-1.2 21.6.3 10.5 0 11.1-2.9 8-1.8-1.8-6.3-5.8-10.1-8.9-8.5-7-8.1-16.9 1.3-31.9 6.9-11 7.9-11.3 11.6-4.3m-5.1 61.3c5.8 12.4 7.6 19.2 4.4 16.1-2.3-2.2-5.9-10.5-9.3-21.1-2-6.6 1-3.5 4.9 5m-28.9 25.7c-.9.9-1.2-4.9-.6-12.8l1-14.4.6 12.8c.3 7-.1 13.5-1 14.4"/></svg>