<svg xmlns="http://www.w3.org/2000/svg" width="400" height="400" viewBox="0 0 400 400"><path d="M164 7.3c-6.7 2.7-15.7 4.9-20 4.8-12.1-.1-26.1 7.2-41.3 21.7C64.2 70.7 54.8 97 56.9 162.5l1.1 34.4-7.4 23.9C41.2 251 38.3 302.1 44.7 324c6.8 23.5 5.6 41.6-3.4 49.5-6.6 5.7-17.6 23.9-15.6 25.8.3.3 3.3-4.2 6.7-10.1 3.7-6.4 7.8-10.9 10.3-11.3 2.2-.3 4.4-1.6 4.8-2.8 1.5-4.4 6.2-2 8.9 4.5 1.5 3.6 5.5 9.7 8.8 13.5l6.1 6.9h35.2c19.3 0 35.2-.8 35.2-1.8 0-3.6-6-16-10.5-21.7-2.5-3.3-4.2-6.3-3.7-6.8 2-2 18.3 20.7 18.3 25.4 0 3.5 1.2 4.9 4.2 4.9 8.6 0-1.5-20.4-19.1-38.7l-12.3-12.8 12.1-4.8c6.6-2.6 13.6-6.2 15.7-7.9 2-1.7 3.6-2.2 3.6-1 0 4.9 18.7 20.2 29.2 23.8 3.4 1.2 6.2 3.3 6.2 4.7 0 1.4 1.9 2.6 4.2 2.8 2.4.2 4.2-1 4.2-2.7 0-1.6 1.1-3.1 2.6-3.2 14.3-.9 27.5-7.6 41.8-21.3l9-8.7 7.1 3.7c4 2 8.1 3.9 9.2 4.3 3.5 1.2-8.8 16.9-22.4 28.6-14.6 12.5-30.7 29.2-30.7 31.6 0 3.4 9.4 1.4 14.2-3.1l5.1-4.7-2.4 4.7-2.4 4.7h104.2l6.3-13.8c5.9-13.2 8.9-16.9 17.1-21.7 6.4-3.7 28.8 21.7 28.8 32.6 0 1.6.9 2.9 2.2 2.9 1.2 0 1.8-.7 1.3-1.6-.4-.8-2.9-6.2-5.5-11.9-2.6-5.8-9.3-14.8-14.8-20-6.9-6.6-9.5-10.3-8-11.7 3.4-3.4 3.9-45.7.8-62.1-1.5-8-3.4-21.1-4.2-29.2-2.2-23.3-6.8-40-17.9-65-12.9-29.4-13.3-31.4-10.3-56.2 6.8-55.5-35.1-122.2-85.1-135.7-20.7-5.6-61.4-5.2-75.8.7m65.6 60.2c2.2 4.1 2.1 4.2-1.7 1.3-4.7-3.8-7-6.7-7-9.2-.1-2.6 6 2.9 8.7 7.9m-15-2.8c0-2.2.6-2.2 3.1-.1 2.5 2 2.6 3.3.8 5.5-2.1 2.5-3.2 2.2-7.4-1.6-4.7-4.5-7.2-2.9-2.6 1.7 3.3 3.3-1.7 5.8-5.4 2.7-2.6-2.1-2.6-2.9.1-5.5 1.7-1.7 3.1-4.1 3.1-5.4 0-1.2 1.8-.5 4.1 1.5 2.8 2.6 4.2 2.9 4.2 1.2m-27.1 8.2c1-1.6 3.1-.2 6.4 4.5 4.1 6 4.2 6.5.6 3.3-5.6-4.9-10.7-5-6.7-.2 2.6 3.2 2.4 3.3-1.8 1-2.6-1.3-5.7-4.4-6.9-6.7-2.2-4-2-4.1 2.3-1.8 3.5 1.9 4.9 1.9 6.1-.1m-29.2 10.4c2.5 3.5 4 6.3 3.4 6.3-.5 0-3-2.8-5.4-6.3-2.5-3.4-4-6.2-3.5-6.2.6 0 3.1 2.8 5.5 6.2M125 96.5c0 26.4 67.6 77.2 81.2 60.9 2.8-3.4-.4-11.4-4.7-11.8-1.4-.1-.2-.8 2.7-1.7 4.3-1.2 6-.3 9.9 5.3 5.8 8.5 5.8 9.1-.4 9.1-5.8 0-10.3 3.9-14.9 12.9-4.4 8.4-2.1 9.9 4.9 3.2l5.7-5.4.1 10.1c.2 13.6 5.1 20.9 14 20.9 12.9 0 23.9-13.2 21.5-25.8-1.1-6-1-6.2 1.9-2.5 1.9 2.5 2.5 6 1.7 9.4-1.3 5.3-1.2 5.3 3 1.5 11-9.7 11.9 30.7 1.1 52.3-11.4 22.8-50 52.6-68.2 52.6-14.9 0-44.1-14.6-64.6-32.3-2.7-2.3-7.5-11.2-10.6-19.8-3.1-8.6-7.9-20.4-10.6-26.2-6.4-13.7-6.3-17.2.2-9.8l5.1 5.8-.9-9.3c-.7-8.5 1.4-14.6 5.1-14.6.9 0 1.5 1.3 1.5 3s-.9 2.4-2.1 1.7c-1.2-.8-1.5.2-.7 2.4.8 2 1.4 4.8 1.4 6.3 0 3.3 10.1 13.6 15.7 15.8 3.6 1.5 3.5 1.8-1.5 1.9-3.1 0-6.2-.8-6.9-2-1.9-3.2-5.2-2.5-3.9.9 2.6 6.8 20.3 3.6 27.3-5 3.1-3.8 3.5-18 .6-19.8-1.2-.7-2.1-2.3-2.1-3.5 0-1.4 1.2-1.3 3.2.4 1.7 1.4 3.7 2.1 4.3 1.5 2-2-7.4-9.2-15.5-11.9-4.4-1.4-8-3.7-8-5 0-1.3-.6-4.4-1.4-6.8-1.3-4-.7-4.3 5.9-3.8 9 .7 11.6-2.4 3.5-4.2-7.4-1.6-11.2-16.2-8.8-33.7.8-5.9 1.2-14.6 1-19.3-.3-4.7.4-8.5 1.4-8.5 1.1 0 1.9 2.1 1.9 4.8m67.4 30.6c5.7 7.3 8.5 12.5 6.8 12.5-1.6 0-6.2-5.6-10.3-12.5-4.1-6.9-7.2-12.5-6.9-12.5.4 0 5 5.6 10.4 12.5m35.7.6c1.8 4.2 2.4 7.7 1.3 7.7-1 0-2.4-2.2-3.1-5-.7-2.8-1.9-6.7-2.7-8.9-2.4-6.7 1.1-1.8 4.5 6.2m10.8 18.6c.7 3.2 2 5.8 3 5.8s1.9 1.9 1.9 4.2c0 3.5-1 4-5.8 2.9-10.5-2.3-10.9-2.7-10.9-11.2 0-10.7 9.8-12.1 11.8-1.7m-128.6 16.4c10.1 10.1 10 9.7 2.2 9.4-5.4-.2-6.6-1.4-9.2-9.1-3.7-10.9-3.4-10.9 7-.3m207.2 14.6c-4.6 5.1-8.4 5-11.2-.2-1.3-2.3-1.5-4.2-.5-4.2s4.6-2.7 7.9-6.1l6.1-6.1.7 6.3c.4 3.8-.8 7.9-3 10.3m-95.8-5.1c1.2 3.2-1.7 6.9-5.4 6.9-2.5.1-4.2-4.2-3-7.3 1.6-4.1 6.8-3.9 8.4.4m81.5 5.7c7.8 11.9 5.9 26.8-5.1 40-3 3.6-6.5 8.2-7.8 10.4-3.8 6.4-4.5 3.3-6-24.3-1.3-25.9-1.3-26.1 3.5-28.5 7.7-3.6 11.8-3 15.4 2.4m-14.7 6.5c-4.1 3.3-4.1 3.3.4 2.1 10.8-3 13.6 13 4.1 23.7-4.5 5.1-1.2 4.2 5.4-1.5 9.1-7.7-.7-31.7-9.9-24.3M81.4 194.8c4.2 1.4 5.1 4.6 2.4 8.5-2.1 3.2-18.5-4.3-21.4-9.8-4.4-8.2-.8-10.7 7.5-5 4.1 2.8 9.3 5.6 11.5 6.3m38-8.6c.6 1.6.1 3.9-1.2 5.2-3 3-8-1-6.4-5.1 1.5-3.8 6.2-3.8 7.6-.1m116 5.3c0 3.2-9.3 5.9-14.2 4.1-5.5-2.1-4-6.9 1.7-5.4 2.1.5 5 .2 6.5-.7 2.8-1.8 6-.8 6 2m6.3 3.8c0 1.2-2.8 3.2-6.3 4.4-6.8 2.4-8.7 6.8-2.2 5.1 4.9-1.3 11.7-8.5 9.8-10.4-.7-.7-1.3-.3-1.3.9m-104.6 7.2c.8 4.2-5.5 6.6-9.3 3.5-2.4-2-2.3-2.8.8-5.2 4.4-3.3 7.6-2.7 8.5 1.7m25.4 23.4c0 6.5 6.9 13.5 9.4 9.5.7-1.1.4-2.1-.7-2.1s-2.5-1.8-3.1-4.1c-.9-3.5-5.6-6.2-5.6-3.3m91.6 19.4c-.1 2.2-5.4 23.1-7.9 31.2-3.5 11.2-9.5 18.2-7.9 9.2.7-3.9 1.3-11.5 1.3-16.9 0-7.6 1.2-11.1 5.2-15.5 2.9-3.1 5.2-6.5 5.2-7.6 0-1.1.9-1.9 2.1-1.9 1.1 0 2 .7 2 1.5m-62.4 8.9c-1.8 1.1-8.5 2-15.1 2s-12 1-12 2.1c0 1.2 4.6 2.1 10.3 2.1 10.4 0 20.9-3.3 20.9-6.6 0-2.2-.3-2.1-4.1.4m-62.5 13.4c6.3 3.9 15.4 9.2 20.3 11.8l8.8 4.7v15.8c0 11-1 17.3-3.2 20.5-1.8 2.5-2.5 4.6-1.6 4.6 2.2 0-6.1 5.7-8.5 5.8-1 .1-2.4.9-3.1 1.8-1.6 2.2-23.9 13.2-26.6 13.2-4.5 0-18.9-18.7-20.4-26.6-.8-4.2-.7-4.2 9.9.5 13.1 5.7 34.2 7.1 36.1 2.3.7-1.8-3.5-9.4-10.1-18.3-6.7-9.1-12.3-19.3-13.9-25.6-1.5-5.7-3.3-12-3.8-14-1.6-5.6 3.3-4.5 16.1 3.5m105.7 11.9c-1 18.9-5.4 23.5-20.9 22.1-9.5-1-9.8-.8-6.5 2.8 4.7 5.2 16.5 8.8 23.3 7.1 4.2-1 5.1-.8 3.4 1-1.3 1.2-7.6 2.5-14 2.7-16.8.6-10.3 7.5 8.7 9.2 14.9 1.4 15 1.4 5.4 12.6-17.2 20.1-43.6 26.1-61.4 13.9-6.3-4.3-11.8-8.6-12.1-9.6-.4-1-2.1-3.1-3.7-4.7-2.5-2.5-2.3-4.4 1.4-13 3.3-7.7 4.1-13.4 3.6-24.1-.3-7.8-.6-14.1-.6-14.1s4.7 1.8 10.5 4c14 5.3 32 .5 47.8-12.8 8-6.7 14.6-11.9 15.2-11.9.4-.1.3 6.6-.1 14.8m42.4 22.1c-1.1 2.2-1.5 6-.9 8.5 1.5 5.8-5 23.2-8.6 23.2-1.5 0-5.7-1.2-9.3-2.7l-6.5-2.8 10.4-11.8c5.7-6.6 11.6-15.9 13-20.7 2.5-7.9 2.8-8.3 3.4-3.2.3 3.1-.3 7.4-1.5 9.5m-110.6 90.8c4 3.9 7.6 6.1 8 5 .9-2.2-9.8-11.8-13.2-11.9-1.2 0 1.2 3.1 5.2 6.9"/></svg>