<svg xmlns="http://www.w3.org/2000/svg" width="400" height="400" viewBox="0 0 400 400"><path d="M164 7c-7 3-16 5-20 5-12 0-26 7-41 22-39 37-48 63-46 129l1 34-7 24c-10 30-13 81-6 103 7 24 5 42-4 50-6 5-17 23-15 25l6-10c4-6 8-11 11-11 2 0 4-2 5-3 1-4 6-2 8 5l9 13 6 7h36c19 0 35-1 35-2 0-3-6-16-11-22l-4-6c2-2 19 20 19 25 0 4 1 5 4 5 9 0-2-20-19-39l-12-13 12-4 15-8c2-2 4-2 4-1 0 5 19 20 29 24 4 1 6 3 6 4 0 2 2 3 5 3 2 0 4-1 4-3l2-3c15-1 28-7 42-21l9-9 7 4 9 4c4 1-8 17-22 29-15 12-31 29-31 31 0 4 10 2 15-3l5-4-3 4-2 5h104l6-14c6-13 9-17 17-22 7-3 29 22 29 33 0 2 1 3 2 3 2 0 2-1 2-2l-6-12c-2-5-9-14-15-20s-9-10-8-11c4-4 4-46 1-62l-4-30c-2-23-7-40-18-65-13-29-13-31-10-56 7-55-35-122-85-135-21-6-62-6-76 0m66 60c2 5 2 5-2 2-5-4-7-7-7-9 0-3 6 2 9 7m-15-2c0-3 0-3 3 0 2 2 2 3 0 5-2 3-3 2-7-2-5-4-7-2-3 2 4 3-1 6-5 3-3-2-3-3 0-6 2-1 3-4 3-5s2-1 4 1c3 3 5 3 5 2m-28 8c1-2 4 0 7 4 4 6 4 7 0 4-5-5-10-5-6-1 2 4 2 4-2 1-3-1-6-4-7-6-2-4-2-4 2-2s5 2 6 0m-29 10l4 7-6-7-3-6 5 6m-33 14c0 26 68 77 81 60 3-3 0-11-5-11-1-1 0-1 3-2 4-1 6 0 10 5 6 9 6 9 0 9s-11 4-15 13c-5 9-2 10 5 3l5-5v10c1 14 6 21 14 21 13 0 24-13 22-26-1-6-1-6 2-2 2 2 2 6 2 9-2 5-2 5 3 2 11-10 11 30 1 52-12 23-50 52-69 52-14 1-44-14-64-32-3-2-8-11-11-20l-10-26c-7-14-7-17 0-10l5 6-1-9c-1-9 1-15 5-15l2 3c0 1-1 3-2 2-2-1-2 0-1 2l1 7c0 3 10 13 16 15 4 2 3 2-2 2-3 0-6 0-6-2-2-3-6-2-4 1 2 7 20 4 27-5 3-3 3-18 1-19l-3-4h4c1 2 3 3 4 2 2-2-7-9-16-12-4-1-8-4-8-5l-1-7c-1-4-1-4 6-4 9 1 12-2 3-4-7-1-11-16-8-34l1-19c-1-5 0-8 1-8l2 4m67 31c6 7 9 13 7 13a107 107 0 0 1-17-25l10 12m36 1c2 4 2 7 1 7l-3-5-2-9c-3-6 1-1 4 7m11 18l3 6 2 4c0 4-1 4-6 3-10-2-11-3-11-11 0-11 10-12 12-2m-129 17c10 10 10 9 3 9-6 0-7-1-10-9-3-11-3-11 7 0m208 14c-5 5-9 5-12 0v-4l8-6 6-6 1 6c0 4-1 8-3 10m-96-5c1 3-2 7-6 7-2 0-4-4-3-7 2-4 7-4 9 0m81 6c8 12 6 27-5 40l-8 10c-4 7-4 4-6-24-1-26-1-26 4-28 7-4 12-3 15 2m-15 6c-4 4-4 4 1 3 11-3 13 13 4 23-5 5-1 4 5-1 9-8 0-32-10-25M81 195c5 1 6 4 3 8-2 4-19-4-22-9-4-9 0-11 8-5l11 6m38-9c1 2 1 4-1 5-3 3-8-1-6-5 1-3 6-3 7 0m116 6c0 3-9 5-14 4-5-2-4-7 2-6h6c3-2 6-1 6 2m7 3c0 2-3 4-7 5-6 2-8 7-2 5 5-1 12-9 10-11l-1 1m-105 8c1 4-5 6-9 3-3-2-3-3 1-5 4-3 7-3 8 2m25 23c1 6 7 13 10 9 1-1 0-2-1-2l-3-4c-1-3-5-6-5-3m91 19l-8 32c-3 11-9 18-8 9l2-17c0-8 1-11 5-16l5-7 2-2 2 1m-62 9l-15 2-12 2c0 2 4 2 10 2 10 0 21-3 21-6 0-2 0-2-4 0m-63 14l21 11 8 5v16c0 11-1 17-3 20s-2 5-1 5c2 0-7 6-9 6l-3 2c-2 2-24 13-27 13-4 0-19-19-20-27-1-4-1-4 10 1 13 5 34 7 36 2 1-2-4-9-10-18-7-9-12-20-14-26l-4-14c-1-5 3-4 16 4m106 12c-1 18-5 23-21 22-9-1-10-1-6 2 4 6 16 9 23 8 4-1 5-1 3 1l-14 2c-17 1-10 8 9 9 15 2 15 2 5 13-17 20-43 26-61 14l-12-10-4-4c-2-3-2-5 2-13 3-8 4-14 3-24v-15l10 4c14 6 32 1 48-12l15-12v15m42 22l-1 8c2 6-5 23-8 23l-9-2-7-3 10-12c6-7 12-16 13-21 3-8 3-8 4-3 0 3 0 8-2 10m-110 90c4 4 7 7 8 5s-10-11-13-11c-2 0 1 3 5 6"/></svg>