<svg xmlns="http://www.w3.org/2000/svg" width="400" height="400" viewBox="0 0 400 400"><defs/><path d="M242 3.6c0 5.6-4.6 6.7-14.2 3.3-10.6-3.7-37.6-3.8-51.8-.1-5.9 1.6-12.6 2.5-14.9 2-2.3-.4-7.2-1.4-11.1-2.1-3.8-.7-8.1-2.1-9.5-3.2-1.4-1.2-3.2-1.5-3.9-.8-1.9 2 9.5 13.4 16.4 16.5 4.6 2 5.1 2.7 2 2.7-2.2.1-7.4 1.9-11.5 4.1-4.1 2.2-8.5 4-9.8 4-3.9 0-23.7 15.9-23.7 19.1 0 4 .7 3.8 14.7-3.9 17.6-9.7 24.5-11.6 15.9-4.4-8.1 6.8-16.1 23.3-17.5 36-.6 5.5-2.4 11.3-4 13.1-4.3 4.7-11.7 22.2-10.1 23.8.8.7 4.5-2.3 8.2-6.7l6.9-8-.3 8c-.1 4.4.4 10.7 1.1 14 1.1 4.6.2 7.7-3.6 13.4-4.9 7.2-2.9 9.3 4.5 4.7.9-.5 2.4 1.9 3.2 5.4 1.2 5.1 1.7 5.6 2.4 2.5 2-9.3 2.7-9.5 8.4-1.6 6.5 8.9 24 24.6 27.6 24.6 4.2 0 4.8 3.7 1.7 11.1-1.7 4-2.6 9.3-2.1 11.6 1 4.9 2.3 25.8 4.3 72.3.9 22.4 2.1 32.6 3.9 34 2 1.6 2.1 4 .4 11.5-2.8 11.7.3 15.8 18.2 24.4l11.8 5.7-5.9 11.2c-13.6 25.4-16.1 27.4-32.2 26.4-12.2-.7-15.1 4.1-6.6 10.8 12 9.7 47.1 14.7 47.1 6.9 0-1 5-9 11-17.9 6.1-8.9 11-17.1 11-18.2 0-1.1.8-1.6 1.7-1 1 .6.8 5.2-.3 10.3-2.9 12.6 3.2 17.2 12.1 8.9 3.5-3.3 16.1-37.6 14.1-38.8-7.6-4.6-15.6-10.5-15.6-11.7 0-6.6 6.9-17.4 12-18.5 8.8-1.9 26-23.9 26-33-.4-58.5-8.3-89-27.7-106-12.5-11.1-14.9-15.1-5.2-8.7l5.5 3.6-2.6-4.9-2.6-4.8 5.4 3.5c6.2 4 10.8 2.6 6.2-2-4.4-4.4-3.7-8.4 2.6-14.4 3.1-2.9 6.6-7 7.8-9 1.9-3.6 2.2-3.6 7.4-.3 2.9 2 5.9 2.9 6.7 2.2.8-.8.1-2.3-1.6-3.4-2-1.3-.4-1.7 5.6-1.2 9.8.9 9.6 1.2 5.1-7.2-3.2-6.1-5.4-36.1-2.5-34.3.7.4 2.8 4.3 4.8 8.7 2 4.5 4.5 7.6 5.5 7 2.2-1.4.3-11-4.4-21.8-2-4.4-4.6-12.5-5.9-18-1.3-5.5-4.6-13.6-7.5-17.9l-5.2-8 5.8 3.7c3.2 2.1 8.1 5.9 10.9 8.5 7.1 6.5 8.8 5.9 4.5-1.8-7.9-14.3-23.9-25.4-41.1-28.6-7.7-1.4-8.5-2.7-9.9-14.7-.7-6-5.6-8.2-5.6-2.6m-58 71.6c-2.3 6.5-6.7 16.1-10 21.3-7.4 12.1-4.7 12.2 5.8.2 9.4-10.6 10.4-8.9 3.1 5.5l-5.1 10 5-3.2c2.7-1.8 8.7-8.2 13.3-14.1 4.6-6 9.4-10.9 10.6-10.8 5.2.1 10.3 6.5 13.5 16.9l3.4 11-10.5-1.3c-6.9-.8-11-.4-11.9 1.1-.9 1.4.4 2.2 3.7 2.2 5.1 0 5.2.1 1.8 5.2-3.2 4.9-3.2 5.3-.1 7.1 4.2 2.4 4.4 5.7.4 5.7-5 0-3.4 3.4 3 6 7.1 2.9 14.9-1 18-8.9.9-2.6 2.8-5.3 4-6.1 1.6-1 1-2.8-1.7-5.7-2.3-2.4-4.6-8.4-5.3-13.3l-1.2-9 6.2 13c6.8 14.2 6.8 18.3.1 32.4-5.3 10.9-5.1 11.9.8 4.6 3.8-4.6 5-5.2 5-2.5.3 11.8-33.8 26.5-58.3 25.1l-14-.8-11.8-12.2c-11.3-11.7-17.2-28.6-10-28.6 1 0 1.4-1.8.8-4-2-7.5 1.2-18 5.5-18 4.7 0 5 2.6.9 6.7-4 4-3.8 5.3 1 5.3 4.3 0 5.6 5.1 1.6 6.5-3.8 1.2.3 5.5 5.4 5.5 15.7 0 8.1-26.5-7.7-26.8-9.7-.3-9.3-1 5.1-9.2 6.7-3.8 16.8-12.1 22.4-18.3 12.2-13.6 12.3-13.6 7.2 1.5m32-.2c0 10.8 0 10.9-4.9 8.7l-4.8-2.2 4.2-8.8c5.4-11 5.5-10.9 5.5 2.3m47.9 46.9c6.2 11.6-.8 21.6-17.4 24.8-7.3 1.3-9.1-2.5-3.3-7.1 1.7-1.4 5.2-4.6 7.7-7.1 5.5-5.4 9.1-5.8 9.1-1 .1 2.9.4 3 1.9.6 2.1-3.4-.8-8.1-5.1-8.1-1.5 0-4.2 2.3-6 5-4.6 7.1-7.5 6.2-3.7-1.1 2.7-5.2 8.2-9.3 13.3-9.8.8 0 2.4 1.6 3.5 3.8M169 157c4.3 3.5 16.2 2.6 20-1.4 1.4-1.5.2-1.7-4-.6-7 1.7-8.3 1.7-15 0-4.9-1.3-4.9-1.2-1 2m58.1 6.1c-2 8-9.6 18.6-14.3 19.8-3.2.8-4.2 2.7-4.4 8.4-.2 4.1-1 7.9-1.9 8.6-.8.6-1.6 2.2-1.7 3.6-.7 8.5-1.5 8.4-3.9-.5-1.6-5.5-2.8-12.1-2.9-14.7 0-3-1.5-5.1-4-5.7-8.3-2.2-4.3-11.3 6-13.7 3.9-.9 7.5-1.8 8-2 .6-.1 5.1-2.1 10-4.4 5-2.3 9.3-4.3 9.7-4.4.4 0 .2 2.2-.6 5m18.3 4c22.2 18 26.3 27.2 27.7 62.3.6 14.1 2.1 31.2 3.2 38l2.1 12.5-10.4 13-10.3 13.1H242c-17.8 0-39-6.5-37.1-11.3 3.3-8.7 3.5-28.1.3-29.4-5.7-2.1-14.9-26-18.4-47.9-1.8-11.2-4.2-21.3-5.3-22.4-1.9-1.9-1.6 2.9 1.8 28 .9 6.5.6 7.5-1.5 5.5-6.3-6-4.9-1.5 3.3 11 4.9 7.4 8.8 15.3 8.7 17.5-.2 7.7-5 17.4-9.9 20.3l-4.9 2.9 5-1.3c2.8-.7 8.6-2.9 12.9-5 8.7-4.2 10.4-3.9 8 1.5-.8 2-1.4 4.3-1.2 5.1.3 1.6-11.7 13-16.7 16-7.5 4.4-12.1-5.3-12.6-26.6-.3-11.3-1-21.2-1.5-22.1-.5-.8-1-16.2-1.1-34.2-.2-37.3 1.3-43.6 10.5-43.6 6 0 6.4.6 3.9 7-1.3 3.1-.4 4.7 4.1 7.5 4.1 2.5 5.7 5 5.7 9.1 0 7.4 5.7 26.4 7.9 26.4 1.5 0 8.1-25.1 8.1-31 0-1.4 1.7-3 3.8-3.5 4.5-1.2 14.2-15.7 14.2-21.1 0-3.5 1.6-6.4 3.5-6.4.4 0 5.8 4.1 11.9 9.1m-10.8 30.4c-5.3 12.5-8.8 26.9-9.4 38.6-.3 6.1-2 14.2-3.9 17.9-4.5 9-6.3 21.1-3.5 22.9 1.4.8 2.2-.7 2.2-4.3 0-8.5 8.4-24.7 18.9-36.5 10.9-12.2 10.5-16.5-.5-5.2l-7.4 7.7-.6-6c-.3-3.2 2.1-13.5 5.5-22.6 6.7-18.5 7-20 4-20-1.2 0-3.5 3.4-5.3 7.5m24.2 53.8c-1.9 3.1-5.6 9.1-8.2 13.3-8.3 13.2-9.4 17.8-4.1 17 3.2-.4 4.3-1.8 4-4.6-.3-2.2 2.1-7.1 5.4-10.9 5.7-6.6 9.7-17.2 7.5-19.4-.6-.6-2.6 1.5-4.6 4.6M210 289.1c0 4.8 10 12.9 15.8 12.9 6.6-.1 30-6.3 35.2-9.3 8.5-5.1.4-5-14.9 0-20 6.6-21.1 6.6-28.4-.7-6.9-6.9-7.7-7.2-7.7-2.9m7 22.1c-4.3 3.2-11.4.2-9.8-4.1.9-2.2 2.4-2.3 7.3-.6 5.6 1.9 5.8 2.3 2.5 4.7m35.9 28.7c3.5 5.7-13.8 41.9-18 37.6-2.4-2.4 1.3-17.5 4.3-17.5 3.2 0 3.5-.7 6.8-13.5 2.1-8.2 4.5-10.5 6.9-6.6m-67.7 44.9c.6 1.6 5.5 3.9 11 5.2 10 2.5 12.2 4.6 6.7 6.8-7.1 2.7-42.9-8.4-42.9-13.2 0-3 24-1.8 25.2 1.2"/></svg>