<svg xmlns="http://www.w3.org/2000/svg" width="400" height="400" viewBox="0 0 400 400"><path d="M227 2l-16 2c-44 0-103 54-110 100-2 11-4 7-7-14-4-32-10-43-19-37-4 2-4 2-7-3-6-10-20-4-20 8 0 4 0 4-5 1-8-5-19 14-19 33 0 10 4 9 4-2s6-27 11-28c6-1 8 4 7 18l-1 41c1 15 0 29-1 31-2 3-1 3 3 1s5-3 4-7c-4-14-1-90 3-95 6-7 12-2 15 12 1 4 2 7 3 6s2-2 1-3c-2-3 3-10 7-10 3 0 3 0 10 35l2 15c0 3 1 7 3 8l2 6a600 600 0 0 0 13 57l-7-6c-6-7-7-8-10-5-7 7-4 25 4 30 3 1 4 4 4 13-1 15 2 14 3 0 1-9 1-13-2-14-10-8-11-11-10-17 1-9 4-9 12-2 3 4 8 6 11 6s8 1 11 3c7 4 7 3 2 25l-2 21c0 8-2 15-5 22s-5 13-4 16c3 10-3 23-17 43l-18 25c-3 6-3 6-14-1-9-6-16-15-16-22s-6-16-10-16c-14 0-36-52-36-85a806 806 0 0 1 5-97c-2-3 5-14 8-14s3 5 3 36c-1 38-1 39 5 32 3-3 3-5 1-10-2-6-3-18-1-47 0-10-3-15-9-15-20 0-22 133-4 168 5 9 6 13 6 22 0 7 1 15 4 22l7 23c6 27 17 55 25 63 2 4 10 4 101 4 92 0 99 0 100-4 1-3 1-3 1 0 0 4 3 4 48 3h47l1-10c3-13 0-18-21-34l-19-13 10-5 18-12 9-8-2 10c-2 19 9 2 16-23 2-7 5-14 7-16l4-5-1 11-2 15c-3 8 4 1 9-8 11-20 17-58 13-81-5-28-5-42-1-41 6 2 5-1-3-16-8-16-12-27-16-45-7-32-22-64-40-81-26-25-85-45-108-35m-38 95a1115 1115 0 0 0 10 37c-1 1-17-11-20-16-3-3-3-3-3 1 0 2 5 7 12 13 10 7 14 12 17 20 6 12 9 13 8 3-1-6-1-7 2-6s3 1 1-3l-4-4-1-19c0-10 1-19 2-19l1 3c0 3 11 18 22 31l14 16c12 16 17 20 20 19 4-1 4-1 2 4-8 22 10 43 23 28 12-13 10-32-3-38-5-3-5-3 0-3 8 0 17 10 17 21l1 9c3 0 8-12 7-16-1-3-1-3 1 0l2 27 3 23c3 0 1 12-3 14s-4 2-3-1l3-11-8 17c-9 22-49 51-73 51-7 0-43-18-43-22l-4-8c-8-10-16-26-17-32-1-8-9-26-12-28-6-5-9-28-5-49a773 773 0 0 0 7-30c2-2 4-7 5-12 6-17 16-29 19-21m96 27l5 6-11 9c-14 10-14 10-15-16l-1-19 8 7 14 13m-215 7c0 17 0 17 5 20 7 3 8 3 4-2-3-3-4-8-5-20-1-22-4-20-4 2m230 15c8 14 9 18 2 12-2-2-8-4-14-5-11-1-15 3-16 14 0 5-3 0-4-8-1-7-1-7 9-14 5-3 10-8 10-9 2-5 5-3 13 10m-117 9c-18 8-24 19-19 31 4 7 6 6 6-3 0-10 11-20 22-20 5 0 5 0 1 2-5 2-13 12-16 19-1 4 6 22 11 26 12 8 28-16 20-31v-5c4-3-8-23-14-23l-11 4m21 20c-1 5-7 4-8-1 0-3 1-3 4-2l5 1-4-4-4-5 4 4c3 2 4 5 4 7m91 2c0 1-1 2-3 2s-3-1-3-3c0-4 4-3 6 1M53 195c-12 6-23 14-23 15 0 4 5 2 16-6l13-8c2 0 3-1 3-3 0-4 1-4-9 2m145 5c0 1-1 2-3 2s-3-1-3-2l3-2c2 0 3 1 3 2M80 213c-8 12-16 51-10 51l4-17c1-10 4-21 7-27 6-11 6-12 3-12-1 0-3 2-4 5m155 5v3c1 2 5-1 5-3 0-3-3-3-5 0m-2 37c-5 4-5 5-3 5l5-2c2-3 9-2 14 1 6 4 7 1 2-4-7-5-12-5-18 0m-121 19c-3 7-13 13-23 15-11 1-11 3 1 3 13 0 32-17 26-23-1-1-3 2-4 5m127 28c6 0 12-2 25-9 7-3 7-3 2 5-11 16-15 23-15 27-1 6-3 6-9-2l-20-21-13-13 12 7c6 3 14 6 18 6m-18 4c26 25 31 31 25 33-2 0-6 3-8 7l-4 7-3-8c-11-24-18-39-23-46-6-9-2-7 13 7m88 11c-3 13-3 13-10 6l-6-8 7-12 7-12 1 10 1 16m-36-12c1 4 2 8 1 16l-1 21c0 11 0 11-3 8l-10-9c-9-7-8-17 1-32 7-10 8-11 12-4m-5 61c5 13 7 20 4 17-2-3-6-11-9-21-2-7 1-4 4 5m-28 25c-1 1-2-5-1-13l1-14 1 13-1 14"/></svg>