<svg xmlns="http://www.w3.org/2000/svg" width="400" height="400" viewBox="0 0 400 400"><metadata>from the PNG by InfiniteShift</metadata><path d="M183 2C113 18 75 76 84 153c8 66 7 69-21 117A447 447 0 0 0 9 394l-1 6h199l2-14c3-33 5-36 5-7v21h5c4 0 5-1 5-6l1-10 1-13c0-11 3-11 3 1 0 7 2 17 4 24 2 8 15 5 14-2-2-8 1-8 3 0l2 6h86l-3-6c-2-3-4-7-6-7a497 497 0 0 1-13-81l5 20 3 5v-5l5-53 4-48 6 8c7 11 8 11 11 1 1-4 3-7 4-7 4 2 8-2 9-9l4-24C385 96 349 27 266 4c-16-4-67-5-83-2m68 75l-7 13c0-3 12-28 13-27l-6 14m-69-10l-11 13c-11 11-19 27-25 45-4 12-5 2-1-12 6-19 37-58 37-46m95 16l-2 15-3 17c-3 22-3 23-5 25-2 3 1 2 5-1 7-4 13-30 15-57 0-7 2-13 3-7l1 11a254 254 0 0 1 1 60c3 0 5-10 5-26 0-21 9-24 12-4l2 12c4 25 3 30-5 32-8 3-19 13-17 16 1 2 2 1 3-1 3-4 12-4 11 0-2 4-7 4-7 1 0-6-5 5-5 12-1 13 14 17 20 5s3-23-7-23c-4 0-4 0-2-2 9-5 19 2 18 13-1 9 0 9 6 0l4-7-5-7-7-7-2-2c0-4 4-2 10 6 7 9 7 13-1 38-3 9-5 23-6 33-1 25-1 24-46 51-28 17-42 15-80-11-10-7-13-8-10-5 1 3 4 6 7 7s4 3 4 3c0 2 36 20 40 20 2 0 2 1-1 5l-4 11c-2 4-2 4-6 0l-15-9c-23-12-28-17-28-24l-1-11c-4-23-8-34-13-42-6-11-7-12-4-12 2 0 13 21 15 32 3 8 3 7 3-19 0-15 1-27 2-26s1-9 1-20c1-30 1-29 5-21 5 9 9 10 5 2-7-20 30-26 40-7l5 9c2 3 2-4 0-10-5-19-23-25-44-14-11 5-14 4-7-2l15-23 15-24c5-8 3-2-4 14-12 26-13 28-3 27 8 0 14-6 31-31 6-10 12-14 10-7l-2 7-7 18c-7 12 2 4 11-9 5-10 11-17 13-17 6-1 7-1 4-4-4-2-4-3 1-13 7-13 8-13 6 3m22-4l4 14c1 3 0 5-2 6-5 1-5 2-5-15-1-16 0-18 3-5m-40 3l-6 8c-2 0-1-4 2-9 7-11 8-11 4 1m-46 71c-9 4-12 19-6 29 9 14 25 6 25-12 0-15-8-21-19-17m9 3c0 3-6 6-8 5-3-2 0-7 4-7l4 2m-86 13c1 6 1 7-2 5-4-2-12 8-12 14 0 4 4 2 6-4 3-7 5-7 9-1 2 2 1 4-3 6-5 4-5 18 1 22 1 1 3 5 3 9l1 8-9-8c-16-15-16-16-12-37 5-23 13-30 18-14m66 23l3 3c5 2 19 1 19-1l-6-2-11-1c-3-1-5-1-5 1m-63 8c1 10-4 10-5-1 0-5 1-7 2-7 2 0 3 3 3 8m157 5c3 2 18 3 19 0 1-2-3-2-10-2-8-1-11 0-9 2m-21 11c0 4 0 6-2 8-4 3-4 6 0 6s7-7 6-14c-2-8-6-8-4 0m-51 34c-7 4-10 16-4 16 2 0 2-1 1-3-3-10 19-14 41-8 9 2 8 9-1 11-4 1-4 1 0 3 5 2 15-8 12-13-5-7-40-11-49-6m-53 56c-1 17 4 48 10 57l3 5 7-9c13-19 16-21 10-10l-7 19c-3 12-7 13-11 3a199 199 0 0 0-6-11l-4-16-3-11c-3-2-2-41 0-41s2 4 1 14m43 9c12 6 13 11 3 11-7 0-19 14-29 32-4 8-5 2-7-32l-1-32 14 9 20 12m27 6l4 17 2 11 2 7v2c-2 0-10-19-10-23l-6-5c-7-4-9-8-2-7 4 0 5 0 3-2s-2-4 0-6c1-2 2-4 1-5-1-2-1-2 1-2 2 1 4 7 5 13"/></svg>