<svg xmlns="http://www.w3.org/2000/svg" width="400" height="400" viewBox="0 0 400 400"><path d="M182 5c-6 2-15 8-20 13-7 7-9 8-16 7-12-1-32 14-42 32-6 11-14 34-12 36 1 1 7-5 7-7l4-7c3-4 3-4 2 0-6 17-7 29-7 61l-2 39c-1 3 0 5 2 5s4-5 6-15c3-21 6-23 6-4 0 10 2 24 5 38 4 12 6 23 5 24s0 4 1 6c1 3 2 2 5-5 3-9 6-10 5 0l-3 19c-2 15 0 17 5 7 2-4 5-6 6-5 3 6 1 71-3 71l-8 5c-10 7-25 10-59 11-30 2-31 2-41 13-11 11-28 40-28 46v5h137l-5-7-10-18c-2-6-8-16-13-22-9-14-9-15 1-17l17-6c12-7 12-7 10-1-2 11-2 17-1 17 4 0 9-41 9-77 0-15 1-19 4-24 3-3 5-7 5-9l2-6c1-1 3-5 3-8l2-11c2-5 1-6-5-6-15 0-28-29-18-39 4-4 6 0 3 5s-3 11 0 11c1 0 2-1 2-3 0-1 0-2 1-1 2 1 2-14 0-17-4-7 6-7 14 0 5 3 7 6 7 12 0 11 4 11 4 1l2-9c1 0 2 4 2 12 0 18 5 46 7 39 2-5 3-22 4-32l2-5c1 0 2 1 1 2 0 1 0 6 2 11 4 9 4 8 4-8-1-15 2-19 10-13 7 5 22 8 28 4 3-2 3-2-2-2-4 0-4-1-3-2 10-10 14 3 6 15-9 12-8 13 6 3 13-9 17-10 6-1-10 9-4 8 7 0l9-7 5 7c6 6 6 7 9 2 3-3 5-4 12-2 5 1 11 2 13 1 4-1 4 0 3 9-3 22-11 38-29 56l-14 17c-14 18-40 13-67-13-6-6-8-7-8-5 0 7 38 32 47 32 4 0 5 1 4 4-8 25-8 54 0 56 2 1 3 0 1-5-5-20 1-51 11-55 4-2 10-6 13-10l11-14 10-11c2-4 2-3 1 6-2 23 3 29 9 8l6-21 3-6v8c1 8 5 11 5 3s9-46 10-41c3 17 22-29 22-53 1-17 4-7 4 13 0 8 1 15 3 16 7 4 8-44 1-65l-7-23-3-11c-3-5-3-7 0-5 4 2 17 25 17 29 1 5 1 5 3 1 5-9-3-32-18-50l-7-7h14c18 0 16-3-6-8-13-2-19-5-23-9-28-30-95-46-133-30m55 107c1 10 3 26 6 34 2 3 1 3-2 1-7-3-17-4-20-2-2 1 0 2 6 3 18 3 22 7 17 16-2 4-2 4-9 0-5-3-12-4-19-5h-11l9-13 15-29c9-18 8-18 8-5m66 31c1 14 1 15-4 15-3 0-5-1-4-3l4-15 3-12 1 15m-19 17c-3 11-12 30-14 29-5-3-3-13 5-23 11-12 11-12 9-6m-135 3l2 4 2 10 1 14c2 7 2 7-2 2-5-7-7-6-4 2 3 7 9 8 11 1 1-3 0-7-1-10-2-3-2-7-1-9s0-7-1-11c-3-6-7-8-7-3m156 7c0 7-1 7-4 5l-9-2c-9 0 1-10 10-11 2 0 3 3 3 8m-4 11c2 2-3 5-9 5-3 0-2-1 1-3 5-4 7-4 8-2m-40 21c0 15-1 19-4 21-2 1-2 2-2 3 4 4 9-6 9-18 0-14-2-18-3-6m-98 12c0 2 1 9 4 16 3 6 7 18 8 27l4 16c1 1 2 7 2 15l2 16 1 9 3 30 3 23c0 1-3 2-7 2h-8v-13c0-7-1-11-2-10l-2 12v11h-24l-3 3c-1 3 0 3 9 2 16-3 42-1 48 2 2 2 5 3 6 2 2-1-8-9-11-9l-3-8a1447 1447 0 0 0-19-126l-7-16c-2-5-3-6-4-4m50 23c8 8 51 12 51 6 0-3-4-4-5-1-2 2-16 1-29-3-12-4-20-4-17-2m29 81l4 3 20 7c11 5 18 16 21 37l3 14-8 10-7 11h58l58-1-6-12-15-25c-5-8-13-20-19-25l-10-10h-34a158 158 0 0 1-58-8c-8-4-11-4-7-1m6 41c-7 2-17 10-17 14 0 5 2 4 8-3 3-4 8-7 10-7l5-2 4-1c2 1 4 0 4-1 0-3-5-3-14 0"/></svg>