<svg xmlns="http://www.w3.org/2000/svg" width="400" height="400" viewBox="0 0 400 400"><path d="M242 4c0 5-5 6-14 3-11-4-38-4-52 0l-15 2-11-2-9-3c-2-2-4-2-4-1-2 2 9 13 16 16 5 2 5 3 2 3l-11 4-10 4c-4 0-24 16-24 19 0 4 1 4 15-4 17-9 24-11 16-4-9 7-17 23-18 36-1 5-2 11-4 13-4 5-12 22-10 24 1 0 5-3 8-7l7-8v8l1 14c1 5 0 8-4 13-5 8-3 10 5 5l3 5c1 6 2 6 2 3 2-9 3-9 9-2 6 9 24 25 27 25 5 0 5 4 2 11-2 4-3 9-2 12l4 72c1 22 2 33 4 34 2 2 2 4 1 12-3 11 0 15 18 24l12 6-6 11c-14 25-16 27-32 26-13-1-16 4-7 11 12 10 47 15 47 7l11-18 11-18c0-1 1-2 2-1l-1 10c-3 13 4 17 12 9 4-3 17-38 15-39-8-4-16-10-16-12 0-6 7-17 12-18 9-2 26-24 26-33 0-59-8-89-28-106-12-11-15-15-5-9l6 4-3-5-3-5 6 4c6 4 11 2 6-2-4-5-4-9 3-15l7-9c2-3 3-3 8 0 3 2 6 3 7 2 0-1 0-2-2-3-2-2 0-2 6-1 9 0 9 1 5-8-4-6-6-36-3-34l5 9 5 7c3-2 1-11-4-22l-6-18c-1-6-4-14-7-18l-6-8 6 4 11 8c7 7 9 6 5-2-8-14-24-25-41-28-8-2-9-3-10-15-1-6-6-8-6-2m-58 71c-2 7-7 16-10 21-7 13-5 13 6 1 9-11 10-9 3 5l-5 10 5-3c3-2 9-8 13-14l11-11c5 0 10 7 13 17l4 11-11-1c-7-1-11-1-12 1-1 1 1 2 4 2 5 0 5 0 2 5s-3 5 0 7c4 3 4 6 0 6-5 0-3 3 3 6 7 3 15-1 18-9l4-6c2-1 1-3-2-6-2-2-4-8-5-13l-1-9 6 13c7 14 7 18 0 32-5 11-5 12 1 5 4-5 5-5 5-3 0 12-34 27-58 26l-14-1-12-12c-11-12-17-29-10-29l1-4c-2-8 1-18 5-18 5 0 5 3 1 7s-4 5 1 5c4 0 6 5 2 6-4 2 0 6 5 6 16 0 8-27-8-27-9 0-9-1 5-9 7-4 17-12 23-18 12-14 12-14 7 1m32 0c0 11 0 11-5 9l-5-3 5-8c5-11 5-11 5 2m48 47c6 11-1 21-17 25-8 1-10-3-4-7l8-8c5-5 9-5 9-1 0 3 0 3 2 1 2-3-1-8-5-8-2 0-4 2-6 5-5 7-8 6-4-1 3-5 8-9 13-10l4 4m-95 35c4 4 16 3 20-1 1-2 0-2-4-1-7 2-8 2-15 0-5-1-5-1-1 2m58 6c-2 8-10 19-14 20-3 1-4 3-5 8l-2 9-1 4c-1 8-2 8-4-1l-3-15c0-3-2-5-4-5-8-3-4-12 6-14l8-2 10-4 10-5-1 5m18 4c23 18 27 27 28 62l3 38 2 13-10 13-10 13h-16c-18 0-39-6-37-11 3-9 3-28 0-30-5-2-15-26-18-48l-5-22c-2-2-2 3 1 28 1 7 1 8-1 6-6-6-5-2 3 11 5 7 9 15 9 17 0 8-5 17-10 20l-5 3 5-1 13-5c9-4 10-4 8 1l-1 6c0 1-12 13-17 16-7 4-12-6-13-27l-1-22-1-34c0-38 1-44 10-44 6 0 7 1 4 7-1 3 0 5 4 8 4 2 6 5 6 9 0 7 6 26 8 26 1 0 8-25 8-31 0-1 2-3 4-3 4-2 14-16 14-22 0-3 2-6 4-6l11 9m-10 31c-6 12-9 26-10 38 0 6-2 14-4 18-4 9-6 21-3 23 1 1 2-1 2-4 0-9 8-25 19-37s10-16-1-5l-7 8-1-6c0-4 3-14 6-23 7-18 7-20 4-20-1 0-4 3-5 8m24 53l-8 14c-9 13-10 17-4 17 3-1 4-2 4-5-1-2 2-7 5-11 6-6 10-17 7-19l-4 4m-49 38c0 5 10 13 16 13s30-6 35-9c9-5 0-5-15 0-20 6-21 6-28-1s-8-7-8-3m7 22c-4 3-11 0-10-4 1-2 3-2 7 0 6 1 6 2 3 4m36 29c3 6-14 42-18 37-2-2 1-17 4-17s4-1 7-13c2-9 5-11 7-7m-68 45c1 1 6 4 11 5 10 2 12 5 7 7-7 2-43-9-43-13 0-3 24-2 25 1"/></svg>