<svg xmlns="http://www.w3.org/2000/svg" width="400" height="400" viewBox="0 0 400 400"><metadata>from the PNG by InfiniteShift</metadata><path d="M183 2.2C112.8 18.4 75 76 83.9 153c7.7 65.9 7.1 69-21.1 117.4-19.9 34.2-33.2 62.1-40 83.5-2.9 9.4-6.9 20.7-8.8 25.1s-4.1 10.9-4.9 14.5L7.7 400h199.7l1.4-14.5c2.9-32.4 5.2-35.4 5.2-6.8V400h5c4.2 0 5.1-1 5.3-6.5.2-3.6.6-7.8.8-9.5.3-1.6.6-7.4.7-12.8.2-11.2 2.8-10.9 3.3.4.3 7 2 17.3 4.2 24.9 2 7.1 14.8 4.7 13.4-2.5-1.6-7.8.9-7.8 3.6 0l2.1 6h85.7l-3-5.9c-1.7-3.2-4.3-6.6-5.7-7.5-2.3-1.4-9.1-37-15.7-81.4-2.5-17.1-.6-16.1 2.5 1.2 1.4 8 3.8 16.9 5.2 19.6l2.6 5 .1-5c.1-2.7 2.2-26.6 4.6-53l4.5-48 5.9 8.4c7.3 10.4 7.6 10.5 10.9.7 1.4-4.4 3.3-7.5 4.1-7 3.6 2.2 7.5-1.8 8.6-8.7.6-4.1 2.5-14.8 4.2-23.9C385.2 95.5 348.8 27.1 265.7 4c-16-4.4-66.6-5.5-82.7-1.8m68.2 75.1c-3.8 7.5-7 13.1-7.1 12.4-.2-2.3 12.4-27.9 13.3-27 .5.5-2.3 7.1-6.2 14.6M182 67c0 .6-5 6.5-11.1 13.1-10.5 11.4-19 26.6-25.1 44.9-4 12.1-4.9 1.9-1-11.6C150.5 93.7 182 54.5 182 67m95.4 15.9c-.6 7.1-1.7 13.9-2.4 15.2-.8 1.2-2.3 8.6-3.4 16.5-3 22.5-3.1 23-4.5 25.3-1.8 2.9 1.2 2.5 5.3-.6 6.3-4.8 12.7-30.5 14.3-57.7.4-7.1 2.4-12.2 2.8-7.1.2 1.4.8 6.6 1.4 11.5 2 15.5 2.6 41.2 1.1 50.8-.7 5.1-.6 9.2.3 9.2 2.7 0 4.5-10.2 4.6-26.5.1-20.4 9.4-23.1 12.2-3.5.3 1.7 1.1 7.1 1.8 12 3.8 24.9 3 29.7-4.8 32.2-7.8 2.6-18.7 13.2-16.8 16.3.7 1.2 2 .6 3.1-1.2 2.4-4.3 12-4.5 10.3-.3-1.4 3.6-6.7 4-6.8.5-.1-5.1-4.6 5.6-5 12-.9 13.6 14.1 17.9 19.9 5.7 5.9-12.5 3-23.2-6.4-23.2-4.2-.1-4.7-.5-2.4-2 8.5-5.5 18.9 2.2 17.6 13.2-1 8.6.2 8.5 6-.3l4.5-7-5.3-7c-2.9-3.8-6.1-6.9-7-6.9-1 0-1.8-.9-1.8-2 0-4.3 4.2-1.6 9.8 6.1 6.8 9.3 6.7 13.1-1 38-2.7 8.6-5.2 22.8-5.8 32.9-1.5 25-1.1 24.5-46 51.1-27.8 16.5-42 14.6-79.7-10.8-10.1-6.8-13-8.1-10.8-4.8 1.6 2.5 4.8 5.4 7.2 6.5s4.3 2.6 4.3 3.4c0 1.8 36 19.6 39.6 19.6 2.1 0 2.1 1.1-.3 5.5-1.6 3-3.6 7.6-4.6 10.1-1.7 4.5-1.8 4.5-5.7.9-2.2-2-9-6.3-15.2-9.6-22.6-12-27.8-16.4-27.9-23.4-.1-3.6-.6-8.6-1.1-11.3-4.2-22.9-7.5-33.9-12.7-42.4-6.5-10.5-7-11.8-4.6-11.8 2.3 0 13 21.4 15.7 31.7 2.4 8.7 2.5 7.5 2.7-18.3 0-15.2.8-27.2 1.6-26.7s1.7-8.2 1.8-19.4c.6-30.3.3-29.3 4.8-20.8 4.8 9 8.5 10 5.2 1.3-7.3-19.5 30.1-25.9 39.7-6.8l4.5 8.8c2.2 3.7 2.6-3.4.7-10-5.7-18.9-22.9-24.4-44.1-14.1-11.1 5.4-14.1 4.6-7.5-2.1 1.5-1.4 8.3-11.6 15.3-22.6l14.8-23.5c5.6-8.7 3.7-2-3.9 14-12.3 25.9-12.5 27.8-2.8 26.8 8.1-.7 13.9-6.7 30.6-31.6 6.5-9.8 12.7-13.4 10.5-6.2l-1.9 6.5c-1.4 4.6-5.3 14.3-7.3 17.6-7.1 12.4 2.3 4.5 10.8-9 5.7-9.1 11.7-16.7 13.3-16.8 6.3-.4 6.9-1 3.5-3.6-3.4-2.5-3.3-3.3 1.7-12.9 6.9-13.2 7.5-13 6.2 2.6m22-3.4l3.7 13.7c.8 3 .2 4.7-2.2 5.6-4.6 1.7-4.5 2.2-5.3-14.3-.8-16.8.5-18.4 3.8-5m-40.9 2.1c-1.9 4.6-4.6 8.4-5.9 8.4-1.4 0-.3-3.7 2.8-9.1 6.2-11.1 7.9-10.6 3.1.7m-46 71.7c-8.7 3.5-11.5 19.2-5.3 28.9 8.8 14.1 24.6 6.2 24.7-12.3.1-14.5-7.8-21.3-19.4-16.6m9.5 2.5c0 2.8-5.6 6.7-7.8 5.3-3.1-1.9-.2-7.1 4-7.1 2.1 0 3.8.8 3.8 1.8m-86.5 13.3c1.9 6.3 1.8 6.7-1.5 4.9-3.7-2-12 7.6-12 13.7 0 4.7 4.3 2.1 6.3-3.8 2.3-6.4 5-6.9 8.5-1.3 1.7 2.7 1.2 4-2.6 6.7-5.3 3.7-5.1 17.7.4 21.6 1.6 1.2 3.2 5.4 3.7 9.4l.8 7.3-9-8c-16.1-14.1-16.6-15.8-12.2-36.6 5-23.3 12.8-29.5 17.6-13.9m66.5 22.5c0 1.1 1.4 2.5 3.2 3.2 5.1 1.9 18.8 1.4 18.8-.8 0-1.1-2.9-2-6.5-2s-8.5-.6-11-1.3c-2.5-.6-4.5-.3-4.5.9m-62.7 8.5c.4 10.3-4 9.7-4.9-.8-.4-5 .2-7.3 2-7.3 1.7 0 2.7 2.9 2.9 8.1m156.5 4.5c2.7 2.7 18.6 3 19.5.3.5-1.4-3.4-2.2-10.4-2.3-7.7-.1-10.6.5-9.1 2m-21.1 11.2c.7 3.9.1 6.7-1.8 8.3-3.7 3.1-3.7 5.9 0 5.9 4.4 0 7.5-7.4 6.1-14.1-1.7-7.8-5.9-7.8-4.3-.1m-51.2 34.3c-6.9 4.1-9.2 15.9-3.1 15.9 1.1 0 1.6-1.2 1-2.8-3.8-9.8 18.2-14.5 40.5-8.6 9 2.4 8.5 9.6-.9 11.9-3.8.8-3.8 1-.3 2.5 5.4 2.3 15.1-7.7 12.1-12.5-4.6-7.3-39.8-11.8-49.3-6.4m-52.3 56.4c-1.5 16.6 3.9 47.8 9.7 56.7l3.5 5.2 6.8-9.7c12.9-18.2 15.4-20.8 10-9.9-2.7 5.3-6.1 14.1-7.5 19.5-2.9 11.3-6.4 12.4-10.7 3.2a198.98 198.98 0 0 0-6-11.5c-1.5-2.7-3.4-9.7-4.1-15.5-.8-5.8-2.2-11-3.1-11.6-2.7-1.7-2.3-40.9.4-40.9 1.6 0 1.9 4.4 1 14.5M214 315c11.9 6 13.3 11 3.2 11-6.8 0-19.5 13.9-29.1 31.8-4.2 7.9-5.5 1.9-6.9-32.3L180 294l13.5 8.8c7.4 4.7 16.7 10.3 20.5 12.2m27.4 6.1l3.5 16.9 2.2 10.8c.6 3.2 1.5 6.6 2.1 7.5s.3 1.7-.6 1.7c-1.6 0-9.2-18.6-9.5-23 0-1.1-2.8-3.3-6.1-5-7.5-3.8-8.6-7.8-1.9-7.1 4 .4 4.5 0 2.7-2.2-1.7-2-1.7-3.4.1-5.6 1.4-1.6 1.8-4 1-5.3-.9-1.4-.4-2 1.3-1.4 1.5.5 3.8 6.2 5.2 12.7"/></svg>