<svg xmlns="http://www.w3.org/2000/svg">
<symbol id="icon-cat1" viewBox="0 0 400 400">
<path d="M280 8c18-9 22-10 28-3 10 13 11 56 2 84-4 11-5 20-6 48-1 36-1 37 9 37 3 0 10 1 14 3 8 3 8 3-6 2-24-2-30 4-11 10 13 4 23 9 18 9l-12-3c-22-8-28-2-9 7 17 8 15 10-2 3l-16-5c-4 0-26 18-28 22-3 10 6 46 13 51 2 2 17-15 29-34 24-37 52-59 67-51 7 4 5 9-9 22-13 14-28 38-41 66-9 19-15 26-29 35-8 5-11 8-12 12-3 19-3 22 0 31 5 14 1 20-18 23-6 1-7 2-7 6l-4 10c-8 9-38 5-38-5 0-5 3-5 5 0 3 9 14 10 16 2v-5l2 5c4 12 16 0 14-15-1-10-1-10 2-5 4 5 7 4 7-2l2-4 2 4 1 4c2 3 7 0 7-4s2-5 6-2c1 2 2 2 2-2 0-14-22-17-28-4-3 6-2-19 3-60 2-23 3-29 0-33l-6-11c-2-3-4-11-4-17l-2-11-14 3a234 234 0 0 1-100-5l-1 8-4 19c-7 21-5 41 10 86l8 24-5 7c-4 6-4 7-1 13 5 10 8 11 12 1l3-5 1 5c2 7 12 7 14 0 1-3 2-4 3-2 5 8 6 1 4-40l1-46c2-4 4 10 4 35 0 28 1 32 10 34l12 2 5 2-2-27-3-36c-2-10-1-12 2-6 1 3 4 22 5 44l4 43-7-6c-12-16-18-17-26-3-11 20-39 23-47 5-3-6-5-7-11-7-9 0-13-4-16-18l-6-30c-7-32-5-50 9-72 6-10 7-13 7-26v-14l-10-8-10-9-18 6c-18 5-25 6-16 1 11-6 68-18 72-15 2 2-3 3-15 5-17 2-18 3-9 10 35 29 108 32 156 7 18-10 23-14 15-16-16-3-18-5-5-4 8 1 14 0 14-1 0-3-5-4-15-4l-11-2c-2-1 3-2 16-2 15 0 18-1 18-3s-3-3-17-3c-20 0-18-4 1-4 22 0 23-2 6-15-13-8-13-9-37-11-14-1-28-3-32-5l-8-3 2-15 5-25 4-10-13-12c-18-15-18-15-37 6l-8 10 4 11c11 32 3 42-33 45-17 1-19 2-32 10-19 12-17 14 8 14l16 2c1 1-5 2-17 2-25 0-24 4 1 6 10 1 17 1 16 2a340 340 0 0 1-30 5c-1 1-11 2-23 2l-21 1 16-4c25-6 24-8-2-11l-12-2 15-1c12-1 15-2 14-4l-3-28-6-38c-8-29-9-38-9-56 0-35 7-46 24-42 16 3 45 18 60 30l13 11 30-2 31-1 22-15 38-24m25 31V9l-5-1c-7 0-15 6-29 24l-17 20-6 8 6 3c7 3 25 20 36 35 5 6 7 7 8 6 3-6 7-38 7-66M98 24C74 8 72 9 72 37c0 53 9 92 15 65a136 136 0 0 1 41-43l4-5-9-10c-5-6-17-15-25-20m171 62c-20-13-41-5-52 19-13 27-4 40 27 40 41-1 57-38 25-59m-122 5c-21-15-49 1-49 28 0 21 32 35 56 24 18-9 14-38-7-52m79 9c20-19 52 11 35 32-13 15-38 11-42-7-2-9 1-19 7-25m-99-1c15-7 31 3 32 20 2 12-4 20-15 23-30 8-45-31-17-43m52 49c5-5 3-6 25 5l20 10-16 31c-20 39-18 39-38 0l-16-31 11-5 14-10m27 21c-6-2-21-3-25-2l-8 2c-3 1-5 2-6 4-2 5 18 45 22 45 9 0 25-46 17-49m-92 124c-2-5-3-6-8-3-3 2-3 3 2 14 4 8 7 16 8 25 1 15 2 16 8 14 4-1-2-28-10-50m145 27c2-16 3-25 2-26-2-2-3 5-5 20-3 32-2 36 3 6m-127 34c-4-7-17-8-23-2-3 4-4 8-1 8 1 0 2 2 1 5 0 5 1 6 5 7 5 0 6-1 6-3 0-3 0-4 2-1 5 7 14-6 10-14"/>
</symbol>
<symbol id="icon-cat2" viewBox="0 0 400 400">
<path d="M52 4c-4 5-2 13 15 45 16 31 29 60 29 66 0 2-4 3-19 4-23 1-46 6-50 9s-4 5 4 24c12 28 20 42 36 57l14 14-1 18c-3 62 28 126 50 105 5-4 10-20 10-31v-9l17 9 22 9c11 0 13 2 26 27 25 46 39 57 53 43 4-3 6-8 6-11 0-4 1-5 4-5 12 0 26-14 20-21-8-9 8-68 20-79 12-10 24-31 34-62 7-23-8-70-28-86-9-6-12-16-14-39-2-19-18-61-24-61-1 0-2-1-2-3l-9-12-8-10-9 5c-14 10-37 41-48 68-6 13-6 13-19 18l-19 9c-4 3-11 5-18 5l-10 1-14-27C93 29 63-6 52 4m212 24c16 20 26 43 28 66l3 19c2 4 1 4-2 1a139 139 0 0 0-51-20c-4-1-8-3-7-4l7-31c9-43 11-46 22-31m30 97c21 9 27 48 9 58-43 24-60 17-59-25 1-31 22-45 50-33m-88 9l24 7 11 4-1 16c-1 40 25 52 60 27 4-3 6-3 12-1 6 1 9 1 15-2 11-5 7 0-6 6-12 6-20 13-18 14 0 1 5-1 9-4l27-15c4 0 0 12-4 13-8 3-25 11-26 13-3 4 0 4 14-3 17-8 18-8 16-1-1 8 1 6-13 11-7 2-12 4-11 5s5 1 9-1c11-4 15-4 13 0l-2 5c-7 47-100 107-146 93l-7-2 13-14c7-7 13-14 12-15-1 0-8 6-15 14l-14 15-9-3c-5-1-9-3-9-4l32-23c9-5 13-9 9-9-2 0-29 18-38 25-6 5-8 5-12 3-8-3-4-8 11-15l5-4 16-8c7-3 13-7 13-8 0-2-3-1-10 2-9 5-10 5-8 1l5-4 1-3 6-6c35-21 39-50 9-69-10-6-11-7-9-13 1-8 1-14-1-34-2-19-3-19 17-13m-135 7c32 11 44 16 42 21-7 17-12 39-12 57 0 9-1 12-4 6l-11-10c-22-14-50-59-50-81 0-3 13 0 35 7m191-1c-12 5-16 22-9 35 9 16 26 17 38 3 16-19-5-46-29-38m18 6l2 4c-1 1-4 0-7-2-5-3-5-4-2-4l7 2m-94 44c13 3 30 21 30 31 0 38-64 62-82 31-19-34 12-71 52-62m-15 6c-8 2-18 16-18 24-1 26 35 38 49 15 12-21-8-46-31-39m20 7c4 3 4 3 0 3-2 0-6-1-8-3-4-3-4-3 0-3 2 0 6 1 8 3m53 19c-3 2-4 4-4 5 3 2 13-2 14-6s-4-4-10 1m43 0v4c5 7-15 14-30 10-4-1-4-1-5 4-1 12-1 14-6 19l-12 6c-7 2-10 5-4 5 10 0 24-13 24-22 0-6 3-11 5-8 4 6 24 0 29-9 3-5 2-14-1-9M98 267c3 2 7 3 10 3 5 0 8 3 24 27 2 3 4 5 5 4l-2 25c-1 8-2 12-4 12l-6 3c-3 3-4 3-7 1-3-1-4-1-4 1 0 5-11-11-17-24l-7-18c-2-5-7-36-8-46v-8l6 8 10 12m195 31c-7 12-13 52-9 59 3 6 3 7-2 7-4-1-5 0-4 4 0 4 0 5-2 3-4-4-9-4-7 0 1 5-6 4-9-1-3-6-2-41 3-56l14-12 15-11c4-5 5 1 1 7m-36 22c-3 15-4 48 0 53 3 6 4 11 1 11l-2 4c0 3-1 4-4 3-2 0-4 0-4 2 0 14-23-11-40-45l-10-16c-2-3-1-3 16-6 10-1 24-4 30-7 14-6 15-6 13 1"/>
</symbol>
<symbol id="icon-cat3" viewBox="0 0 400 400">
<path d="M231 2c-6 4-27 41-36 63-5 13-7 16-14 19-11 6-24 15-27 19-1 1-3 3-4 2-5-3-87-7-89-4-8 8 17 58 38 76 19 17 23 21 24 26 4 15 16 32 29 39 10 6 10 7 2 10-7 3-13 9-11 11l6-2c8-8 15-11 19-10s3 2-6 8l-10 9c0 3 2 2 12-5 14-11 15-2 1 10-6 5-9 9-8 10 0 1 5-2 9-6l8-8-3 8-6 15c-3 4-6 11-8 17l-4 10-17 5c-40 10-70 38-71 65 0 13 6 12 21-6 18-20 41-33 62-33 14 0 22 5 16 11s4 23 15 23c3 0 5 1 4 3-3 7 8 13 24 13 17-1 22-5 24-16 2-12 19-14 22-2 3 19 41 21 47 3 2-6 4-7 9-7 13 0 20-18 10-25-2-2-2-3 1-8 12-17 12-47 1-64-10-15-13-24-14-42l-2-25c-2-17 1-21 17-22 12 0 18-2 16-5-1-1-7 0-13 1-13 2-14 2-12-3l14-6 13-5c0-3-2-3-13 1l-10 3c-6 0 3-10 10-12 5-1 9-4 10-5 1-4 1-4-8 0l-8 3-1-12c-2-14-8-28-18-40-5-6-8-12-9-16-4-40-48-105-62-95m16 15c16 20 29 43 39 71 4 13 4 13-6 5a86 86 0 0 0-46-18c-12 0-14-1-13-4 2-5 5-19 7-34 5-33 6-34 19-20m28 86c8 4 17 19 17 30 0 30-46 44-59 17-15-31 12-60 42-47m-64 8l15 6v16c2 29 22 43 47 31 6-3 8-3 13-1 6 2 19 2 27-1 2-1 3-1 3 2-2 8-39 21-62 21h-21l-5 7-13 13-9 7 8 6 13 10 14 10 7 6-14 5c-8 2-20 5-27 5l-14 1 11-8 14-10c2-1 2-2 2-3-2-2-28 17-28 19 0 3-6 2-10 0-2-2-2-2 1-3 7-3 33-21 32-22-1 0-6 2-11 6a158 158 0 0 1-24 14c-4 3-7 3-8 2s5-6 17-12c20-11 26-14 25-16-1-1-6 1-12 5l-11 6-13 7c-17 9-18 9-7-2 5-5 9-11 9-14s3-5 8-8c21-10 28-35 14-49-9-9-20-16-25-16-8 0-8-20 1-43 3-7 11-6 33 3m-114-1c7 2 18 6 25 10l14 6-5 10c-5 9-11 33-11 44 0 6 0 6-13-7-15-15-37-46-37-53l-2-6-2-5c0-5 7-5 31 1m164 11c-12 5-15 18-7 30 9 12 28 9 34-7s-10-30-27-23m-74 38c27 17 24 45-6 57-22 8-44-8-42-32 1-25 27-38 48-25m-14 13c-5 2-11 17-9 22 6 17 29 18 36 3 8-18-8-32-27-25m141 4c-2 3-7 6-20 10l-20 9c0 2 1 2 3 1 12-5 31-11 32-10 3 2-2 5-16 8-8 2-15 5-15 6h4l10-2 11-2c4-1 4-1 1 2l-4 6c0 5-32 35-35 33a469 469 0 0 0 7-39c0-8 1-9 11-13l20-9c13-6 13-6 11 0m-88 1c-7 4-7 5-2 7s7 0 9-6c1-6 0-6-8-1m41 30a427 427 0 0 0-7 35c-1 1-10-4-17-10l-10-8-6-2 11-9c10-8 29-18 31-17l-2 11m29 18c-1 8 0 14 4 27l6 18-3 26c-1 14-4 37-7 51l-5 25 4 3 4 8c0 5 0 5-2 2-3-5-7-5-4 0s3 5-4 8c-5 1-6 1-6-2 0-5-2-10-4-10l-1 7c2 7 2 7-5 6-6 0-7-1-8-6 0-6-4-7-4-1 0 5 0 5-2 1l-2-43c0-38-2-51-7-46-1 1-1 3 1 4 1 2 2 13 2 37v35l-5-2c-4-2-6-2-10 0l-6 2c-3 0 0-58 4-69 1-4 1-4-2-1-5 5-8 28-6 56 1 23-2 44-4 30-2-6-5-5-5 1l-1 5-7 1c-4 2-4 1-4-4 1-3 1-5-1-5s-3 2-3 5c0 4-1 5-3 4l-5-1c-1 0-2-3-1-6l1-7-4 5c-6 7-5 0 0-8l5-6-7-32a1138 1138 0 0 1-9-54c-1-2 1-5 3-8 3-3 4-7 4-13 0-5 1-9 2-9l15-1a137 137 0 0 0 44-9l8-3c9-2 26-14 33-23 9-10 8-10 7 2m16 68c3 5 3 8 1 16-3 11-3 25-1 34 1 5 1 5-6 5-5 0-7-1-6-3 2-5 7-41 7-50 0-10 1-10 5-2m5 61l3 9c1 6 1 6-1 2-3-6-5-5-3 1 0 5-3 11-7 11l-1-7-2-8c-2-1-2 1-2 7 2 8 0 10-6 5-3-3-3-4-1-13l3-11 8 2 9 2m-127 11c1 11 0 16-4 16-2 0-3-2-2-7s1-7-1-7-3 4-2 12c0 5-7 1-8-5 0-6-3-7-5-2 0 2-1 1-1-2 0-16 21-20 23-5"/>
</symbol>
<symbol id="icon-cat4" viewBox="0 0 400 400">
<path d="M216 48c-7 17-11 29-15 48-2 9-13 12-52 14-38 2-45 3-45 11 0 14 17 54 27 64 5 5 5 4-20 6l-21 2-13-14c-18-18-29-41-38-80-10-41-15-45-19-15-7 47 6 90 36 124l8 9-8 9c-4 5-11 15-15 23l-20 34c-23 33-28 55-15 66 10 9 17 6 25-8 4-9 19-18 54-31 46-19 44-19 60 10 17 31 33 41 47 29 5-5 5-9-1-15-5-4-7-20-3-20l12 19c19 34 31 44 47 36 10-5 10-8 6-22-5-17-2-44 8-66 8-17 10-18 43-22 73-8 94-19 94-48 0-15-8-19-23-10-8 5-11 5-23 5-19-1-20-3-17-18 4-14 2-12 19-14 22-2 23-7 2-5s-22-2-2-7l14-5c1-2-16 0-24 2-9 3-4-3 7-9 13-5 12-8-1-3-9 3-13 4-11 1 3-5-31-44-47-53-5-3-10-9-12-13-8-16-47-54-55-54l-9 20m38 10c13 13 24 27 22 29h-21l-21-1-3-13-4-25-2-13 7 4c4 2 14 11 22 19m36 38c23 14 28 34 11 45-18 12-36 5-41-16-7-24 10-41 30-29m-39 5c4 1 5 3 6 15 2 27 17 40 38 31 24-10 54-2 35 9-23 12-23 19 1 13 9-2 6 2-5 7-6 2-10 5-8 5 1 1 5 0 8-1 8-4 9-2 4 12s-12 26-22 35l-7 7 2-21c1-20-1-52-4-55-1-1-6-1-11 1l-16 4c-7 1-9 3-13 10l-15 18-10 10 20 19c11 11 22 20 24 21 10 3-6 11-33 16-35 6-36 5-16-17l11-13c-1-1-8 6-15 14-12 13-21 19-21 13 0-3 20-24 27-27l4-4c-1-2-12 5-24 16-12 10-17 13-17 9 0-3 16-15 29-23 6-4 11-8 10-9s-17 8-30 18c-11 9-16 10-21 5-4-2-3-3 5-5 11-2 26-16 31-27 2-5 6-10 8-11 13-7 19-28 11-37-5-5-5-5-2-1 11 18-9 44-33 44-16 0-34-15-34-29 0-28 30-42 55-27 5 4 9 5 7 3l-11-8-8-5-2-16c-1-12 0-17 2-18 2-2 34-3 40-1m18 4c-11 12 0 36 15 32 13-3 17-15 11-27-6-11-18-13-26-5m-130 17l24 6 5 2-5 11c-5 9-7 27-7 52 0 19-29-19-43-56-8-22-7-22 26-15m53 27c-27 14-8 55 18 42 18-8 18-34 1-42-8-4-10-4-19 1m64 3c-5 4-5 7 1 7 5 0 10-5 8-8s-3-3-9 1m80 7l-2 3-10 4c-11 4-10 1 1-5 9-4 11-5 11-2m-37 21c3 27-3 59-10 59a147 147 0 0 1-46-36c-2-2-3-2 22-16l26-16c6-6 7-5 8 9m92 21c1 1-1 1-3 1-5-1-5-1-1 2 7 5 3 9-5 4-5-4-5-1 0 4 3 2 6 3 9 2 7-2 6 0-1 7-3 3-6 8-6 10 0 9-40 20-83 23-27 2-34 6-42 23-12 24-16 68-7 79 1 1 2 4 1 5-2 3-6 2-8-3-1-4-1-4-3 2-1 8-7 9-10 2-1-3-3-5-4-5s-1 1-1 3c5 13-12-9-24-29-10-18-25-35-35-38-13-4-48-2-59 2l-27 10c-32 12-53 25-59 37-2 4-4 7-6 7s-3-1-1-4c3-5 3-8 0-8l-3 5c-2 8-6 6-4-2l1-8-4 4c-11 10-2-20 15-48 14-22 14-22 16-10 3 28 23 27 64-2 5-4 10-5 31-6l25-1 10 6c27 17 49 17 55-1 4-12 4-12 19-12 23-1 50-16 74-40 16-17 17-17 23-15 13 4 31 3 38-3 7-5 13-6 15-3m-223 96c13 4 16 9 15 20-1 8-1 11 3 17 6 9 4 16-2 9l-4-5 1 5c4 12-14 5-24-11l-19-36c0-2 23-1 30 1"/>
</symbol>
<symbol id="icon-hero1" viewBox="0 0 400 400">
<path d="M129 3c-2 6-1 14 3 22l4 7-5-1c-8-2-20 3-30 12-9 10-11 13-3 9 5-3 10-3 17 0 9 3 2 6-16 6-16 0-29-5-35-14-6-8-8-8-7 0 2 11 9 24 15 29l6 5-14 2c-23 4-47 19-51 32-1 5 2 5 5 1l12-6c8-3 9-3 5 0-7 5-6 7 1 6 5-1 6-1 9 5 2 3 5 8 9 10l5 5-7-2c-9-1-10 1-3 7 3 2 4 4 3 4-4 0-2 4 3 5l5 1-4 9c-7 13-27 19-43 14-7-2-6 1 3 8 13 9 21 13 27 13h5l-5 7c-6 6-11 17-11 22 0 4 5 4 8-1 2-4 4-4 12-3l15 2c11 1 4 19-9 25l-9 4 7 3c4 2 10 3 16 3l10-1v11c-1 11 3 16 5 7 0-2 3-5 7-7s5-2 2 1c-8 5 2 7 13 2 8-4 14-1 18 10 2 5 4 10 6 11 2 2 2 3 0 9l-4 9c-1 5-19 19-41 32-27 16-33 21-40 30-5 7-12 25-12 31l26 1h25v-24c-1-33-1-33 16-44l18-13c3-4 6-4 4-1-3 5-5 48-3 75l1 6h83l84 1 1-7 2-15 4-55c0-8 0-9 9-2l17 11 11 6-1 11-4 47c-1 4 1 4 29 4h30l-1-5c-8-26-19-40-39-51l-62-39 2-7c2-4 2-7 0-8-3-4 5-19 15-25s19-4 19 4c0 2 1 3 3 3 1 0 2-2 1-8 0-7 0-8 4-8s18-11 18-14l-7-1c-5 1-7 1-9-3-3-5 1-6 4 0 3 5 6-1 5-9s-1-8 5-5c2 1 4 4 4 7 0 6 3 7 5 2 2-6 1-14-3-22l-4-8 7-6c4-3 9-10 12-15l7-10c3-1-4-16-10-19-4-3-4-3 3-9 6-6 11-15 15-28 2-6-1-8-3-3-4 10-23 14-33 7l-6-4 7-6c7-6 21-31 18-33l-6 5c-6 6-18 10-28 10h-5l8-7c8-8 13-18 11-26l-2-10c-1-6-4-6-5-1-2 6-10 9-10 3 0-5 9-17 13-17 2 0 3-1 3-2 0-3-19-2-26 1l-5 3 1-10c0-9 0-10-9-18-12-9-14-10-11-3 4 11-5 19-15 14-8-4-9-7-2-13s6-6-11-2c-15 3-22 6-28 12-4 3-8-3-8-12 0-8-5-3-8 8-3 10-3 10-5 6-7-14-24-26-19-13 4 10 3 18-2 13-8-8-25-15-42-17-9-1-10 1-3 5 10 5 20 28 13 28-4 0-24-21-26-27-3-7-7-9-9-4m92 165c-1 4-6 10-9 15l-6 8c2 1 30-12 35-17 4-3 3 4-1 13-3 5-1 6 4 2 5-5 18-9 19-7 2 4 0 7-6 9-10 2-33 13-34 16-1 4 0 4 7 0l6-3-3 5c-4 6-2 10 2 5 7-10 28-16 27-8-1 2-3 3-8 2s-8 1-10 4c-5 10 1 22 11 19 5-1 7-5 3-5-6 0-1-13 8-19 11-7 14 4 4 15-7 8-7 9 2 6 6-2 6-1 4 1-4 4-2 5 6 3 7-2 7-1 4 10-3 12-33 18-47 11-3-2-5-2-5-1 0 4 9 6 25 6 21 0 28-5 33-21 1-5 3-9 4-9l1 3c-1 3-1 3 1 3 4-2 3 4-7 34-9 27-56 60-82 57-11-1-42-16-61-28-15-10-20-20-26-54l-6-25c-1-4 0-6 8-13 5-5 11-13 13-19 7-14 10-17 18-19l11-4 5-3-1 8c-3 10-1 13 4 6l4-5-1 11c0 11 3 14 7 5 2-5 10-11 29-24 11-7 14-5 8 7m149-2c4 5-2 9-12 7-4-1-4-2-1-5 4-4 9-5 13-2m-228 20c1 2 5 4 11 6l9 3-10 3c-37 13-28 62 11 62 8 0 27-6 27-8 0-1-4-1-8 1-21 9-46 1-46-15-2-26 9-36 35-34 3 0 9 3 13 7 9 8 11 9 7 0-3-5-1-8 2-3l4 2c9 0-8-10-31-19-18-6-25-8-24-5m24 23c-6 3-9 13-5 19 8 9 23 4 17-6-3-3-3-4 0-6 6-4-4-10-12-7m158 11c2 14-22 52-29 46-2-2 2-10 6-12 6-2 16-23 13-28-2-2-2-2-2 2s-9 24-11 24c-5 0 4-21 13-30s9-9 10-2m-207 10l1 12c1 12-2 10-8-3-4-8-4-8 1-10 6-4 6-4 6 1m-12 5c1 6 12 21 14 21 3 0 6 6 4 7-1 2-11-5-17-14-9-11-10-12-9-16 2-4 6-4 8 2m101 33l2 4 2-4-2-4-2 4m33 22c-4 3-36 5-47 2-10-2-12-1-8 3 6 6 57 3 59-4 2-4-1-4-4-1m21 21c-4 4-36 22-45 25-12 5-14 10-7 25 9 21 3 27-12 13-10-10-12-12-14-24-1-7-4-15-6-18l-9-13-5-9 18 9c29 15 43 14 71-4 11-7 13-8 9-4"/>
</symbol>
<symbol id="icon-hero2" viewBox="0 0 400 400">
<path d="M164 7c-7 3-16 5-20 5-12 0-26 7-41 22-39 37-48 63-46 129l1 34-7 24c-10 30-13 81-6 103 7 24 5 42-4 50-6 5-17 23-15 25l6-10c4-6 8-11 11-11 2 0 4-2 5-3 1-4 6-2 8 5l9 13 6 7h36c19 0 35-1 35-2 0-3-6-16-11-22l-4-6c2-2 19 20 19 25 0 4 1 5 4 5 9 0-2-20-19-39l-12-13 12-4 15-8c2-2 4-2 4-1 0 5 19 20 29 24 4 1 6 3 6 4 0 2 2 3 5 3 2 0 4-1 4-3l2-3c15-1 28-7 42-21l9-9 7 4 9 4c4 1-8 17-22 29-15 12-31 29-31 31 0 4 10 2 15-3l5-4-3 4-2 5h104l6-14c6-13 9-17 17-22 7-3 29 22 29 33 0 2 1 3 2 3 2 0 2-1 2-2l-6-12c-2-5-9-14-15-20s-9-10-8-11c4-4 4-46 1-62l-4-30c-2-23-7-40-18-65-13-29-13-31-10-56 7-55-35-122-85-135-21-6-62-6-76 0m66 60c2 5 2 5-2 2-5-4-7-7-7-9 0-3 6 2 9 7m-15-2c0-3 0-3 3 0 2 2 2 3 0 5-2 3-3 2-7-2-5-4-7-2-3 2 4 3-1 6-5 3-3-2-3-3 0-6 2-1 3-4 3-5s2-1 4 1c3 3 5 3 5 2m-28 8c1-2 4 0 7 4 4 6 4 7 0 4-5-5-10-5-6-1 2 4 2 4-2 1-3-1-6-4-7-6-2-4-2-4 2-2s5 2 6 0m-29 10l4 7-6-7-3-6 5 6m-33 14c0 26 68 77 81 60 3-3 0-11-5-11-1-1 0-1 3-2 4-1 6 0 10 5 6 9 6 9 0 9s-11 4-15 13c-5 9-2 10 5 3l5-5v10c1 14 6 21 14 21 13 0 24-13 22-26-1-6-1-6 2-2 2 2 2 6 2 9-2 5-2 5 3 2 11-10 11 30 1 52-12 23-50 52-69 52-14 1-44-14-64-32-3-2-8-11-11-20l-10-26c-7-14-7-17 0-10l5 6-1-9c-1-9 1-15 5-15l2 3c0 1-1 3-2 2-2-1-2 0-1 2l1 7c0 3 10 13 16 15 4 2 3 2-2 2-3 0-6 0-6-2-2-3-6-2-4 1 2 7 20 4 27-5 3-3 3-18 1-19l-3-4h4c1 2 3 3 4 2 2-2-7-9-16-12-4-1-8-4-8-5l-1-7c-1-4-1-4 6-4 9 1 12-2 3-4-7-1-11-16-8-34l1-19c-1-5 0-8 1-8l2 4m67 31c6 7 9 13 7 13a107 107 0 0 1-17-25l10 12m36 1c2 4 2 7 1 7l-3-5-2-9c-3-6 1-1 4 7m11 18l3 6 2 4c0 4-1 4-6 3-10-2-11-3-11-11 0-11 10-12 12-2m-129 17c10 10 10 9 3 9-6 0-7-1-10-9-3-11-3-11 7 0m208 14c-5 5-9 5-12 0v-4l8-6 6-6 1 6c0 4-1 8-3 10m-96-5c1 3-2 7-6 7-2 0-4-4-3-7 2-4 7-4 9 0m81 6c8 12 6 27-5 40l-8 10c-4 7-4 4-6-24-1-26-1-26 4-28 7-4 12-3 15 2m-15 6c-4 4-4 4 1 3 11-3 13 13 4 23-5 5-1 4 5-1 9-8 0-32-10-25M81 195c5 1 6 4 3 8-2 4-19-4-22-9-4-9 0-11 8-5l11 6m38-9c1 2 1 4-1 5-3 3-8-1-6-5 1-3 6-3 7 0m116 6c0 3-9 5-14 4-5-2-4-7 2-6h6c3-2 6-1 6 2m7 3c0 2-3 4-7 5-6 2-8 7-2 5 5-1 12-9 10-11l-1 1m-105 8c1 4-5 6-9 3-3-2-3-3 1-5 4-3 7-3 8 2m25 23c1 6 7 13 10 9 1-1 0-2-1-2l-3-4c-1-3-5-6-5-3m91 19l-8 32c-3 11-9 18-8 9l2-17c0-8 1-11 5-16l5-7 2-2 2 1m-62 9l-15 2-12 2c0 2 4 2 10 2 10 0 21-3 21-6 0-2 0-2-4 0m-63 14l21 11 8 5v16c0 11-1 17-3 20s-2 5-1 5c2 0-7 6-9 6l-3 2c-2 2-24 13-27 13-4 0-19-19-20-27-1-4-1-4 10 1 13 5 34 7 36 2 1-2-4-9-10-18-7-9-12-20-14-26l-4-14c-1-5 3-4 16 4m106 12c-1 18-5 23-21 22-9-1-10-1-6 2 4 6 16 9 23 8 4-1 5-1 3 1l-14 2c-17 1-10 8 9 9 15 2 15 2 5 13-17 20-43 26-61 14l-12-10-4-4c-2-3-2-5 2-13 3-8 4-14 3-24v-15l10 4c14 6 32 1 48-12l15-12v15m42 22l-1 8c2 6-5 23-8 23l-9-2-7-3 10-12c6-7 12-16 13-21 3-8 3-8 4-3 0 3 0 8-2 10m-110 90c4 4 7 7 8 5s-10-11-13-11c-2 0 1 3 5 6"/>
</symbol>
<symbol id="icon-hero3" viewBox="0 0 400 400"><metadata>from the PNG by InfiniteShift</metadata><path d="M183 2C113 18 75 76 84 153c8 66 7 69-21 117A447 447 0 0 0 9 394l-1 6h199l2-14c3-33 5-36 5-7v21h5c4 0 5-1 5-6l1-10 1-13c0-11 3-11 3 1 0 7 2 17 4 24 2 8 15 5 14-2-2-8 1-8 3 0l2 6h86l-3-6c-2-3-4-7-6-7a497 497 0 0 1-13-81l5 20 3 5v-5l5-53 4-48 6 8c7 11 8 11 11 1 1-4 3-7 4-7 4 2 8-2 9-9l4-24C385 96 349 27 266 4c-16-4-67-5-83-2m68 75l-7 13c0-3 12-28 13-27l-6 14m-69-10l-11 13c-11 11-19 27-25 45-4 12-5 2-1-12 6-19 37-58 37-46m95 16l-2 15-3 17c-3 22-3 23-5 25-2 3 1 2 5-1 7-4 13-30 15-57 0-7 2-13 3-7l1 11a254 254 0 0 1 1 60c3 0 5-10 5-26 0-21 9-24 12-4l2 12c4 25 3 30-5 32-8 3-19 13-17 16 1 2 2 1 3-1 3-4 12-4 11 0-2 4-7 4-7 1 0-6-5 5-5 12-1 13 14 17 20 5s3-23-7-23c-4 0-4 0-2-2 9-5 19 2 18 13-1 9 0 9 6 0l4-7-5-7-7-7-2-2c0-4 4-2 10 6 7 9 7 13-1 38-3 9-5 23-6 33-1 25-1 24-46 51-28 17-42 15-80-11-10-7-13-8-10-5 1 3 4 6 7 7s4 3 4 3c0 2 36 20 40 20 2 0 2 1-1 5l-4 11c-2 4-2 4-6 0l-15-9c-23-12-28-17-28-24l-1-11c-4-23-8-34-13-42-6-11-7-12-4-12 2 0 13 21 15 32 3 8 3 7 3-19 0-15 1-27 2-26s1-9 1-20c1-30 1-29 5-21 5 9 9 10 5 2-7-20 30-26 40-7l5 9c2 3 2-4 0-10-5-19-23-25-44-14-11 5-14 4-7-2l15-23 15-24c5-8 3-2-4 14-12 26-13 28-3 27 8 0 14-6 31-31 6-10 12-14 10-7l-2 7-7 18c-7 12 2 4 11-9 5-10 11-17 13-17 6-1 7-1 4-4-4-2-4-3 1-13 7-13 8-13 6 3m22-4l4 14c1 3 0 5-2 6-5 1-5 2-5-15-1-16 0-18 3-5m-40 3l-6 8c-2 0-1-4 2-9 7-11 8-11 4 1m-46 71c-9 4-12 19-6 29 9 14 25 6 25-12 0-15-8-21-19-17m9 3c0 3-6 6-8 5-3-2 0-7 4-7l4 2m-86 13c1 6 1 7-2 5-4-2-12 8-12 14 0 4 4 2 6-4 3-7 5-7 9-1 2 2 1 4-3 6-5 4-5 18 1 22 1 1 3 5 3 9l1 8-9-8c-16-15-16-16-12-37 5-23 13-30 18-14m66 23l3 3c5 2 19 1 19-1l-6-2-11-1c-3-1-5-1-5 1m-63 8c1 10-4 10-5-1 0-5 1-7 2-7 2 0 3 3 3 8m157 5c3 2 18 3 19 0 1-2-3-2-10-2-8-1-11 0-9 2m-21 11c0 4 0 6-2 8-4 3-4 6 0 6s7-7 6-14c-2-8-6-8-4 0m-51 34c-7 4-10 16-4 16 2 0 2-1 1-3-3-10 19-14 41-8 9 2 8 9-1 11-4 1-4 1 0 3 5 2 15-8 12-13-5-7-40-11-49-6m-53 56c-1 17 4 48 10 57l3 5 7-9c13-19 16-21 10-10l-7 19c-3 12-7 13-11 3a199 199 0 0 0-6-11l-4-16-3-11c-3-2-2-41 0-41s2 4 1 14m43 9c12 6 13 11 3 11-7 0-19 14-29 32-4 8-5 2-7-32l-1-32 14 9 20 12m27 6l4 17 2 11 2 7v2c-2 0-10-19-10-23l-6-5c-7-4-9-8-2-7 4 0 5 0 3-2s-2-4 0-6c1-2 2-4 1-5-1-2-1-2 1-2 2 1 4 7 5 13"/>
</symbol>
<symbol id="icon-hero4" viewBox="0 0 400 400">
<path d="M227 2l-16 2c-44 0-103 54-110 100-2 11-4 7-7-14-4-32-10-43-19-37-4 2-4 2-7-3-6-10-20-4-20 8 0 4 0 4-5 1-8-5-19 14-19 33 0 10 4 9 4-2s6-27 11-28c6-1 8 4 7 18l-1 41c1 15 0 29-1 31-2 3-1 3 3 1s5-3 4-7c-4-14-1-90 3-95 6-7 12-2 15 12 1 4 2 7 3 6s2-2 1-3c-2-3 3-10 7-10 3 0 3 0 10 35l2 15c0 3 1 7 3 8l2 6a600 600 0 0 0 13 57l-7-6c-6-7-7-8-10-5-7 7-4 25 4 30 3 1 4 4 4 13-1 15 2 14 3 0 1-9 1-13-2-14-10-8-11-11-10-17 1-9 4-9 12-2 3 4 8 6 11 6s8 1 11 3c7 4 7 3 2 25l-2 21c0 8-2 15-5 22s-5 13-4 16c3 10-3 23-17 43l-18 25c-3 6-3 6-14-1-9-6-16-15-16-22s-6-16-10-16c-14 0-36-52-36-85a806 806 0 0 1 5-97c-2-3 5-14 8-14s3 5 3 36c-1 38-1 39 5 32 3-3 3-5 1-10-2-6-3-18-1-47 0-10-3-15-9-15-20 0-22 133-4 168 5 9 6 13 6 22 0 7 1 15 4 22l7 23c6 27 17 55 25 63 2 4 10 4 101 4 92 0 99 0 100-4 1-3 1-3 1 0 0 4 3 4 48 3h47l1-10c3-13 0-18-21-34l-19-13 10-5 18-12 9-8-2 10c-2 19 9 2 16-23 2-7 5-14 7-16l4-5-1 11-2 15c-3 8 4 1 9-8 11-20 17-58 13-81-5-28-5-42-1-41 6 2 5-1-3-16-8-16-12-27-16-45-7-32-22-64-40-81-26-25-85-45-108-35m-38 95a1115 1115 0 0 0 10 37c-1 1-17-11-20-16-3-3-3-3-3 1 0 2 5 7 12 13 10 7 14 12 17 20 6 12 9 13 8 3-1-6-1-7 2-6s3 1 1-3l-4-4-1-19c0-10 1-19 2-19l1 3c0 3 11 18 22 31l14 16c12 16 17 20 20 19 4-1 4-1 2 4-8 22 10 43 23 28 12-13 10-32-3-38-5-3-5-3 0-3 8 0 17 10 17 21l1 9c3 0 8-12 7-16-1-3-1-3 1 0l2 27 3 23c3 0 1 12-3 14s-4 2-3-1l3-11-8 17c-9 22-49 51-73 51-7 0-43-18-43-22l-4-8c-8-10-16-26-17-32-1-8-9-26-12-28-6-5-9-28-5-49a773 773 0 0 0 7-30c2-2 4-7 5-12 6-17 16-29 19-21m96 27l5 6-11 9c-14 10-14 10-15-16l-1-19 8 7 14 13m-215 7c0 17 0 17 5 20 7 3 8 3 4-2-3-3-4-8-5-20-1-22-4-20-4 2m230 15c8 14 9 18 2 12-2-2-8-4-14-5-11-1-15 3-16 14 0 5-3 0-4-8-1-7-1-7 9-14 5-3 10-8 10-9 2-5 5-3 13 10m-117 9c-18 8-24 19-19 31 4 7 6 6 6-3 0-10 11-20 22-20 5 0 5 0 1 2-5 2-13 12-16 19-1 4 6 22 11 26 12 8 28-16 20-31v-5c4-3-8-23-14-23l-11 4m21 20c-1 5-7 4-8-1 0-3 1-3 4-2l5 1-4-4-4-5 4 4c3 2 4 5 4 7m91 2c0 1-1 2-3 2s-3-1-3-3c0-4 4-3 6 1M53 195c-12 6-23 14-23 15 0 4 5 2 16-6l13-8c2 0 3-1 3-3 0-4 1-4-9 2m145 5c0 1-1 2-3 2s-3-1-3-2l3-2c2 0 3 1 3 2M80 213c-8 12-16 51-10 51l4-17c1-10 4-21 7-27 6-11 6-12 3-12-1 0-3 2-4 5m155 5v3c1 2 5-1 5-3 0-3-3-3-5 0m-2 37c-5 4-5 5-3 5l5-2c2-3 9-2 14 1 6 4 7 1 2-4-7-5-12-5-18 0m-121 19c-3 7-13 13-23 15-11 1-11 3 1 3 13 0 32-17 26-23-1-1-3 2-4 5m127 28c6 0 12-2 25-9 7-3 7-3 2 5-11 16-15 23-15 27-1 6-3 6-9-2l-20-21-13-13 12 7c6 3 14 6 18 6m-18 4c26 25 31 31 25 33-2 0-6 3-8 7l-4 7-3-8c-11-24-18-39-23-46-6-9-2-7 13 7m88 11c-3 13-3 13-10 6l-6-8 7-12 7-12 1 10 1 16m-36-12c1 4 2 8 1 16l-1 21c0 11 0 11-3 8l-10-9c-9-7-8-17 1-32 7-10 8-11 12-4m-5 61c5 13 7 20 4 17-2-3-6-11-9-21-2-7 1-4 4 5m-28 25c-1 1-2-5-1-13l1-14 1 13-1 14"/>
</symbol>
<symbol id="icon-hero5" viewBox="0 0 400 400">
<path d="M242 4c0 5-5 6-14 3-11-4-38-4-52 0l-15 2-11-2-9-3c-2-2-4-2-4-1-2 2 9 13 16 16 5 2 5 3 2 3l-11 4-10 4c-4 0-24 16-24 19 0 4 1 4 15-4 17-9 24-11 16-4-9 7-17 23-18 36-1 5-2 11-4 13-4 5-12 22-10 24 1 0 5-3 8-7l7-8v8l1 14c1 5 0 8-4 13-5 8-3 10 5 5l3 5c1 6 2 6 2 3 2-9 3-9 9-2 6 9 24 25 27 25 5 0 5 4 2 11-2 4-3 9-2 12l4 72c1 22 2 33 4 34 2 2 2 4 1 12-3 11 0 15 18 24l12 6-6 11c-14 25-16 27-32 26-13-1-16 4-7 11 12 10 47 15 47 7l11-18 11-18c0-1 1-2 2-1l-1 10c-3 13 4 17 12 9 4-3 17-38 15-39-8-4-16-10-16-12 0-6 7-17 12-18 9-2 26-24 26-33 0-59-8-89-28-106-12-11-15-15-5-9l6 4-3-5-3-5 6 4c6 4 11 2 6-2-4-5-4-9 3-15l7-9c2-3 3-3 8 0 3 2 6 3 7 2 0-1 0-2-2-3-2-2 0-2 6-1 9 0 9 1 5-8-4-6-6-36-3-34l5 9 5 7c3-2 1-11-4-22l-6-18c-1-6-4-14-7-18l-6-8 6 4 11 8c7 7 9 6 5-2-8-14-24-25-41-28-8-2-9-3-10-15-1-6-6-8-6-2m-58 71c-2 7-7 16-10 21-7 13-5 13 6 1 9-11 10-9 3 5l-5 10 5-3c3-2 9-8 13-14l11-11c5 0 10 7 13 17l4 11-11-1c-7-1-11-1-12 1-1 1 1 2 4 2 5 0 5 0 2 5s-3 5 0 7c4 3 4 6 0 6-5 0-3 3 3 6 7 3 15-1 18-9l4-6c2-1 1-3-2-6-2-2-4-8-5-13l-1-9 6 13c7 14 7 18 0 32-5 11-5 12 1 5 4-5 5-5 5-3 0 12-34 27-58 26l-14-1-12-12c-11-12-17-29-10-29l1-4c-2-8 1-18 5-18 5 0 5 3 1 7s-4 5 1 5c4 0 6 5 2 6-4 2 0 6 5 6 16 0 8-27-8-27-9 0-9-1 5-9 7-4 17-12 23-18 12-14 12-14 7 1m32 0c0 11 0 11-5 9l-5-3 5-8c5-11 5-11 5 2m48 47c6 11-1 21-17 25-8 1-10-3-4-7l8-8c5-5 9-5 9-1 0 3 0 3 2 1 2-3-1-8-5-8-2 0-4 2-6 5-5 7-8 6-4-1 3-5 8-9 13-10l4 4m-95 35c4 4 16 3 20-1 1-2 0-2-4-1-7 2-8 2-15 0-5-1-5-1-1 2m58 6c-2 8-10 19-14 20-3 1-4 3-5 8l-2 9-1 4c-1 8-2 8-4-1l-3-15c0-3-2-5-4-5-8-3-4-12 6-14l8-2 10-4 10-5-1 5m18 4c23 18 27 27 28 62l3 38 2 13-10 13-10 13h-16c-18 0-39-6-37-11 3-9 3-28 0-30-5-2-15-26-18-48l-5-22c-2-2-2 3 1 28 1 7 1 8-1 6-6-6-5-2 3 11 5 7 9 15 9 17 0 8-5 17-10 20l-5 3 5-1 13-5c9-4 10-4 8 1l-1 6c0 1-12 13-17 16-7 4-12-6-13-27l-1-22-1-34c0-38 1-44 10-44 6 0 7 1 4 7-1 3 0 5 4 8 4 2 6 5 6 9 0 7 6 26 8 26 1 0 8-25 8-31 0-1 2-3 4-3 4-2 14-16 14-22 0-3 2-6 4-6l11 9m-10 31c-6 12-9 26-10 38 0 6-2 14-4 18-4 9-6 21-3 23 1 1 2-1 2-4 0-9 8-25 19-37s10-16-1-5l-7 8-1-6c0-4 3-14 6-23 7-18 7-20 4-20-1 0-4 3-5 8m24 53l-8 14c-9 13-10 17-4 17 3-1 4-2 4-5-1-2 2-7 5-11 6-6 10-17 7-19l-4 4m-49 38c0 5 10 13 16 13s30-6 35-9c9-5 0-5-15 0-20 6-21 6-28-1s-8-7-8-3m7 22c-4 3-11 0-10-4 1-2 3-2 7 0 6 1 6 2 3 4m36 29c3 6-14 42-18 37-2-2 1-17 4-17s4-1 7-13c2-9 5-11 7-7m-68 45c1 1 6 4 11 5 10 2 12 5 7 7-7 2-43-9-43-13 0-3 24-2 25 1"/>
</symbol>
<symbol id="icon-hero6" viewBox="0 0 400 400">
<path d="M182 5c-6 2-15 8-20 13-7 7-9 8-16 7-12-1-32 14-42 32-6 11-14 34-12 36 1 1 7-5 7-7l4-7c3-4 3-4 2 0-6 17-7 29-7 61l-2 39c-1 3 0 5 2 5s4-5 6-15c3-21 6-23 6-4 0 10 2 24 5 38 4 12 6 23 5 24s0 4 1 6c1 3 2 2 5-5 3-9 6-10 5 0l-3 19c-2 15 0 17 5 7 2-4 5-6 6-5 3 6 1 71-3 71l-8 5c-10 7-25 10-59 11-30 2-31 2-41 13-11 11-28 40-28 46v5h137l-5-7-10-18c-2-6-8-16-13-22-9-14-9-15 1-17l17-6c12-7 12-7 10-1-2 11-2 17-1 17 4 0 9-41 9-77 0-15 1-19 4-24 3-3 5-7 5-9l2-6c1-1 3-5 3-8l2-11c2-5 1-6-5-6-15 0-28-29-18-39 4-4 6 0 3 5s-3 11 0 11c1 0 2-1 2-3 0-1 0-2 1-1 2 1 2-14 0-17-4-7 6-7 14 0 5 3 7 6 7 12 0 11 4 11 4 1l2-9c1 0 2 4 2 12 0 18 5 46 7 39 2-5 3-22 4-32l2-5c1 0 2 1 1 2 0 1 0 6 2 11 4 9 4 8 4-8-1-15 2-19 10-13 7 5 22 8 28 4 3-2 3-2-2-2-4 0-4-1-3-2 10-10 14 3 6 15-9 12-8 13 6 3 13-9 17-10 6-1-10 9-4 8 7 0l9-7 5 7c6 6 6 7 9 2 3-3 5-4 12-2 5 1 11 2 13 1 4-1 4 0 3 9-3 22-11 38-29 56l-14 17c-14 18-40 13-67-13-6-6-8-7-8-5 0 7 38 32 47 32 4 0 5 1 4 4-8 25-8 54 0 56 2 1 3 0 1-5-5-20 1-51 11-55 4-2 10-6 13-10l11-14 10-11c2-4 2-3 1 6-2 23 3 29 9 8l6-21 3-6v8c1 8 5 11 5 3s9-46 10-41c3 17 22-29 22-53 1-17 4-7 4 13 0 8 1 15 3 16 7 4 8-44 1-65l-7-23-3-11c-3-5-3-7 0-5 4 2 17 25 17 29 1 5 1 5 3 1 5-9-3-32-18-50l-7-7h14c18 0 16-3-6-8-13-2-19-5-23-9-28-30-95-46-133-30m55 107c1 10 3 26 6 34 2 3 1 3-2 1-7-3-17-4-20-2-2 1 0 2 6 3 18 3 22 7 17 16-2 4-2 4-9 0-5-3-12-4-19-5h-11l9-13 15-29c9-18 8-18 8-5m66 31c1 14 1 15-4 15-3 0-5-1-4-3l4-15 3-12 1 15m-19 17c-3 11-12 30-14 29-5-3-3-13 5-23 11-12 11-12 9-6m-135 3l2 4 2 10 1 14c2 7 2 7-2 2-5-7-7-6-4 2 3 7 9 8 11 1 1-3 0-7-1-10-2-3-2-7-1-9s0-7-1-11c-3-6-7-8-7-3m156 7c0 7-1 7-4 5l-9-2c-9 0 1-10 10-11 2 0 3 3 3 8m-4 11c2 2-3 5-9 5-3 0-2-1 1-3 5-4 7-4 8-2m-40 21c0 15-1 19-4 21-2 1-2 2-2 3 4 4 9-6 9-18 0-14-2-18-3-6m-98 12c0 2 1 9 4 16 3 6 7 18 8 27l4 16c1 1 2 7 2 15l2 16 1 9 3 30 3 23c0 1-3 2-7 2h-8v-13c0-7-1-11-2-10l-2 12v11h-24l-3 3c-1 3 0 3 9 2 16-3 42-1 48 2 2 2 5 3 6 2 2-1-8-9-11-9l-3-8a1447 1447 0 0 0-19-126l-7-16c-2-5-3-6-4-4m50 23c8 8 51 12 51 6 0-3-4-4-5-1-2 2-16 1-29-3-12-4-20-4-17-2m29 81l4 3 20 7c11 5 18 16 21 37l3 14-8 10-7 11h58l58-1-6-12-15-25c-5-8-13-20-19-25l-10-10h-34a158 158 0 0 1-58-8c-8-4-11-4-7-1m6 41c-7 2-17 10-17 14 0 5 2 4 8-3 3-4 8-7 10-7l5-2 4-1c2 1 4 0 4-1 0-3-5-3-14 0"/>
</symbol>
<symbol id="icon-hero7" viewBox="0 0 400 400">
<path d="M175 3c-34 9-58 33-76 76l-12 27a278 278 0 0 0-30 91c-1 6-24 34-30 39-11 7-10 17 3 38l10 17-4 14-5 19c0 3-2 7-4 8-13 12-21 30-21 53 0 15 0 15 4 15s9-15 9-25c0-6-3-1-5 9l-3 10v-14c0-18 2-25 12-38l7-8v10c0 8 1 10 3 8l1-3 1-2c1 0 5-8 8-17 1-2 3-5 5-5 5-2 5-2 5 47 0 26 1 34 4 24v-80l-6-12a513 513 0 0 0-21-38c-13-13-11-19 15-38 18-14 20-14 31-4 8 8 11 14 7 14l-1 2c0 3-9 22-10 22-3 0-4-8-2-12v-4l-4-5c-2-5-5-3-3 2 1 1 0 2-2 3-3 1-3 2-2 5 0 3 0 5-2 7s-2 3 1 7l5 7 3 3 8 4 8 4c2-1-10-9-13-9-4 0-9-14-6-18l2-4 1 5c0 6 7 13 10 9l2-4c-1-1 1-4 2-7 10-17 11-19 6-26-6-6-3-8 3-2l8 7c5 2 7 56 3 68-3 9 0 57 6 92l2 6h32c32 0 33 0 31-3a287 287 0 0 1-8-101c8 7 29 18 35 19 10 1 46-17 56-27 4-4 5-4 4 2a1893 1893 0 0 0-6 75 466 466 0 0 0-5 28l-2 7h60l2-16 4-34c4-24 3-45-1-57-7-22-7-48 0-55l4-4-1 4c-1 4 2 11 8 22l3 6c-1 1 0 3 1 5 3 4 11-3 11-10v-4l4 4 4 3-4 6-4 7c-1 1-1 1 1 2 3 1 3 2 6-5l5-6c3-2 3-4-1-4-2-1-3-3-4-8l-2-6-1-4c0-5-3-5-5 0-1 3-3 5-4 5-2-2-2-1 0 4 2 4 1 12-1 12s-11-19-10-22l-1-2c-1 0-2-1-2-3 0-4 16-19 21-19 4 0 25 15 26 19 1 3 3 4 6 3 6-1 8 9 5 17l-3 9-15 31c-3 6-4 98-1 100 2 0 2-5 1-25-1-38 0-40 17-34 15 5 18 13 18 45 0 14 2 19 4 8 1-7 0-25-2-37-3-10-10-18-21-23l-11-5c-2-3-3-21 0-25l2-6 8-20c9-21 10-28 4-38l-4-6-2-6c-3-5-5-13-8-46l-2-8c-2-3-3-10-4-15-1-15-11-47-21-66-33-67-53-86-92-88l-16-2c-6-3-39-3-52 0m73 97a1313 1313 0 0 1 10 36c1 2 0 3-4 4l-8 2-14 5c-12 4-16 7-11 9 3 1 20-3 23-6 10-7 19-2 21 12 2 15 9 21 11 11 3-7 3-9 1-8-1 1-1-3-1-8 0-14 9 2 10 18l1 16 1 9-6-6c-4-4-10-8-13-9-4-1-8-4-10-6-7-10-23-10-31-1l-11 8c-4 1-9 5-11 7-3 4-5 5-11 6-14 2-18 0-25-15-4-11-20-16-27-9-2 3-6 4-11 4l-7 1-1-11c-1-15 0-22 5-21l5 1c1 0 2 3 2 11l1 14c1 4 0 5 16-11 9-9 10-10 14-8 8 4 12 1 6-5-2-3-2-3 1-5l2-3 7-7c5-4 11-11 14-16 8-9 8-6 0 9-7 16-15 27-21 30-9 4-2 9 7 5l7-2c17-4 48-60 48-86 0-7 3 0 11 25m-111 9l-2 20c0 10-2 13-6 13-7 0-6-9 2-30 7-17 8-17 6-3m-38 72c-1 2-4 6-16 17-7 6-7 6 0 8 10 1 19 10 17 17h1c1 0 3 1 5 4l3 3c-1-1-3 0-4 1-3 3-13-2-17-8-2-3-4-4-8-4-3 0-7-1-9-3-6-6-17-1-33 13-3 2-1 0 3-5 23-28 61-57 58-43m222 11c23 13 38 25 45 39l5 9-5-3c-26-20-31-22-37-16-2 2-6 3-9 3s-6 2-10 6c-5 6-17 10-17 6 0-8 19-25 27-25 5 0 2-5-7-11-29-19-24-24 8-8m-185-2c1 6 5 8 8 4 1-2 3-2 4-2 4 2 3 7-1 7-5 0-5 5-2 6 9 4 24 0 24-6 0-3 0-3 1-1 11 17-13 43-37 39-16-2-17-3-21-35l-2-11c-1-2 1-1 6 4 9 9 12 8 11-2 0-10 7-12 9-3m89 2c2 3 3 4 6 2 2-1 4-2 5-1 3 1 1 6-2 6-8 3-1 7 11 8 10 0 14-3 16-12 1-5 2-5 9-2 26 10 12 44-19 46-33 3-62-36-35-48 6-3 7-3 9 1m-24 21c6 39 81 44 84 5 1-9 3-12 6-9s-1 16-8 27l-14 26c-8 15-10 18-18 24-22 16-46 27-56 25-18-4-59-36-68-54-8-15-8-15 5-14 18 1 30-3 39-15 2-3 4-5 6-5 1 0 3-3 4-8 3-9 1-8 17-10 2 0 3 2 3 8m120 16c-2 3-7 5-6 2l1-3c1-1 6 0 5 1m-140 4c0 4 6 11 8 10 1-1-4-13-6-13l-2 3m2 33c-5 3-6 5-3 10s37 3 38-2c1-6-25-12-35-8m24 4l6 3h-14c-16 1-20 0-15-3 4-4 15-3 23 0"/>
</symbol>
</svg>
